<svg width="98" height="74" viewBox="0 0 98 74" fill="none" xmlns="http://www.w3.org/2000/svg">
<path d="M49.2302 1C41.9302 1 36.0002 6.94 36.0002 14.23C36.0002 18.17 37.7302 21.69 40.4702 24.12L38.0002 25C35.8502 25.77 33.9502 27.01 32.4102 28.57C31.7102 28.16 30.9802 27.82 30.2302 27.55L28.2402 26.84C30.6202 24.64 32.1202 21.51 32.1202 18.03C32.1202 11.41 26.7302 6.02 20.1102 6.02C13.4902 6.02 8.10023 11.41 8.10023 18.03C8.10023 21.51 9.60023 24.65 11.9802 26.84L9.99023 27.55C4.61023 29.47 0.990234 34.6 0.990234 40.32V51.01C0.990234 51.77 1.60023 52.38 2.36023 52.38H34.3102C35.0102 60 41.4302 66 49.2202 66C57.0102 66 63.4402 60.01 64.1302 52.38H96.0802C96.8402 52.38 97.4502 51.77 97.4502 51.01V40.32C97.4502 34.61 93.8302 29.48 88.4502 27.55L86.4602 26.84C88.8402 24.64 90.3402 21.51 90.3402 18.03C90.3402 11.41 84.9502 6.02 78.3302 6.02C71.7102 6.02 66.3202 11.41 66.3202 18.03C66.3202 21.51 67.8202 24.65 70.2002 26.84L68.2102 27.55C67.4602 27.82 66.7302 28.16 66.0302 28.57C64.4802 27.01 62.5902 25.77 60.4402 25L57.9702 24.12C60.7002 21.69 62.4402 18.17 62.4402 14.23C62.4702 6.94 56.5302 1 49.2302 1ZM49.2302 3.74C55.0202 3.74 59.7302 8.45 59.7302 14.24C59.7302 20.03 55.0202 24.74 49.2302 24.74C43.4402 24.74 38.7302 20.03 38.7302 14.24C38.7302 8.45 43.4402 3.74 49.2302 3.74ZM20.1002 8.77C25.2102 8.77 29.3702 12.93 29.3702 18.04C29.3702 23.15 25.2102 27.31 20.1002 27.31C14.9902 27.31 10.8302 23.15 10.8302 18.04C10.8302 12.93 14.9902 8.77 20.1002 8.77ZM78.3402 8.77C83.4502 8.77 87.6102 12.93 87.6102 18.04C87.6102 23.15 83.4502 27.31 78.3402 27.31C73.2302 27.31 69.0702 23.15 69.0702 18.04C69.0702 12.93 73.2302 8.77 78.3402 8.77ZM43.2602 26.04C45.0602 26.95 47.0802 27.48 49.2402 27.48C51.4002 27.48 53.4202 26.96 55.2202 26.04L59.5602 27.59C64.4102 29.32 67.6802 33.95 67.6802 39.11V49.67H64.1602C63.4602 42.05 57.0402 36.05 49.2502 36.05C41.4602 36.05 35.0302 42.04 34.3402 49.67H30.8202V39.11H30.8002C30.8002 33.95 34.0602 29.33 38.9202 27.59L43.2602 26.04ZM14.7302 28.77C16.3502 29.58 18.1702 30.05 20.1002 30.05C22.0302 30.05 23.8502 29.58 25.4702 28.77L29.3102 30.14C29.7602 30.3 30.2102 30.5 30.6502 30.73C29.0102 33.15 28.0702 36.05 28.0702 39.11V49.67H3.72023V40.34C3.72023 35.78 6.60023 31.68 10.9002 30.15L14.7402 28.78L14.7302 28.77ZM72.9802 28.77C74.6002 29.58 76.4202 30.05 78.3502 30.05C80.2802 30.05 82.1002 29.58 83.7202 28.77L87.5602 30.14C91.8602 31.67 94.7402 35.77 94.7402 40.33V49.66H70.4002V39.1C70.4002 36.05 69.4502 33.15 67.8202 30.72C68.2602 30.49 68.7002 30.3 69.1602 30.13L73.0002 28.76L72.9802 28.77ZM49.2302 38.77C55.9902 38.77 61.4802 44.26 61.4802 51.02C61.4802 57.78 55.9902 63.27 49.2302 63.27C42.4702 63.27 36.9802 57.78 36.9802 51.02C36.9802 44.26 42.4702 38.77 49.2302 38.77ZM55.4402 46.44C55.0902 46.44 54.7402 46.57 54.4702 46.84L47.8602 53.45L43.9802 49.57C43.4502 49.04 42.5802 49.04 42.0502 49.57C41.5202 50.1 41.5202 50.97 42.0502 51.5L46.8902 56.34C47.1602 56.61 47.5102 56.74 47.8602 56.74C48.2102 56.74 48.5602 56.61 48.8302 56.34L56.4102 48.76C56.9402 48.23 56.9402 47.36 56.4102 46.83C56.1402 46.56 55.7902 46.43 55.4302 46.43L55.4402 46.44ZM34.7302 64.16C34.3802 64.16 34.0302 64.29 33.7702 64.56C33.2402 65.09 33.2402 65.96 33.7702 66.49C38.0302 70.76 43.6302 72.9 49.2302 72.9C54.8302 72.9 60.4302 70.77 64.7002 66.5C65.2302 65.97 65.2302 65.1 64.7002 64.57C64.1702 64.04 63.3002 64.03 62.7702 64.57C55.3102 72.03 43.1602 72.03 35.7002 64.57C35.4302 64.3 35.0902 64.17 34.7402 64.17L34.7302 64.16Z" fill="#C5A26E" stroke="#C5A26E"/>
</svg>
