<svg width="92" height="92" viewBox="0 0 92 92" fill="none" xmlns="http://www.w3.org/2000/svg">
<path fill-rule="evenodd" clip-rule="evenodd" d="M72.71 16.21C72.05 16.21 71.51 15.67 71.51 15.01C71.51 14.35 72.05 13.81 72.71 13.81H76.91C77.14 13.81 77.36 13.88 77.54 13.99H77.56V14.01H77.58C77.7 14.11 77.8 14.21 77.88 14.32V14.34H77.9V14.36H77.91C78.02 14.54 78.09 14.76 78.09 14.99V19.19C78.09 19.85 77.55 20.39 76.89 20.39C76.23 20.39 75.69 19.85 75.69 19.19V17.88L72.31 21.26C71.84 21.73 71.09 21.73 70.62 21.26C70.15 20.79 70.15 20.03 70.62 19.57L74 16.19H72.69L72.71 16.21ZM85.91 43.84C85.44 43.37 85.44 42.62 85.91 42.15C86.38 41.68 87.13 41.68 87.6 42.15L90.56 45.11C90.56 45.11 90.64 45.19 90.67 45.23L90.69 45.25L90.7 45.27V45.29V45.32L90.71 45.35L90.72 45.38L90.73 45.41L90.74 45.44C90.82 45.6 90.86 45.78 90.86 45.97C90.86 46.16 90.82 46.34 90.74 46.5V46.52H90.73V46.54H90.72V46.56H90.71V46.58H90.69V46.61V46.63H90.68V46.65L90.66 46.67C90.66 46.67 90.59 46.75 90.55 46.79L87.59 49.75C87.12 50.22 86.37 50.22 85.9 49.75C85.43 49.28 85.43 48.53 85.9 48.06L86.83 47.13H82.05C81.39 47.13 80.85 46.59 80.85 45.93C80.85 45.27 81.39 44.73 82.05 44.73H86.83L85.9 43.8L85.91 43.84ZM75.72 72.71C75.72 72.05 76.26 71.51 76.92 71.51C77.58 71.51 78.12 72.05 78.12 72.71V76.91C78.12 77.14 78.05 77.36 77.94 77.54V77.56H77.92V77.58H77.91C77.83 77.7 77.73 77.8 77.61 77.88L77.59 77.9L77.57 77.92C77.39 78.03 77.17 78.1 76.94 78.1H72.74C72.08 78.1 71.54 77.56 71.54 76.9C71.54 76.24 72.08 75.7 72.74 75.7H74.05L70.67 72.32C70.2 71.85 70.2 71.1 70.67 70.63C71.14 70.16 71.89 70.16 72.36 70.63L75.74 74.01V72.7L75.72 72.71ZM48.09 85.91C48.56 85.44 49.31 85.44 49.78 85.91C50.25 86.38 50.25 87.13 49.78 87.6L46.82 90.56C46.82 90.56 46.74 90.64 46.7 90.67L46.68 90.69L46.67 90.71L46.66 90.73H46.65L46.64 90.75L46.62 90.77L46.6 90.78L46.58 90.79L46.56 90.8C46.4 90.88 46.22 90.92 46.03 90.92C45.84 90.92 45.66 90.88 45.5 90.8H45.48V90.79H45.46V90.78H45.44V90.77H45.42V90.75H45.41L45.4 90.73H45.39V90.71H45.38V90.69L45.36 90.67C45.36 90.67 45.28 90.6 45.24 90.56L42.28 87.6C41.81 87.13 41.81 86.38 42.28 85.91C42.75 85.44 43.5 85.44 43.97 85.91L44.9 86.84V82.06C44.9 81.4 45.44 80.86 46.1 80.86C46.76 80.86 47.3 81.4 47.3 82.06V86.84L48.23 85.91H48.09ZM19.22 75.72C19.88 75.72 20.42 76.26 20.42 76.92C20.42 77.58 19.88 78.12 19.22 78.12H15.02C14.79 78.12 14.57 78.05 14.39 77.94H14.37V77.92H14.35C14.23 77.82 14.13 77.72 14.05 77.6V77.58H14.03V77.56H14.02C13.91 77.38 13.84 77.16 13.84 76.93V72.73C13.84 72.07 14.38 71.53 15.04 71.53C15.7 71.53 16.24 72.07 16.24 72.73V74.04L19.62 70.66C20.09 70.19 20.85 70.19 21.31 70.66C21.77 71.13 21.78 71.88 21.31 72.35L17.93 75.73H19.24L19.22 75.72ZM6.01 48.09C6.48 48.56 6.48 49.31 6.01 49.78C5.54 50.25 4.78 50.25 4.32 49.78L1.36 46.82C1.36 46.82 1.28 46.74 1.25 46.7L1.23 46.68L1.22 46.66V46.64V46.61L1.21 46.58L1.2 46.55L1.19 46.52L1.18 46.49H1.12C1.04 46.33 1 46.15 1 45.96C1 45.77 1.05 45.59 1.12 45.43V45.41H1.13V45.39H1.14V45.37H1.15V45.35H1.17V45.32V45.3H1.18V45.28L1.2 45.26H1.25C1.25 45.26 1.32 45.18 1.36 45.14L4.32 42.18C4.79 41.71 5.55 41.71 6.01 42.18C6.47 42.65 6.48 43.4 6.01 43.87L5.08 44.8H9.86C10.52 44.8 11.06 45.34 11.06 46C11.06 46.66 10.52 47.2 9.86 47.2H5.08L6.01 48.13V48.09ZM16.21 19.22C16.21 19.88 15.67 20.42 15.01 20.42C14.35 20.42 13.81 19.88 13.81 19.22V15.02C13.81 14.79 13.88 14.57 13.99 14.39V14.37H14.01V14.35H14.02C14.1 14.23 14.2 14.13 14.32 14.05L14.34 14.03L14.36 14.01C14.54 13.9 14.76 13.83 14.99 13.83H19.19C19.85 13.83 20.39 14.37 20.39 15.03C20.39 15.69 19.85 16.23 19.19 16.23H17.88L21.26 19.61C21.73 20.08 21.73 20.84 21.26 21.3C20.79 21.77 20.03 21.77 19.57 21.3L16.19 17.92V19.23L16.21 19.22ZM43.84 6.01C43.37 6.48 42.62 6.48 42.15 6.01C41.68 5.54 41.68 4.78 42.15 4.32L45.11 1.36C45.11 1.36 45.19 1.28 45.23 1.25L45.25 1.23L45.26 1.21L45.27 1.19H45.28L45.29 1.17L45.31 1.15L45.33 1.14L45.35 1.13L45.37 1.12C45.53 1.04 45.71 1 45.9 1C46.09 1 46.27 1.05 46.43 1.12H46.45V1.13H46.47V1.14H46.49V1.15H46.51V1.17H46.52L46.53 1.19H46.54V1.21H46.55V1.23L46.57 1.25C46.57 1.25 46.65 1.32 46.69 1.36L49.65 4.32C50.12 4.79 50.12 5.55 49.65 6.01C49.18 6.47 48.43 6.48 47.96 6.01L47.03 5.08V9.86C47.03 10.52 46.49 11.06 45.83 11.06C45.17 11.06 44.63 10.52 44.63 9.86V5.08L43.7 6.01H43.84ZM45.96 13.25C36.93 13.25 28.75 16.91 22.83 22.83C16.91 28.75 13.25 36.93 13.25 45.96C13.25 54.99 16.91 63.17 22.83 69.09C28.75 75.01 36.93 78.67 45.96 78.67C54.99 78.67 63.17 75.01 69.09 69.09C75.01 63.17 78.67 54.99 78.67 45.96C78.67 36.93 75.01 28.75 69.09 22.83C63.17 16.91 54.99 13.25 45.96 13.25ZM31.64 51.61C32.42 49.49 33.76 47.49 35.17 46.73C36.14 46.21 37.44 46.06 38.7 46.2C40.01 46.34 41.33 46.79 42.21 47.44C42.74 47.84 43.15 48.3 43.52 48.72C43.74 48.97 43.95 49.2 44.1 49.32C44.27 49.45 44.68 49.54 45.12 49.63C46.16 49.85 47.35 50.11 48.43 51.25C48.78 51.62 48.96 51.95 49.14 52.29C49.27 52.53 49.4 52.76 49.59 52.92C50.4 53.56 51.65 53.75 52.85 53.92C53.84 54.07 54.8 54.21 55.68 54.59C56.31 54.87 56.83 55.28 57.15 55.78C57.52 56.36 57.64 57.02 57.42 57.72C57.21 58.38 56.74 58.9 56.27 59.42C56.05 59.67 55.82 59.91 55.7 60.11C55.47 60.47 55.54 60.94 55.6 61.43C55.7 62.19 55.81 62.96 55.41 63.89C55.21 64.35 54.89 64.82 54.47 65.27C54.08 65.69 53.6 66.09 53.07 66.45L52.68 66.71C52.68 66.71 52.63 66.75 52.6 66.77C50.31 68.32 49.07 69.16 46.81 71.06C46.55 71.28 46.27 71.54 45.97 71.81C45.15 72.57 44.25 73.4 43.29 73.88C41.57 74.74 39.9 74.66 38.6 72.07C37.91 70.7 37.75 69.24 37.59 67.77C37.43 66.28 37.26 64.79 36.48 63.72C35.96 63.01 35.22 62.28 34.47 61.53C33.21 60.27 31.92 59 31.24 57.44C30.59 55.95 30.86 53.68 31.62 51.61H31.64ZM36.29 48.84C36.81 48.56 37.62 48.49 38.45 48.58C39.36 48.68 40.25 48.96 40.79 49.36C41.13 49.61 41.45 49.97 41.74 50.3C42.05 50.65 42.34 50.98 42.67 51.23C43.26 51.68 43.91 51.82 44.64 51.97C45.34 52.12 46.14 52.29 46.71 52.89C46.83 53.02 46.94 53.22 47.05 53.42C47.3 53.88 47.54 54.34 48.13 54.8C49.44 55.83 51.02 56.07 52.52 56.29C53.35 56.41 54.17 56.53 54.74 56.78C54.93 56.86 55.07 56.96 55.14 57.06C55.05 57.23 54.78 57.53 54.51 57.83C54.22 58.15 53.93 58.48 53.69 58.84C52.99 59.93 53.11 60.84 53.24 61.76C53.3 62.2 53.36 62.64 53.22 62.97C53.13 63.18 52.96 63.42 52.74 63.65C52.47 63.93 52.14 64.22 51.75 64.48L51.37 64.74C51.37 64.74 51.32 64.77 51.29 64.79C48.97 66.36 47.72 67.2 45.31 69.24C45.02 69.49 44.71 69.77 44.39 70.07C43.7 70.71 42.94 71.42 42.25 71.76C41.75 72.01 41.23 71.94 40.76 71.01C40.27 70.03 40.13 68.78 39.99 67.53C39.79 65.72 39.59 63.92 38.43 62.33C37.78 61.45 36.99 60.65 36.18 59.85C35.08 58.75 33.95 57.64 33.46 56.5C33.07 55.61 33.32 54.01 33.9 52.45C34.5 50.81 35.43 49.33 36.31 48.86L36.29 48.84ZM73.08 32.39C75.13 36.47 76.28 41.08 76.28 45.96C76.28 47.38 76.18 48.79 75.99 50.16L75.93 50.1C75 49.07 74.93 48.23 74.87 47.56C74.81 46.87 74.76 46.29 74.3 45.66C74.23 45.56 74.15 45.47 74.07 45.4C73.71 45.06 73.26 44.89 72.78 44.88C72.35 44.88 71.91 45.01 71.53 45.29C71.41 45.37 71.31 45.46 71.22 45.56C70.88 45.92 70.68 46.35 70.47 46.8C70.36 47.05 70.24 47.31 70.11 47.49C70.1 47.51 70.08 47.52 70.07 47.54C69.83 47.85 69.51 47.96 69.17 47.95C68.71 47.94 68.23 47.73 67.81 47.43C67.79 47.42 67.8 47.43 67.72 47.36C66.59 46.48 66.56 45.84 66.53 45.19C66.49 44.24 66.44 43.27 65.35 42.03C65 41.63 64.59 41.06 64.37 40.49C64.25 40.19 64.2 39.91 64.26 39.72C64.45 39.1 64.68 38.64 64.89 38.2C65.29 37.37 65.67 36.59 65.9 35.08C65.96 34.7 66.03 34.28 66.11 33.93C66.19 33.57 66.31 33.21 66.46 32.89C66.71 32.37 67.05 31.97 67.46 31.77C67.79 31.61 68.19 31.58 68.63 31.73C68.75 31.77 68.89 31.83 69.03 31.9C69.67 32.18 70.42 32.5 71.73 32.5C72.03 32.5 72.39 32.48 72.79 32.44C72.89 32.44 72.99 32.42 73.09 32.41L73.08 32.39ZM46.67 28.21C46.67 28.24 46.67 28.26 46.67 28.21V28.21ZM36.03 17.31C36.07 17.53 36.11 17.76 36.14 17.98C36.22 18.56 36.26 19.14 36.24 19.71C36.22 20.46 36.11 21.12 36 21.73C35.88 22.45 35.78 23.07 35.88 23.35C35.93 23.48 36.08 23.6 36.26 23.67C36.5 23.77 36.76 23.8 36.95 23.73C37.14 23.66 37.4 23.39 37.65 23.12C38.03 22.7 38.41 22.29 39 22.02C39.65 21.72 40.37 21.69 41.13 21.84C41.76 21.96 42.41 22.21 43.06 22.52C43.63 22.79 44.19 23.1 44.73 23.43C45.33 23.8 45.9 24.19 46.4 24.56C46.88 24.92 47.27 25.25 47.61 25.57C47.98 25.93 48.27 26.28 48.52 26.65C48.84 27.13 49.09 27.66 49.07 28.28C49.04 29 48.69 29.65 47.77 30.15C46.95 30.59 45.59 30.9 44.26 31.2C43.73 31.32 43.2 31.44 42.79 31.55C42.07 31.74 41.47 31.93 40.95 32.17C40.48 32.39 40.08 32.64 39.73 32.95C39.09 33.52 38.49 34.36 37.99 35.08C37.96 35.12 37.93 35.17 37.7 35.49C37.37 35.95 37.06 36.34 36.75 36.66C36.36 37.05 35.95 37.33 35.47 37.49C34.99 37.65 34.49 37.68 33.96 37.62C33.52 37.57 33.06 37.45 32.56 37.29C32.34 37.22 32.23 37.19 32.13 37.15C31.55 36.96 30.94 36.75 30.65 36.82C30.57 36.84 30.5 36.91 30.42 37.02C30.29 37.2 30.2 37.46 30.17 37.78C30.13 38.17 30.17 38.61 30.27 39.03C30.37 39.39 30.51 39.71 30.69 39.92C30.91 40.17 31.3 40.35 31.67 40.52C32.03 40.69 32.37 40.84 32.71 41.1C33.19 41.45 33.54 41.91 33.77 42.41C34.01 42.94 34.11 43.51 34.07 44.07C34.03 44.66 33.82 45.22 33.45 45.71C33.11 46.15 32.65 46.51 32.04 46.75C31.46 46.98 30.75 47.09 29.96 47.04C29.28 47 28.54 46.84 27.76 46.54C26.88 46.21 25.94 45.68 25.08 44.93C24.36 44.3 23.71 43.51 23.21 42.54C22.68 41.51 22.35 40.3 22.14 39.12C21.94 37.99 21.85 36.84 21.81 35.89C21.77 34.94 21.77 34.17 21.84 33.48C21.91 32.76 22.04 32.12 22.24 31.45C22.44 30.8 22.71 30.12 23.03 29.45C23.35 28.78 23.71 28.13 24.09 27.57C24.24 27.34 24.44 27.08 24.65 26.8C25.19 26.07 25.79 25.26 26.47 23.68C26.64 23.28 26.83 22.82 27.02 22.32C26.16 23.01 25.34 23.75 24.56 24.52C19.07 30.01 15.68 37.59 15.68 45.96C15.68 54.33 19.07 61.91 24.56 67.4C30.05 72.89 37.63 76.28 46 76.28C54.37 76.28 61.95 72.89 67.44 67.4C71.34 63.5 74.18 58.55 75.5 53C75.35 52.86 75.21 52.72 75.06 52.58C74.74 52.27 74.44 51.97 74.2 51.7C72.87 50.22 72.66 49.02 72.56 48.04C72.43 48.32 72.28 48.6 72.08 48.88L72.06 48.91C72.06 48.91 72.02 48.97 71.99 49C71.23 49.98 70.2 50.36 69.13 50.33C68.18 50.3 67.22 49.93 66.44 49.36L66.27 49.24C64.27 47.69 64.22 46.5 64.16 45.29C64.13 44.75 64.11 44.21 63.57 43.6C63.08 43.04 62.5 42.22 62.16 41.35C61.87 40.59 61.75 39.78 61.99 39.01C62.23 38.23 62.5 37.69 62.75 37.16C63.07 36.5 63.37 35.88 63.54 34.72C63.6 34.34 63.67 33.89 63.8 33.37C63.92 32.86 64.09 32.34 64.31 31.87C64.78 30.87 65.51 30.06 66.43 29.62C67.31 29.19 68.33 29.1 69.42 29.48C69.62 29.55 69.8 29.63 69.99 29.71C70.41 29.89 70.91 30.11 71.74 30.11H71.82C70.57 28.08 69.09 26.21 67.42 24.54C61.93 19.05 54.35 15.66 45.98 15.66C42.5 15.66 39.15 16.25 36.04 17.33L36.03 17.31ZM30.32 19.99C31.42 19.33 32.56 18.73 33.75 18.21C33.75 18.24 33.75 18.27 33.76 18.31C33.82 18.78 33.86 19.23 33.84 19.66C33.82 20.21 33.72 20.81 33.63 21.35C33.45 22.4 33.3 23.32 33.63 24.21C33.93 25 34.57 25.57 35.32 25.89C36.08 26.21 36.98 26.27 37.72 26.01C38.48 25.74 38.94 25.25 39.39 24.76C39.61 24.52 39.83 24.28 39.98 24.21C40.13 24.14 40.36 24.15 40.65 24.21C41.07 24.29 41.54 24.47 42.02 24.7C42.51 24.93 43 25.2 43.47 25.49C44.02 25.83 44.53 26.18 44.95 26.49C45.33 26.78 45.66 27.05 45.92 27.31C46.16 27.54 46.35 27.77 46.5 28L46.56 28.1C46 28.38 44.84 28.64 43.69 28.9C43.19 29.01 42.69 29.13 42.16 29.26C41.28 29.49 40.55 29.73 39.91 30.02C39.23 30.33 38.65 30.71 38.11 31.19C37.24 31.96 36.57 32.91 35.99 33.73C35.82 33.97 35.76 34.05 35.71 34.12C35.45 34.48 35.22 34.78 35.01 34.99C34.87 35.13 34.75 35.22 34.64 35.25C34.52 35.29 34.36 35.29 34.17 35.27C33.88 35.24 33.56 35.15 33.22 35.05C33.17 35.04 33 34.98 32.83 34.92C31.94 34.62 30.99 34.3 30.03 34.54C29.36 34.7 28.81 35.1 28.41 35.68C28.06 36.19 27.82 36.83 27.74 37.55C27.66 38.22 27.73 38.97 27.91 39.67C28.09 40.36 28.41 41.02 28.84 41.51C29.4 42.15 30.03 42.44 30.62 42.72C30.87 42.83 31.11 42.94 31.25 43.05C31.38 43.15 31.48 43.28 31.54 43.42C31.61 43.58 31.64 43.75 31.63 43.92C31.62 44.06 31.58 44.19 31.5 44.29C31.42 44.39 31.3 44.48 31.12 44.55C30.85 44.66 30.49 44.71 30.06 44.68C29.62 44.65 29.11 44.54 28.56 44.33C27.91 44.08 27.21 43.7 26.6 43.16C26.09 42.71 25.63 42.16 25.28 41.49C24.88 40.71 24.62 39.73 24.44 38.74C24.26 37.69 24.17 36.66 24.13 35.82C24.09 34.97 24.09 34.31 24.15 33.73C24.2 33.18 24.3 32.7 24.46 32.18C24.63 31.63 24.86 31.06 25.12 30.5C25.38 29.96 25.68 29.42 26.01 28.93C26.2 28.65 26.34 28.45 26.5 28.24C27.11 27.41 27.79 26.49 28.59 24.64C28.88 23.98 29.18 23.2 29.48 22.34C29.76 21.57 30.02 20.78 30.28 20L30.32 19.99ZM54.54 27.54C54.22 26.62 54.42 27.2 54.54 27.54V27.54ZM51.06 25.69C50.46 24.78 49.92 23.94 50.37 22.93C50.65 22.31 51.28 21.89 52.06 21.68C52.67 21.51 53.43 21.46 54.15 21.54C54.84 21.62 55.47 21.82 56.09 22.08C56.66 22.33 57.21 22.63 57.75 22.94C58.26 23.24 58.8 23.55 59.34 23.92C59.88 24.29 60.4 24.68 60.85 25.11C61.35 25.59 61.77 26.11 62.05 26.64C62.37 27.24 62.52 27.85 62.44 28.43C62.35 29.03 62.04 29.52 61.62 29.9C61.2 30.28 60.67 30.55 60.18 30.71C59.86 30.82 59.57 30.88 59.29 30.94C59.05 30.99 58.82 31.04 58.72 31.1C58.64 31.15 58.52 31.25 58.4 31.35C58 31.69 57.59 32.04 56.92 32.18C56.4 32.29 55.82 32.24 55.26 32.05C54.75 31.88 54.25 31.58 53.84 31.2C53.44 30.82 53.15 30.38 52.91 29.89C52.71 29.47 52.54 29.02 52.38 28.56L52.29 28.31L52.26 28.22C52.33 28.43 52.38 28.57 52.29 28.31C51.92 27.25 52.13 27.85 52.26 28.22C52.02 27.54 51.78 26.83 51.42 26.22C51.35 26.11 51.21 25.89 51.08 25.69H51.06ZM52.56 23.91C52.6 23.82 52.58 24.02 52.7 23.98C53.04 23.89 53.47 23.86 53.89 23.91C54.31 23.96 54.73 24.09 55.15 24.27C55.61 24.47 56.09 24.73 56.57 25.01C57.08 25.3 57.59 25.6 58.02 25.89C58.45 26.18 58.86 26.49 59.2 26.82C59.53 27.13 59.79 27.46 59.95 27.75C60.04 27.91 60.08 28.03 60.08 28.08C60.08 28.1 60.06 28.08 60.02 28.11C59.87 28.25 59.63 28.36 59.41 28.44C59.2 28.51 59 28.56 58.8 28.6C58.37 28.69 57.98 28.77 57.53 29.03C57.27 29.18 57.07 29.35 56.86 29.52C56.69 29.66 56.51 29.81 56.4 29.84C56.31 29.86 56.17 29.84 56.01 29.79C55.81 29.72 55.61 29.61 55.46 29.46C55.29 29.3 55.15 29.08 55.03 28.83C54.87 28.51 54.74 28.15 54.61 27.78L54.52 27.53C54.59 27.73 54.63 27.85 54.52 27.53C54.24 26.72 53.96 25.89 53.44 25.01C53.27 24.73 53.16 24.55 53.04 24.37C52.82 24.03 52.45 24.08 52.53 23.9L52.56 23.91Z" fill="#C5A26E"/>
<path d="M52.29 28.31L52.38 28.56C52.54 29.02 52.71 29.47 52.91 29.89C53.15 30.38 53.44 30.82 53.84 31.2C54.25 31.58 54.75 31.88 55.26 32.05C55.82 32.24 56.4 32.29 56.92 32.18C57.59 32.04 58 31.69 58.4 31.35C58.52 31.25 58.64 31.15 58.72 31.1C58.82 31.04 59.05 30.99 59.29 30.94C59.57 30.88 59.86 30.82 60.18 30.71C60.67 30.55 61.2 30.28 61.62 29.9C62.04 29.52 62.35 29.03 62.44 28.43C62.52 27.85 62.37 27.24 62.05 26.64C61.77 26.11 61.35 25.59 60.85 25.11C60.4 24.68 59.88 24.29 59.34 23.92C58.8 23.55 58.26 23.24 57.75 22.94C57.21 22.63 56.66 22.33 56.09 22.08C55.47 21.82 54.84 21.62 54.15 21.54C53.43 21.46 52.67 21.51 52.06 21.68C51.28 21.89 50.65 22.31 50.37 22.93C49.92 23.94 50.46 24.78 51.06 25.69H51.08C51.21 25.89 51.35 26.11 51.42 26.22C51.78 26.83 52.02 27.54 52.26 28.22M52.29 28.31L52.26 28.22M52.29 28.31C52.38 28.57 52.33 28.43 52.26 28.22M52.29 28.31C51.92 27.25 52.13 27.85 52.26 28.22M54.52 27.53L54.61 27.78C54.74 28.15 54.87 28.51 55.03 28.83C55.15 29.08 55.29 29.3 55.46 29.46C55.61 29.61 55.81 29.72 56.01 29.79C56.17 29.84 56.31 29.86 56.4 29.84C56.51 29.81 56.69 29.66 56.86 29.52C57.07 29.35 57.27 29.18 57.53 29.03C57.98 28.77 58.37 28.69 58.8 28.6C59 28.56 59.2 28.51 59.41 28.44C59.63 28.36 59.87 28.25 60.02 28.11C60.06 28.08 60.08 28.1 60.08 28.08C60.08 28.03 60.04 27.91 59.95 27.75C59.79 27.46 59.53 27.13 59.2 26.82C58.86 26.49 58.45 26.18 58.02 25.89C57.59 25.6 57.08 25.3 56.57 25.01C56.09 24.73 55.61 24.47 55.15 24.27C54.73 24.09 54.31 23.96 53.89 23.91C53.47 23.86 53.04 23.89 52.7 23.98C52.58 24.02 52.6 23.82 52.56 23.91L52.53 23.9C52.45 24.08 52.82 24.03 53.04 24.37C53.16 24.55 53.27 24.73 53.44 25.01C53.96 25.89 54.24 26.72 54.52 27.53ZM54.52 27.53C54.59 27.73 54.63 27.85 54.52 27.53ZM72.71 16.21C72.05 16.21 71.51 15.67 71.51 15.01C71.51 14.35 72.05 13.81 72.71 13.81H76.91C77.14 13.81 77.36 13.88 77.54 13.99H77.56V14.01H77.58C77.7 14.11 77.8 14.21 77.88 14.32V14.34H77.9V14.36H77.91C78.02 14.54 78.09 14.76 78.09 14.99V19.19C78.09 19.85 77.55 20.39 76.89 20.39C76.23 20.39 75.69 19.85 75.69 19.19V17.88L72.31 21.26C71.84 21.73 71.09 21.73 70.62 21.26C70.15 20.79 70.15 20.03 70.62 19.57L74 16.19H72.69L72.71 16.21ZM85.91 43.84C85.44 43.37 85.44 42.62 85.91 42.15C86.38 41.68 87.13 41.68 87.6 42.15L90.56 45.11C90.56 45.11 90.64 45.19 90.67 45.23L90.69 45.25L90.7 45.27V45.29V45.32L90.71 45.35L90.72 45.38L90.73 45.41L90.74 45.44C90.82 45.6 90.86 45.78 90.86 45.97C90.86 46.16 90.82 46.34 90.74 46.5V46.52H90.73V46.54H90.72V46.56H90.71V46.58H90.69V46.61V46.63H90.68V46.65L90.66 46.67C90.66 46.67 90.59 46.75 90.55 46.79L87.59 49.75C87.12 50.22 86.37 50.22 85.9 49.75C85.43 49.28 85.43 48.53 85.9 48.06L86.83 47.13H82.05C81.39 47.13 80.85 46.59 80.85 45.93C80.85 45.27 81.39 44.73 82.05 44.73H86.83L85.9 43.8L85.91 43.84ZM75.72 72.71C75.72 72.05 76.26 71.51 76.92 71.51C77.58 71.51 78.12 72.05 78.12 72.71V76.91C78.12 77.14 78.05 77.36 77.94 77.54V77.56H77.92V77.58H77.91C77.83 77.7 77.73 77.8 77.61 77.88L77.59 77.9L77.57 77.92C77.39 78.03 77.17 78.1 76.94 78.1H72.74C72.08 78.1 71.54 77.56 71.54 76.9C71.54 76.24 72.08 75.7 72.74 75.7H74.05L70.67 72.32C70.2 71.85 70.2 71.1 70.67 70.63C71.14 70.16 71.89 70.16 72.36 70.63L75.74 74.01V72.7L75.72 72.71ZM48.09 85.91C48.56 85.44 49.31 85.44 49.78 85.91C50.25 86.38 50.25 87.13 49.78 87.6L46.82 90.56C46.82 90.56 46.74 90.64 46.7 90.67L46.68 90.69L46.67 90.71L46.66 90.73H46.65L46.64 90.75L46.62 90.77L46.6 90.78L46.58 90.79L46.56 90.8C46.4 90.88 46.22 90.92 46.03 90.92C45.84 90.92 45.66 90.88 45.5 90.8H45.48V90.79H45.46V90.78H45.44V90.77H45.42V90.75H45.41L45.4 90.73H45.39V90.71H45.38V90.69L45.36 90.67C45.36 90.67 45.28 90.6 45.24 90.56L42.28 87.6C41.81 87.13 41.81 86.38 42.28 85.91C42.75 85.44 43.5 85.44 43.97 85.91L44.9 86.84V82.06C44.9 81.4 45.44 80.86 46.1 80.86C46.76 80.86 47.3 81.4 47.3 82.06V86.84L48.23 85.91H48.09ZM19.22 75.72C19.88 75.72 20.42 76.26 20.42 76.92C20.42 77.58 19.88 78.12 19.22 78.12H15.02C14.79 78.12 14.57 78.05 14.39 77.94H14.37V77.92H14.35C14.23 77.82 14.13 77.72 14.05 77.6V77.58H14.03V77.56H14.02C13.91 77.38 13.84 77.16 13.84 76.93V72.73C13.84 72.07 14.38 71.53 15.04 71.53C15.7 71.53 16.24 72.07 16.24 72.73V74.04L19.62 70.66C20.09 70.19 20.85 70.19 21.31 70.66C21.77 71.13 21.78 71.88 21.31 72.35L17.93 75.73H19.24L19.22 75.72ZM6.01 48.09C6.48 48.56 6.48 49.31 6.01 49.78C5.54 50.25 4.78 50.25 4.32 49.78L1.36 46.82C1.36 46.82 1.28 46.74 1.25 46.7L1.23 46.68L1.22 46.66V46.64V46.61L1.21 46.58L1.2 46.55L1.19 46.52L1.18 46.49H1.12C1.04 46.33 1 46.15 1 45.96C1 45.77 1.05 45.59 1.12 45.43V45.41H1.13V45.39H1.14V45.37H1.15V45.35H1.17V45.32V45.3H1.18V45.28L1.2 45.26H1.25C1.25 45.26 1.32 45.18 1.36 45.14L4.32 42.18C4.79 41.71 5.55 41.71 6.01 42.18C6.47 42.65 6.48 43.4 6.01 43.87L5.08 44.8H9.86C10.52 44.8 11.06 45.34 11.06 46C11.06 46.66 10.52 47.2 9.86 47.2H5.08L6.01 48.13V48.09ZM16.21 19.22C16.21 19.88 15.67 20.42 15.01 20.42C14.35 20.42 13.81 19.88 13.81 19.22V15.02C13.81 14.79 13.88 14.57 13.99 14.39V14.37H14.01V14.35H14.02C14.1 14.23 14.2 14.13 14.32 14.05L14.34 14.03L14.36 14.01C14.54 13.9 14.76 13.83 14.99 13.83H19.19C19.85 13.83 20.39 14.37 20.39 15.03C20.39 15.69 19.85 16.23 19.19 16.23H17.88L21.26 19.61C21.73 20.08 21.73 20.84 21.26 21.3C20.79 21.77 20.03 21.77 19.57 21.3L16.19 17.92V19.23L16.21 19.22ZM43.84 6.01C43.37 6.48 42.62 6.48 42.15 6.01C41.68 5.54 41.68 4.78 42.15 4.32L45.11 1.36C45.11 1.36 45.19 1.28 45.23 1.25L45.25 1.23L45.26 1.21L45.27 1.19H45.28L45.29 1.17L45.31 1.15L45.33 1.14L45.35 1.13L45.37 1.12C45.53 1.04 45.71 1 45.9 1C46.09 1 46.27 1.05 46.43 1.12H46.45V1.13H46.47V1.14H46.49V1.15H46.51V1.17H46.52L46.53 1.19H46.54V1.21H46.55V1.23L46.57 1.25C46.57 1.25 46.65 1.32 46.69 1.36L49.65 4.32C50.12 4.79 50.12 5.55 49.65 6.01C49.18 6.47 48.43 6.48 47.96 6.01L47.03 5.08V9.86C47.03 10.52 46.49 11.06 45.83 11.06C45.17 11.06 44.63 10.52 44.63 9.86V5.08L43.7 6.01H43.84ZM45.96 13.25C36.93 13.25 28.75 16.91 22.83 22.83C16.91 28.75 13.25 36.93 13.25 45.96C13.25 54.99 16.91 63.17 22.83 69.09C28.75 75.01 36.93 78.67 45.96 78.67C54.99 78.67 63.17 75.01 69.09 69.09C75.01 63.17 78.67 54.99 78.67 45.96C78.67 36.93 75.01 28.75 69.09 22.83C63.17 16.91 54.99 13.25 45.96 13.25ZM31.64 51.61C32.42 49.49 33.76 47.49 35.17 46.73C36.14 46.21 37.44 46.06 38.7 46.2C40.01 46.34 41.33 46.79 42.21 47.44C42.74 47.84 43.15 48.3 43.52 48.72C43.74 48.97 43.95 49.2 44.1 49.32C44.27 49.45 44.68 49.54 45.12 49.63C46.16 49.85 47.35 50.11 48.43 51.25C48.78 51.62 48.96 51.95 49.14 52.29C49.27 52.53 49.4 52.76 49.59 52.92C50.4 53.56 51.65 53.75 52.85 53.92C53.84 54.07 54.8 54.21 55.68 54.59C56.31 54.87 56.83 55.28 57.15 55.78C57.52 56.36 57.64 57.02 57.42 57.72C57.21 58.38 56.74 58.9 56.27 59.42C56.05 59.67 55.82 59.91 55.7 60.11C55.47 60.47 55.54 60.94 55.6 61.43C55.7 62.19 55.81 62.96 55.41 63.89C55.21 64.35 54.89 64.82 54.47 65.27C54.08 65.69 53.6 66.09 53.07 66.45L52.68 66.71C52.68 66.71 52.63 66.75 52.6 66.77C50.31 68.32 49.07 69.16 46.81 71.06C46.55 71.28 46.27 71.54 45.97 71.81C45.15 72.57 44.25 73.4 43.29 73.88C41.57 74.74 39.9 74.66 38.6 72.07C37.91 70.7 37.75 69.24 37.59 67.77C37.43 66.28 37.26 64.79 36.48 63.72C35.96 63.01 35.22 62.28 34.47 61.53C33.21 60.27 31.92 59 31.24 57.44C30.59 55.95 30.86 53.68 31.62 51.61H31.64ZM36.29 48.84C36.81 48.56 37.62 48.49 38.45 48.58C39.36 48.68 40.25 48.96 40.79 49.36C41.13 49.61 41.45 49.97 41.74 50.3C42.05 50.65 42.34 50.98 42.67 51.23C43.26 51.68 43.91 51.82 44.64 51.97C45.34 52.12 46.14 52.29 46.71 52.89C46.83 53.02 46.94 53.22 47.05 53.42C47.3 53.88 47.54 54.34 48.13 54.8C49.44 55.83 51.02 56.07 52.52 56.29C53.35 56.41 54.17 56.53 54.74 56.78C54.93 56.86 55.07 56.96 55.14 57.06C55.05 57.23 54.78 57.53 54.51 57.83C54.22 58.15 53.93 58.48 53.69 58.84C52.99 59.93 53.11 60.84 53.24 61.76C53.3 62.2 53.36 62.64 53.22 62.97C53.13 63.18 52.96 63.42 52.74 63.65C52.47 63.93 52.14 64.22 51.75 64.48L51.37 64.74C51.37 64.74 51.32 64.77 51.29 64.79C48.97 66.36 47.72 67.2 45.31 69.24C45.02 69.49 44.71 69.77 44.39 70.07C43.7 70.71 42.94 71.42 42.25 71.76C41.75 72.01 41.23 71.94 40.76 71.01C40.27 70.03 40.13 68.78 39.99 67.53C39.79 65.72 39.59 63.92 38.43 62.33C37.78 61.45 36.99 60.65 36.18 59.85C35.08 58.75 33.95 57.64 33.46 56.5C33.07 55.61 33.32 54.01 33.9 52.45C34.5 50.81 35.43 49.33 36.31 48.86L36.29 48.84ZM73.08 32.39C75.13 36.47 76.28 41.08 76.28 45.96C76.28 47.38 76.18 48.79 75.99 50.16L75.93 50.1C75 49.07 74.93 48.23 74.87 47.56C74.81 46.87 74.76 46.29 74.3 45.66C74.23 45.56 74.15 45.47 74.07 45.4C73.71 45.06 73.26 44.89 72.78 44.88C72.35 44.88 71.91 45.01 71.53 45.29C71.41 45.37 71.31 45.46 71.22 45.56C70.88 45.92 70.68 46.35 70.47 46.8C70.36 47.05 70.24 47.31 70.11 47.49C70.1 47.51 70.08 47.52 70.07 47.54C69.83 47.85 69.51 47.96 69.17 47.95C68.71 47.94 68.23 47.73 67.81 47.43C67.79 47.42 67.8 47.43 67.72 47.36C66.59 46.48 66.56 45.84 66.53 45.19C66.49 44.24 66.44 43.27 65.35 42.03C65 41.63 64.59 41.06 64.37 40.49C64.25 40.19 64.2 39.91 64.26 39.72C64.45 39.1 64.68 38.64 64.89 38.2C65.29 37.37 65.67 36.59 65.9 35.08C65.96 34.7 66.03 34.28 66.11 33.93C66.19 33.57 66.31 33.21 66.46 32.89C66.71 32.37 67.05 31.97 67.46 31.77C67.79 31.61 68.19 31.58 68.63 31.73C68.75 31.77 68.89 31.83 69.03 31.9C69.67 32.18 70.42 32.5 71.73 32.5C72.03 32.5 72.39 32.48 72.79 32.44C72.89 32.44 72.99 32.42 73.09 32.41L73.08 32.39ZM46.67 28.21C46.67 28.24 46.67 28.26 46.67 28.21ZM36.03 17.31C36.07 17.53 36.11 17.76 36.14 17.98C36.22 18.56 36.26 19.14 36.24 19.71C36.22 20.46 36.11 21.12 36 21.73C35.88 22.45 35.78 23.07 35.88 23.35C35.93 23.48 36.08 23.6 36.26 23.67C36.5 23.77 36.76 23.8 36.95 23.73C37.14 23.66 37.4 23.39 37.65 23.12C38.03 22.7 38.41 22.29 39 22.02C39.65 21.72 40.37 21.69 41.13 21.84C41.76 21.96 42.41 22.21 43.06 22.52C43.63 22.79 44.19 23.1 44.73 23.43C45.33 23.8 45.9 24.19 46.4 24.56C46.88 24.92 47.27 25.25 47.61 25.57C47.98 25.93 48.27 26.28 48.52 26.65C48.84 27.13 49.09 27.66 49.07 28.28C49.04 29 48.69 29.65 47.77 30.15C46.95 30.59 45.59 30.9 44.26 31.2C43.73 31.32 43.2 31.44 42.79 31.55C42.07 31.74 41.47 31.93 40.95 32.17C40.48 32.39 40.08 32.64 39.73 32.95C39.09 33.52 38.49 34.36 37.99 35.08C37.96 35.12 37.93 35.17 37.7 35.49C37.37 35.95 37.06 36.34 36.75 36.66C36.36 37.05 35.95 37.33 35.47 37.49C34.99 37.65 34.49 37.68 33.96 37.62C33.52 37.57 33.06 37.45 32.56 37.29C32.34 37.22 32.23 37.19 32.13 37.15C31.55 36.96 30.94 36.75 30.65 36.82C30.57 36.84 30.5 36.91 30.42 37.02C30.29 37.2 30.2 37.46 30.17 37.78C30.13 38.17 30.17 38.61 30.27 39.03C30.37 39.39 30.51 39.71 30.69 39.92C30.91 40.17 31.3 40.35 31.67 40.52C32.03 40.69 32.37 40.84 32.71 41.1C33.19 41.45 33.54 41.91 33.77 42.41C34.01 42.94 34.11 43.51 34.07 44.07C34.03 44.66 33.82 45.22 33.45 45.71C33.11 46.15 32.65 46.51 32.04 46.75C31.46 46.98 30.75 47.09 29.96 47.04C29.28 47 28.54 46.84 27.76 46.54C26.88 46.21 25.94 45.68 25.08 44.93C24.36 44.3 23.71 43.51 23.21 42.54C22.68 41.51 22.35 40.3 22.14 39.12C21.94 37.99 21.85 36.84 21.81 35.89C21.77 34.94 21.77 34.17 21.84 33.48C21.91 32.76 22.04 32.12 22.24 31.45C22.44 30.8 22.71 30.12 23.03 29.45C23.35 28.78 23.71 28.13 24.09 27.57C24.24 27.34 24.44 27.08 24.65 26.8C25.19 26.07 25.79 25.26 26.47 23.68C26.64 23.28 26.83 22.82 27.02 22.32C26.16 23.01 25.34 23.75 24.56 24.52C19.07 30.01 15.68 37.59 15.68 45.96C15.68 54.33 19.07 61.91 24.56 67.4C30.05 72.89 37.63 76.28 46 76.28C54.37 76.28 61.95 72.89 67.44 67.4C71.34 63.5 74.18 58.55 75.5 53C75.35 52.86 75.21 52.72 75.06 52.58C74.74 52.27 74.44 51.97 74.2 51.7C72.87 50.22 72.66 49.02 72.56 48.04C72.43 48.32 72.28 48.6 72.08 48.88L72.06 48.91C72.06 48.91 72.02 48.97 71.99 49C71.23 49.98 70.2 50.36 69.13 50.33C68.18 50.3 67.22 49.93 66.44 49.36L66.27 49.24C64.27 47.69 64.22 46.5 64.16 45.29C64.13 44.75 64.11 44.21 63.57 43.6C63.08 43.04 62.5 42.22 62.16 41.35C61.87 40.59 61.75 39.78 61.99 39.01C62.23 38.23 62.5 37.69 62.75 37.16C63.07 36.5 63.37 35.88 63.54 34.72C63.6 34.34 63.67 33.89 63.8 33.37C63.92 32.86 64.09 32.34 64.31 31.87C64.78 30.87 65.51 30.06 66.43 29.62C67.31 29.19 68.33 29.1 69.42 29.48C69.62 29.55 69.8 29.63 69.99 29.71C70.41 29.89 70.91 30.11 71.74 30.11H71.82C70.57 28.08 69.09 26.21 67.42 24.54C61.93 19.05 54.35 15.66 45.98 15.66C42.5 15.66 39.15 16.25 36.04 17.33L36.03 17.31ZM30.32 19.99C31.42 19.33 32.56 18.73 33.75 18.21C33.75 18.24 33.75 18.27 33.76 18.31C33.82 18.78 33.86 19.23 33.84 19.66C33.82 20.21 33.72 20.81 33.63 21.35C33.45 22.4 33.3 23.32 33.63 24.21C33.93 25 34.57 25.57 35.32 25.89C36.08 26.21 36.98 26.27 37.72 26.01C38.48 25.74 38.94 25.25 39.39 24.76C39.61 24.52 39.83 24.28 39.98 24.21C40.13 24.14 40.36 24.15 40.65 24.21C41.07 24.29 41.54 24.47 42.02 24.7C42.51 24.93 43 25.2 43.47 25.49C44.02 25.83 44.53 26.18 44.95 26.49C45.33 26.78 45.66 27.05 45.92 27.31C46.16 27.54 46.35 27.77 46.5 28L46.56 28.1C46 28.38 44.84 28.64 43.69 28.9C43.19 29.01 42.69 29.13 42.16 29.26C41.28 29.49 40.55 29.73 39.91 30.02C39.23 30.33 38.65 30.71 38.11 31.19C37.24 31.96 36.57 32.91 35.99 33.73C35.82 33.97 35.76 34.05 35.71 34.12C35.45 34.48 35.22 34.78 35.01 34.99C34.87 35.13 34.75 35.22 34.64 35.25C34.52 35.29 34.36 35.29 34.17 35.27C33.88 35.24 33.56 35.15 33.22 35.05C33.17 35.04 33 34.98 32.83 34.92C31.94 34.62 30.99 34.3 30.03 34.54C29.36 34.7 28.81 35.1 28.41 35.68C28.06 36.19 27.82 36.83 27.74 37.55C27.66 38.22 27.73 38.97 27.91 39.67C28.09 40.36 28.41 41.02 28.84 41.51C29.4 42.15 30.03 42.44 30.62 42.72C30.87 42.83 31.11 42.94 31.25 43.05C31.38 43.15 31.48 43.28 31.54 43.42C31.61 43.58 31.64 43.75 31.63 43.92C31.62 44.06 31.58 44.19 31.5 44.29C31.42 44.39 31.3 44.48 31.12 44.55C30.85 44.66 30.49 44.71 30.06 44.68C29.62 44.65 29.11 44.54 28.56 44.33C27.91 44.08 27.21 43.7 26.6 43.16C26.09 42.71 25.63 42.16 25.28 41.49C24.88 40.71 24.62 39.73 24.44 38.74C24.26 37.69 24.17 36.66 24.13 35.82C24.09 34.97 24.09 34.31 24.15 33.73C24.2 33.18 24.3 32.7 24.46 32.18C24.63 31.63 24.86 31.06 25.12 30.5C25.38 29.96 25.68 29.42 26.01 28.93C26.2 28.65 26.34 28.45 26.5 28.24C27.11 27.41 27.79 26.49 28.59 24.64C28.88 23.98 29.18 23.2 29.48 22.34C29.76 21.57 30.02 20.78 30.28 20L30.32 19.99ZM54.54 27.54C54.22 26.62 54.42 27.2 54.54 27.54Z" stroke="#C5A26E"/>
</svg>
