<svg width="375" height="80" viewBox="0 0 375 80" fill="none" xmlns="http://www.w3.org/2000/svg">
<g clip-path="url(#clip0_1823_1653)">
<path d="M229.828 3.80828C229.798 3.55639 229.677 3.36084 229.465 3.22164C229.253 3.08243 228.993 3.01283 228.685 3.01283C228.459 3.01283 228.262 3.04929 228.093 3.1222C227.926 3.19512 227.795 3.29538 227.7 3.42298C227.608 3.55059 227.561 3.69559 227.561 3.858C227.561 3.99389 227.594 4.11072 227.658 4.2085C227.724 4.30461 227.809 4.38499 227.912 4.44962C228.015 4.51259 228.122 4.56479 228.235 4.60622C228.348 4.646 228.451 4.67831 228.546 4.70317L229.063 4.84237C229.195 4.87717 229.343 4.92523 229.505 4.98655C229.669 5.04787 229.826 5.13155 229.975 5.23762C230.126 5.34202 230.25 5.47625 230.348 5.64031C230.446 5.80438 230.494 6.00573 230.494 6.24436C230.494 6.51946 230.422 6.76804 230.278 6.9901C230.136 7.21217 229.927 7.38866 229.652 7.51958C229.378 7.65049 229.046 7.71595 228.655 7.71595C228.29 7.71595 227.975 7.65712 227.708 7.53946C227.443 7.4218 227.234 7.25774 227.081 7.04727C226.931 6.83681 226.845 6.59237 226.825 6.31396H227.462C227.478 6.5062 227.543 6.66529 227.656 6.79124C227.77 6.91553 227.914 7.00833 228.088 7.06965C228.264 7.12931 228.453 7.15914 228.655 7.15914C228.89 7.15914 229.102 7.12102 229.289 7.04479C229.476 6.9669 229.624 6.85918 229.734 6.72164C229.843 6.58243 229.898 6.42003 229.898 6.23442C229.898 6.06539 229.851 5.92784 229.756 5.82178C229.662 5.71572 229.537 5.62954 229.383 5.56325C229.229 5.49697 229.063 5.43896 228.884 5.38925L228.257 5.21027C227.86 5.09592 227.545 4.93269 227.313 4.72057C227.081 4.50845 226.965 4.23087 226.965 3.88783C226.965 3.60279 227.042 3.35421 227.196 3.14209C227.352 2.92831 227.56 2.76259 227.822 2.64493C228.086 2.52561 228.38 2.46595 228.705 2.46595C229.033 2.46595 229.325 2.52478 229.58 2.64244C229.835 2.75845 230.037 2.91754 230.186 3.11972C230.337 3.3219 230.417 3.55142 230.425 3.80828H229.828ZM233.835 6.06539V3.80828H234.421V7.62646H233.835V6.98016H233.795C233.706 7.17405 233.566 7.33894 233.377 7.47483C233.188 7.60906 232.95 7.67618 232.661 7.67618C232.423 7.67618 232.211 7.62398 232.025 7.51958C231.84 7.41352 231.694 7.25442 231.588 7.0423C231.482 6.82852 231.429 6.55923 231.429 6.23442V3.80828H232.015V6.19465C232.015 6.47306 232.093 6.69512 232.249 6.86084C232.406 7.02656 232.607 7.10942 232.85 7.10942C232.996 7.10942 233.145 7.07213 233.295 6.99756C233.448 6.92298 233.575 6.80864 233.678 6.65452C233.783 6.5004 233.835 6.30402 233.835 6.06539ZM235.496 9.05828V3.80828H236.063V4.41482H236.132C236.175 4.34853 236.235 4.26401 236.311 4.16127C236.389 4.05686 236.5 3.96406 236.644 3.88286C236.79 3.8 236.987 3.75857 237.236 3.75857C237.557 3.75857 237.841 3.83894 238.086 3.99969C238.331 4.16044 238.523 4.3883 238.66 4.68328C238.798 4.97826 238.867 5.32628 238.867 5.72732C238.867 6.13167 238.798 6.48217 238.66 6.77881C238.523 7.07379 238.332 7.30248 238.089 7.46489C237.845 7.62564 237.564 7.70601 237.246 7.70601C237.001 7.70601 236.804 7.66541 236.657 7.58421C236.509 7.50135 236.396 7.40771 236.316 7.30331C236.237 7.19725 236.175 7.10942 236.132 7.03982H236.083V9.05828H235.496ZM236.073 5.71737C236.073 6.00573 236.115 6.26011 236.199 6.48051C236.284 6.69926 236.407 6.87078 236.57 6.99507C236.732 7.11771 236.931 7.17902 237.166 7.17902C237.412 7.17902 237.616 7.11439 237.78 6.98513C237.946 6.85421 238.07 6.67855 238.153 6.45814C238.238 6.23608 238.28 5.98915 238.28 5.71737C238.28 5.44891 238.239 5.20696 238.156 4.99152C238.075 4.77443 237.951 4.60291 237.785 4.47696C237.621 4.34936 237.415 4.28556 237.166 4.28556C236.928 4.28556 236.727 4.34604 236.565 4.46702C236.402 4.58634 236.28 4.75371 236.197 4.96915C236.114 5.18293 236.073 5.43234 236.073 5.71737ZM239.762 9.05828V3.80828H240.328V4.41482H240.398C240.441 4.34853 240.501 4.26401 240.577 4.16127C240.655 4.05686 240.766 3.96406 240.91 3.88286C241.056 3.8 241.253 3.75857 241.502 3.75857C241.823 3.75857 242.106 3.83894 242.352 3.99969C242.597 4.16044 242.788 4.3883 242.926 4.68328C243.064 4.97826 243.132 5.32628 243.132 5.72732C243.132 6.13167 243.064 6.48217 242.926 6.77881C242.788 7.07379 242.598 7.30248 242.354 7.46489C242.111 7.62564 241.83 7.70601 241.512 7.70601C241.266 7.70601 241.07 7.66541 240.922 7.58421C240.775 7.50135 240.661 7.40771 240.582 7.30331C240.502 7.19725 240.441 7.10942 240.398 7.03982H240.348V9.05828H239.762ZM240.338 5.71737C240.338 6.00573 240.381 6.26011 240.465 6.48051C240.55 6.69926 240.673 6.87078 240.835 6.99507C240.998 7.11771 241.197 7.17902 241.432 7.17902C241.677 7.17902 241.882 7.11439 242.046 6.98513C242.212 6.85421 242.336 6.67855 242.419 6.45814C242.503 6.23608 242.546 5.98915 242.546 5.71737C242.546 5.44891 242.504 5.20696 242.421 4.99152C242.34 4.77443 242.217 4.60291 242.051 4.47696C241.887 4.34936 241.681 4.28556 241.432 4.28556C241.193 4.28556 240.993 4.34604 240.83 4.46702C240.668 4.58634 240.545 4.75371 240.463 4.96915C240.38 5.18293 240.338 5.43234 240.338 5.71737ZM245.578 7.70601C245.234 7.70601 244.931 7.62398 244.671 7.45992C244.412 7.29585 244.21 7.06633 244.064 6.77135C243.92 6.47637 243.848 6.13167 243.848 5.73726C243.848 5.33953 243.92 4.99235 244.064 4.69571C244.21 4.39907 244.412 4.16872 244.671 4.00466C244.931 3.8406 245.234 3.75857 245.578 3.75857C245.923 3.75857 246.225 3.8406 246.483 4.00466C246.743 4.16872 246.945 4.39907 247.09 4.69571C247.235 4.99235 247.308 5.33953 247.308 5.73726C247.308 6.13167 247.235 6.47637 247.09 6.77135C246.945 7.06633 246.743 7.29585 246.483 7.45992C246.225 7.62398 245.923 7.70601 245.578 7.70601ZM245.578 7.17902C245.84 7.17902 246.056 7.11191 246.225 6.97767C246.394 6.84344 246.519 6.66695 246.6 6.4482C246.681 6.22945 246.722 5.99247 246.722 5.73726C246.722 5.48205 246.681 5.24424 246.6 5.02384C246.519 4.80343 246.394 4.62528 246.225 4.48939C246.056 4.3535 245.84 4.28556 245.578 4.28556C245.316 4.28556 245.101 4.3535 244.932 4.48939C244.763 4.62528 244.638 4.80343 244.557 5.02384C244.475 5.24424 244.435 5.48205 244.435 5.73726C244.435 5.99247 244.475 6.22945 244.557 6.4482C244.638 6.66695 244.763 6.84344 244.932 6.97767C245.101 7.11191 245.316 7.17902 245.578 7.17902ZM248.204 7.62646V3.80828H248.771V4.38499H248.81C248.88 4.19607 249.006 4.04278 249.188 3.92512C249.371 3.80745 249.576 3.74862 249.805 3.74862C249.848 3.74862 249.902 3.74945 249.966 3.75111C250.031 3.75277 250.08 3.75525 250.113 3.75857V4.35516C250.093 4.35019 250.048 4.34273 249.976 4.33279C249.907 4.32119 249.833 4.31539 249.755 4.31539C249.569 4.31539 249.404 4.35433 249.258 4.43222C249.114 4.50845 248.999 4.61451 248.915 4.7504C248.832 4.88463 248.791 5.03792 248.791 5.21027V7.62646H248.204ZM252.708 3.80828V4.30544H250.729V3.80828H252.708ZM251.306 2.89351H251.893V6.53271C251.893 6.69843 251.917 6.82272 251.965 6.90558C252.015 6.98679 252.078 7.04147 252.154 7.06965C252.232 7.09616 252.314 7.10942 252.4 7.10942C252.465 7.10942 252.518 7.1061 252.559 7.09948C252.6 7.09119 252.634 7.08456 252.658 7.07959L252.778 7.60658C252.738 7.62149 252.682 7.63641 252.611 7.65132C252.54 7.66789 252.45 7.67618 252.34 7.67618C252.175 7.67618 252.012 7.64055 251.853 7.56929C251.696 7.49803 251.565 7.38949 251.46 7.24365C251.358 7.09782 251.306 6.91387 251.306 6.69181V2.89351ZM255.15 7.70601C254.783 7.70601 254.465 7.62481 254.198 7.4624C253.933 7.29834 253.729 7.06965 253.584 6.77632C253.442 6.48134 253.371 6.1383 253.371 5.7472C253.371 5.3561 253.442 5.01141 253.584 4.71311C253.729 4.41316 253.929 4.1795 254.186 4.01212C254.445 3.84308 254.746 3.75857 255.091 3.75857C255.29 3.75857 255.486 3.79171 255.68 3.858C255.874 3.92429 256.05 4.032 256.209 4.18115C256.369 4.32864 256.495 4.52419 256.59 4.7678C256.684 5.01141 256.731 5.31136 256.731 5.66766V5.91624H253.788V5.40914H256.135C256.135 5.1937 256.092 5.00146 256.006 4.83243C255.921 4.6634 255.8 4.52999 255.643 4.43222C255.487 4.33444 255.303 4.28556 255.091 4.28556C254.857 4.28556 254.655 4.34356 254.484 4.45956C254.315 4.57391 254.185 4.72306 254.094 4.907C254.003 5.09095 253.957 5.28816 253.957 5.49862V5.83669C253.957 6.12504 254.007 6.36948 254.106 6.57C254.208 6.76887 254.348 6.9205 254.527 7.0249C254.706 7.12765 254.914 7.17902 255.15 7.17902C255.305 7.17902 255.444 7.15748 255.568 7.11439C255.694 7.06965 255.803 7.00336 255.894 6.91553C255.985 6.82604 256.055 6.71501 256.105 6.58243L256.672 6.74152C256.612 6.93376 256.512 7.10279 256.371 7.24862C256.23 7.3928 256.056 7.50549 255.849 7.58669C255.642 7.66624 255.409 7.70601 255.15 7.70601ZM259.066 7.70601C258.747 7.70601 258.467 7.62564 258.223 7.46489C257.979 7.30248 257.789 7.07379 257.651 6.77881C257.514 6.48217 257.445 6.13167 257.445 5.72732C257.445 5.32628 257.514 4.97826 257.651 4.68328C257.789 4.3883 257.98 4.16044 258.225 3.99969C258.471 3.83894 258.754 3.75857 259.076 3.75857C259.324 3.75857 259.521 3.8 259.665 3.88286C259.811 3.96406 259.922 4.05686 259.998 4.16127C260.076 4.26401 260.136 4.34853 260.179 4.41482H260.229V2.53556H260.816V7.62646H260.249V7.03982H260.179C260.136 7.10942 260.075 7.19725 259.995 7.30331C259.916 7.40771 259.802 7.50135 259.655 7.58421C259.507 7.66541 259.311 7.70601 259.066 7.70601ZM259.145 7.17902C259.38 7.17902 259.579 7.11771 259.742 6.99507C259.904 6.87078 260.028 6.69926 260.112 6.48051C260.197 6.26011 260.239 6.00573 260.239 5.71737C260.239 5.43234 260.197 5.18293 260.115 4.96915C260.032 4.75371 259.909 4.58634 259.747 4.46702C259.584 4.34604 259.384 4.28556 259.145 4.28556C258.897 4.28556 258.689 4.34936 258.524 4.47696C258.36 4.60291 258.236 4.77443 258.153 4.99152C258.072 5.20696 258.032 5.44891 258.032 5.71737C258.032 5.98915 258.073 6.23608 258.156 6.45814C258.24 6.67855 258.365 6.85421 258.529 6.98513C258.694 7.11439 258.9 7.17902 259.145 7.17902ZM264.02 7.62646V2.53556H264.606V4.41482H264.656C264.699 4.34853 264.759 4.26401 264.835 4.16127C264.913 4.05686 265.024 3.96406 265.168 3.88286C265.314 3.8 265.511 3.75857 265.76 3.75857C266.081 3.75857 266.365 3.83894 266.61 3.99969C266.855 4.16044 267.047 4.3883 267.184 4.68328C267.322 4.97826 267.391 5.32628 267.391 5.72732C267.391 6.13167 267.322 6.48217 267.184 6.77881C267.047 7.07379 266.856 7.30248 266.612 7.46489C266.369 7.62564 266.088 7.70601 265.77 7.70601C265.525 7.70601 265.328 7.66541 265.181 7.58421C265.033 7.50135 264.92 7.40771 264.84 7.30331C264.761 7.19725 264.699 7.10942 264.656 7.03982H264.587V7.62646H264.02ZM264.597 5.71737C264.597 6.00573 264.639 6.26011 264.723 6.48051C264.808 6.69926 264.931 6.87078 265.094 6.99507C265.256 7.11771 265.455 7.17902 265.69 7.17902C265.936 7.17902 266.14 7.11439 266.304 6.98513C266.47 6.85421 266.594 6.67855 266.677 6.45814C266.762 6.23608 266.804 5.98915 266.804 5.71737C266.804 5.44891 266.762 5.20696 266.68 4.99152C266.598 4.77443 266.475 4.60291 266.309 4.47696C266.145 4.34936 265.939 4.28556 265.69 4.28556C265.452 4.28556 265.251 4.34604 265.089 4.46702C264.926 4.58634 264.804 4.75371 264.721 4.96915C264.638 5.18293 264.597 5.43234 264.597 5.71737ZM268.529 9.05828C268.43 9.05828 268.341 9.05 268.263 9.03343C268.185 9.01851 268.131 9.0036 268.101 8.98868L268.251 8.47164C268.393 8.50809 268.519 8.52135 268.628 8.51141C268.738 8.50146 268.835 8.45258 268.919 8.36475C269.005 8.27857 269.084 8.13854 269.155 7.94465L269.265 7.64635L267.853 3.80828H268.489L269.543 6.8509H269.583L270.637 3.80828H271.273L269.653 8.18328C269.58 8.38049 269.489 8.54372 269.382 8.67298C269.274 8.8039 269.149 8.90085 269.006 8.96382C268.865 9.0268 268.706 9.05828 268.529 9.05828Z" fill="#9D8147"/>
<path d="M253.588 18.729C238.446 18.729 226.164 30.9669 226.164 46.0736C226.164 61.1803 238.446 73.4181 253.588 73.4181C268.729 73.4181 281.011 61.1712 281.011 46.0736C281.011 30.976 268.729 18.729 253.588 18.729ZM253.588 71.0668C239.739 71.0668 228.522 59.8729 228.522 46.0736C228.522 32.2742 239.739 21.0804 253.588 21.0804C267.436 21.0804 278.653 32.2651 278.653 46.0736C278.653 59.882 267.427 71.0668 253.588 71.0668ZM253.588 24.7481C241.77 24.7481 232.201 34.2987 232.201 46.0736C232.201 57.8484 241.77 67.399 253.588 67.399C265.406 67.399 274.984 57.8484 274.984 46.0736C274.984 34.2987 265.406 24.7481 253.588 24.7481ZM253.588 65.0477C243.081 65.0477 234.559 56.5502 234.559 46.0736C234.559 35.597 243.09 27.0995 253.588 27.0995C264.086 27.0995 272.617 35.597 272.617 46.0736C272.617 56.5502 264.095 65.0477 253.588 65.0477ZM253.597 30.7581C245.111 30.7581 238.237 37.6215 238.237 46.0827C238.237 54.5438 245.111 61.3891 253.597 61.3891C262.083 61.3891 268.948 54.5348 268.948 46.0827C268.948 37.6305 262.073 30.7581 253.597 30.7581ZM253.588 59.0377C246.413 59.0377 240.595 53.2365 240.595 46.0827C240.595 38.9288 246.413 33.1185 253.588 33.1185C260.762 33.1185 266.589 38.9197 266.589 46.0827C266.589 53.2456 260.753 59.0377 253.588 59.0377Z" fill="#C4A26E"/>
<path d="M330.979 29.6687C332.819 29.1512 334.139 27.508 334.139 25.5289C334.139 23.0686 332.145 21.0804 329.677 21.0804H322.985V34.7436H325.389V29.9864H328.403L331.772 34.7436H334.612L330.988 29.6687H330.979ZM325.398 27.7985V23.2683H329.687C330.879 23.2683 331.844 24.2851 331.844 25.5289C331.844 26.7726 330.879 27.7894 329.687 27.7894H325.398V27.7985Z" fill="#C4A26E"/>
<path d="M336.769 21.0804H339.173V32.5556H346.083V34.7436H336.76V21.0804H336.769Z" fill="#C4A26E"/>
<path d="M353.585 21.0806H348.259V34.7438H353.585C357.373 34.7438 360.432 31.6843 360.432 27.9167C360.432 24.1492 357.364 21.0897 353.585 21.0897V21.0806ZM353.585 32.5559H350.662V23.2685H353.585C356.153 23.2685 358.128 25.3475 358.128 27.9167C358.128 30.486 356.153 32.5559 353.585 32.5559Z" fill="#C4A26E"/>
<path d="M320.58 39.2465H322.984V50.7218H329.895V52.9097H320.571V39.2465H320.58Z" fill="#C4A26E"/>
<path d="M311.312 39.0103C307.397 39.0103 304.229 42.1696 304.229 46.0734C304.229 49.9772 307.397 53.1365 311.312 53.1365C315.227 53.1365 318.396 49.9772 318.396 46.0734C318.396 42.1696 315.227 39.0103 311.312 39.0103ZM311.312 50.8396C308.672 50.8396 306.532 48.7062 306.532 46.0734C306.532 43.4406 308.672 41.3072 311.312 41.3072C313.952 41.3072 316.092 43.4406 316.092 46.0734C316.092 48.7062 313.952 50.8396 311.312 50.8396Z" fill="#C4A26E"/>
<path d="M313.699 20.8443C309.784 20.8443 306.615 24.0036 306.615 27.9074C306.615 31.8111 309.784 34.9705 313.699 34.9705C317.614 34.9705 320.782 31.8111 320.782 27.9074C320.782 24.0036 317.614 20.8443 313.699 20.8443ZM313.699 32.6736C311.058 32.6736 308.919 30.5402 308.919 27.9074C308.919 25.2746 311.058 23.1412 313.699 23.1412C316.339 23.1412 318.479 25.2746 318.479 27.9074C318.479 30.5402 316.339 32.6736 313.699 32.6736Z" fill="#C4A26E"/>
<path d="M308.925 57.1675C305.01 57.1675 301.842 60.3269 301.842 64.2306C301.842 68.1344 305.01 71.2937 308.925 71.2937C312.84 71.2937 316.009 68.1344 316.009 64.2306C316.009 60.3269 312.84 57.1675 308.925 57.1675ZM308.925 68.9968C306.285 68.9968 304.145 66.8634 304.145 64.2306C304.145 61.5978 306.285 59.4644 308.925 59.4644C311.566 59.4644 313.705 61.5978 313.705 64.2306C313.705 66.8634 311.566 68.9968 308.925 68.9968Z" fill="#C4A26E"/>
<path d="M300.687 69.2238C299.403 70.5039 297.637 71.2937 295.679 71.2937C291.764 71.2937 288.596 68.1344 288.596 64.2306C288.596 60.3269 291.764 57.1675 295.679 57.1675C297.637 57.1675 299.403 57.9574 300.687 59.2374L299.057 60.8625C298.192 60 296.999 59.4644 295.679 59.4644C293.039 59.4644 290.899 61.5979 290.899 64.2306C290.899 66.8634 293.039 68.9969 295.679 68.9969C296.999 68.9969 298.192 68.4612 299.057 67.5988L300.687 69.2238Z" fill="#C4A26E"/>
<path d="M341.768 57.4034H344.172V71.0666H342.123L334.858 61.407V71.0666H332.454V57.4034H334.721L341.768 66.7906V57.4034Z" fill="#C4A26E"/>
<path d="M365.678 57.4034H368.082V68.8786H374.992V71.0666H365.669V57.4034H365.678Z" fill="#C4A26E"/>
<path d="M363.119 57.4036V71.0668H360.715V57.4036H363.119Z" fill="#C4A26E"/>
<path d="M358.485 69.2238C357.201 70.5039 355.435 71.2937 353.477 71.2937C349.562 71.2937 346.394 68.1344 346.394 64.2306C346.394 60.3269 349.562 57.1675 353.477 57.1675C355.435 57.1675 357.201 57.9574 358.485 59.2374L356.855 60.8625C355.99 60 354.797 59.4644 353.477 59.4644C350.837 59.4644 348.697 61.5979 348.697 64.2306C348.697 66.8634 350.837 68.9969 353.477 68.9969C354.797 68.9969 355.99 68.4612 356.855 67.5988L358.485 69.2238Z" fill="#C4A26E"/>
<path d="M337.78 39.2466H332.454V52.9098H337.78C341.568 52.9098 344.627 49.8503 344.627 46.0828C344.627 42.3152 341.559 39.2557 337.78 39.2557V39.2466ZM337.78 50.7128H334.858V41.4255H337.78C340.348 41.4255 342.324 43.5045 342.324 46.0737C342.324 48.6429 340.348 50.7128 337.78 50.7128Z" fill="#C4A26E"/>
<path d="M329.905 57.4034H327.501V65.5468C327.501 67.4533 325.953 68.9966 324.041 68.9966C322.129 68.9966 320.581 67.4533 320.581 65.5468V57.4034H318.178V65.456C318.178 68.688 320.8 71.3026 324.041 71.3026C327.283 71.3026 329.905 68.688 329.905 65.456V57.4034Z" fill="#C4A26E"/>
<path d="M301.898 45.3291V50.6855C300.514 52.2197 298.32 53.2002 295.898 53.2002C291.755 53.2002 288.596 49.9864 288.596 46.0827C288.596 42.1789 291.873 39.074 295.789 39.074C297.746 39.074 299.786 39.8639 301.069 41.1439L299.44 42.769C298.575 41.9065 297.109 41.38 295.789 41.38C293.148 41.38 290.899 43.459 290.899 46.0917C290.899 48.7245 293.103 50.9124 295.898 50.9124C297.582 50.9124 298.857 50.4222 299.631 49.705V47.4354H296.125V45.3473H301.898V45.3291Z" fill="#C4A26E"/>
<path d="M293.395 34.7438H291.328L286.876 21.0806H289.352L292.357 30.7856L295.489 21.0806H297.52L300.652 30.7856L303.656 21.0806H306.133L301.69 34.7438H299.614L296.509 25.3021L293.395 34.7438Z" fill="#C4A26E"/>
<path d="M29.9272 32.6827C27.0137 32.4376 24.0364 32.4376 21.1228 32.6827C20.877 35.5878 20.877 38.5565 21.1228 41.4616C24.0364 41.7068 27.0137 41.7068 29.9272 41.4616C30.173 38.5565 30.173 35.5878 29.9272 32.6827Z" fill="#C4A26E"/>
<path d="M15.834 17.7939C20.9054 10.4675 25.5579 7.72583 25.5579 7.72583C25.5579 7.72583 30.1832 10.4857 35.2181 17.7939C31.7401 20.236 28.4442 23.5134 25.5124 27.2628C22.5807 23.5043 19.2847 20.236 15.834 17.7939Z" fill="#B7202E"/>
<path d="M25.5036 46.8815C28.4354 50.631 31.7404 53.9083 35.2093 56.3504C30.1744 63.6677 25.5491 66.4185 25.5491 66.4185C25.5491 66.4185 20.8966 63.6677 15.8252 56.3504C19.2759 53.9174 22.5628 50.64 25.5036 46.8815Z" fill="#B7202E"/>
<path d="M34.0521 41.97C38.7775 41.3164 43.2661 40.0999 47.1266 38.3205C50.9597 46.3277 51.0417 51.7022 51.0417 51.7022C51.0417 51.7022 46.3254 54.3441 37.43 55.0613C37.0385 50.867 35.8457 46.3822 34.043 41.97H34.0521Z" fill="#B7202E"/>
<path d="M16.9441 41.9428C15.1504 46.3459 13.9577 50.8398 13.5753 55.0613C4.70719 54.3713 0 51.7476 0 51.7476C0 51.7476 0.0637339 46.355 3.88776 38.3205C7.72999 40.0817 12.2187 41.2892 16.9441 41.9428Z" fill="#B7202E"/>
<path d="M37.4384 19.0831C46.3338 19.8003 51.0501 22.4421 51.0501 22.4421C51.0501 22.4421 50.9682 27.8166 47.1351 35.8239C43.2746 34.0445 38.7768 32.828 34.0605 32.1743C35.8542 27.7621 37.056 23.2773 37.4475 19.0831H37.4384Z" fill="#B7202E"/>
<path d="M3.88776 35.8239C0.0637339 27.7803 0 22.3877 0 22.3877C0 22.3877 4.70719 19.773 13.5753 19.074C13.9577 23.2955 15.1504 27.7894 16.9441 32.1925C12.2096 32.8461 7.72088 34.0536 3.88776 35.8148V35.8239Z" fill="#B7202E"/>
<path d="M65.3262 51.4935V46.5094H66.4096V51.4935H65.3262Z" fill="#B7202E"/>
<path d="M67.4287 51.4935V47.6715H68.2664L68.3483 48.198H68.4029C68.494 48.0709 68.5941 47.962 68.7216 47.8712C68.8491 47.7804 68.9856 47.7078 69.1404 47.6624C69.2952 47.617 69.4682 47.5898 69.6503 47.5898C69.9052 47.5898 70.1237 47.6352 70.3149 47.7259C70.5061 47.8167 70.6518 47.962 70.752 48.1617C70.8521 48.3614 70.9067 48.6156 70.9067 48.9425V51.5026H69.8961V49.1059C69.8961 48.9879 69.8779 48.8789 69.8506 48.7972C69.8233 48.7155 69.7778 48.6429 69.7231 48.5884C69.6685 48.5339 69.5957 48.4885 69.5137 48.4704C69.4318 48.4431 69.3407 48.4341 69.2406 48.4341C69.0858 48.4341 68.9583 48.4704 68.8309 48.543C68.7125 48.6156 68.6123 48.7155 68.5486 48.8426C68.4849 48.9697 68.4485 49.115 68.4485 49.2784V51.5117H67.4378L67.4287 51.4935Z" fill="#B7202E"/>
<path d="M73.1748 51.5752C72.8561 51.5752 72.583 51.5026 72.3553 51.3574C72.1277 51.2121 71.9456 50.9942 71.8182 50.7037C71.6907 50.4041 71.627 50.0319 71.627 49.5689C71.627 49.1059 71.6907 48.7337 71.8182 48.4341C71.9456 48.1436 72.1277 47.9257 72.3462 47.7804C72.5647 47.6352 72.8288 47.5716 73.1292 47.5716C73.2931 47.5716 73.4479 47.5898 73.5936 47.6261C73.7393 47.6624 73.8667 47.7169 73.976 47.7986C74.0853 47.8803 74.1763 47.9711 74.2582 48.08H74.3038V46.228H75.3144V51.4845H74.4859L74.4039 50.967H74.3493C74.2218 51.1667 74.0579 51.321 73.8576 51.4209C73.6573 51.5208 73.4206 51.5662 73.1748 51.5662V51.5752ZM73.5025 50.7491C73.6938 50.7491 73.8485 50.7037 73.9669 50.622C74.0853 50.5312 74.1763 50.4132 74.2309 50.2407C74.2856 50.0773 74.322 49.8776 74.322 49.6506V49.5235C74.322 49.351 74.3038 49.1967 74.2765 49.0605C74.2491 48.9243 74.1945 48.8063 74.1308 48.7064C74.067 48.6156 73.976 48.543 73.8758 48.4885C73.7757 48.4341 73.6482 48.4159 73.5116 48.4159C73.3113 48.4159 73.1475 48.4522 73.02 48.5339C72.9016 48.6156 72.8106 48.7337 72.756 48.8971C72.7013 49.0605 72.674 49.2602 72.674 49.5053V49.6687C72.674 49.9139 72.7013 50.1136 72.756 50.2679C72.8106 50.4313 72.8925 50.5494 73.02 50.6311C73.1384 50.7128 73.3022 50.7491 73.5116 50.7491H73.5025Z" fill="#B7202E"/>
<path d="M76.2529 47.1088V46.2373H77.2636V47.1088H76.2529ZM76.2529 51.4937V47.6717H77.2636V51.4937H76.2529Z" fill="#B7202E"/>
<path d="M79.2106 51.5752C79.0831 51.5752 78.9466 51.5571 78.81 51.5298C78.6734 51.5026 78.5277 51.4481 78.4094 51.3755C78.2819 51.3029 78.1817 51.1939 78.0998 51.0487C78.0179 50.9034 77.9814 50.7219 77.9814 50.504C77.9814 50.2407 78.0361 50.0137 78.1544 49.8412C78.2728 49.6687 78.4367 49.5326 78.6552 49.4327C78.8737 49.3328 79.1286 49.2602 79.4291 49.2239C79.7296 49.1876 80.0664 49.1694 80.4306 49.1694V48.888C80.4306 48.7791 80.4124 48.6792 80.376 48.5975C80.3396 48.5158 80.2759 48.4522 80.1848 48.3978C80.0938 48.3524 79.9663 48.3251 79.8115 48.3251C79.6567 48.3251 79.5202 48.3433 79.42 48.3796C79.3199 48.4159 79.247 48.4704 79.2106 48.5249C79.1651 48.5884 79.1469 48.652 79.1469 48.7246V48.8154H78.1635C78.1635 48.8154 78.1635 48.77 78.1635 48.7427V48.661C78.1635 48.4341 78.2273 48.2434 78.3638 48.08C78.5004 47.9166 78.6916 47.7895 78.9374 47.7078C79.1833 47.617 79.4746 47.5807 79.8024 47.5807C80.1575 47.5807 80.458 47.6261 80.6947 47.7169C80.9314 47.8077 81.1226 47.9438 81.2501 48.1254C81.3775 48.307 81.4413 48.5339 81.4413 48.7972V50.5312C81.4413 50.622 81.4686 50.6855 81.5141 50.7219C81.5687 50.7672 81.6234 50.7854 81.6871 50.7854H81.9238V51.4481C81.8783 51.4754 81.7964 51.4935 81.6962 51.5208C81.5961 51.548 81.4686 51.5571 81.3229 51.5571C81.1772 51.5571 81.0589 51.5389 80.9496 51.4935C80.8404 51.4481 80.7493 51.3937 80.6765 51.321C80.6036 51.2484 80.549 51.1576 80.5217 51.0487H80.4671C80.3851 51.1485 80.285 51.2393 80.1666 51.321C80.0482 51.4027 79.9117 51.4572 79.7478 51.5026C79.593 51.548 79.4109 51.5662 79.2015 51.5662L79.2106 51.5752ZM79.5566 50.8126C79.6931 50.8126 79.8115 50.7945 79.9208 50.7491C80.03 50.7037 80.1211 50.6492 80.1939 50.5857C80.2668 50.5131 80.3214 50.4313 80.3669 50.3315C80.4124 50.2316 80.4306 50.1227 80.4306 50.0047V49.7958C80.1575 49.7958 79.9117 49.814 79.7023 49.8503C79.4837 49.8866 79.3199 49.9502 79.1924 50.0319C79.0649 50.1136 79.0103 50.2407 79.0103 50.395C79.0103 50.4858 79.0285 50.5584 79.074 50.622C79.1195 50.6855 79.1833 50.7309 79.2652 50.7672C79.3472 50.8036 79.4473 50.8217 79.5657 50.8217L79.5566 50.8126Z" fill="#B7202E"/>
<path d="M82.4258 51.4935V47.6715H83.2634L83.3454 48.198H83.4C83.491 48.0709 83.5912 47.962 83.7187 47.8712C83.8461 47.7804 83.9827 47.7078 84.1375 47.6624C84.2923 47.617 84.4653 47.5898 84.6474 47.5898C84.9023 47.5898 85.1208 47.6352 85.312 47.7259C85.5032 47.8167 85.6489 47.962 85.749 48.1617C85.8492 48.3614 85.9038 48.6156 85.9038 48.9425V51.5026H84.8932V49.1059C84.8932 48.9879 84.875 48.8789 84.8477 48.7972C84.8204 48.7155 84.7748 48.6429 84.7202 48.5884C84.6656 48.5339 84.5927 48.4885 84.5108 48.4704C84.4288 48.4431 84.3378 48.4341 84.2376 48.4341C84.0829 48.4341 83.9463 48.4704 83.8279 48.543C83.7096 48.6156 83.6094 48.7155 83.5457 48.8426C83.4819 48.9697 83.4455 49.115 83.4455 49.2784V51.5117H82.4349L82.4258 51.4935Z" fill="#B7202E"/>
<path d="M87.8242 51.4935L89.7453 46.5094H91.0837L93.0049 51.4935H91.8303L91.4753 50.5131H89.2992L88.9441 51.4935H87.8242ZM89.6179 49.6324H91.1748L90.7287 48.4068C90.7104 48.3524 90.6831 48.2888 90.6558 48.2162C90.6285 48.1436 90.6012 48.0618 90.5739 47.962C90.5466 47.8712 90.5192 47.7804 90.4919 47.6896C90.4646 47.5988 90.4373 47.5171 90.4191 47.4445H90.3736C90.3463 47.5353 90.3189 47.6442 90.2825 47.7713C90.2461 47.8984 90.2006 48.0165 90.1642 48.1254C90.1277 48.2434 90.0913 48.3342 90.0731 48.4068L89.627 49.6324H89.6179Z" fill="#B7202E"/>
<path d="M95.0805 51.5752C94.8165 51.5752 94.5706 51.5479 94.3612 51.4844C94.1518 51.4299 93.9697 51.3482 93.8149 51.2393C93.6602 51.1394 93.5509 51.0123 93.469 50.8671C93.387 50.7218 93.3506 50.5584 93.3506 50.3768V50.3223C93.3506 50.3223 93.3506 50.286 93.3506 50.277H94.3248V50.3314C94.3248 50.4494 94.3703 50.5493 94.4432 50.6219C94.516 50.6946 94.6162 50.749 94.7345 50.7854C94.8529 50.8217 94.9803 50.8398 95.1078 50.8398C95.2262 50.8398 95.3354 50.8307 95.4447 50.8035C95.554 50.7854 95.645 50.74 95.7178 50.6855C95.7907 50.631 95.8271 50.5493 95.8271 50.4585C95.8271 50.3405 95.7816 50.2497 95.6814 50.1862C95.5904 50.1226 95.4629 50.0681 95.3081 50.0318C95.1533 49.9955 94.9895 49.9501 94.8074 49.9047C94.6435 49.8684 94.4796 49.823 94.3157 49.7686C94.1518 49.7141 93.997 49.6505 93.8696 49.5688C93.733 49.4871 93.6237 49.3782 93.5418 49.242C93.4598 49.1058 93.4143 48.9424 93.4143 48.7336C93.4143 48.5248 93.4598 48.3614 93.5418 48.2161C93.6328 48.0709 93.7512 47.9438 93.906 47.853C94.0608 47.7531 94.2429 47.6805 94.4432 47.6351C94.6526 47.5897 94.8711 47.5625 95.1078 47.5625C95.3354 47.5625 95.5357 47.5897 95.736 47.6351C95.9273 47.6805 96.1002 47.7531 96.2459 47.8348C96.3916 47.9256 96.51 48.0346 96.5919 48.1707C96.6738 48.3069 96.7194 48.4522 96.7194 48.6156V48.7064C96.7194 48.7064 96.7194 48.7518 96.7194 48.7608H95.7543V48.7064C95.7543 48.6156 95.7269 48.543 95.6723 48.4885C95.6177 48.434 95.5448 48.3795 95.4447 48.3432C95.3445 48.3069 95.2262 48.2888 95.0805 48.2888C94.9803 48.2888 94.8984 48.2888 94.8165 48.3069C94.7345 48.3251 94.6708 48.3432 94.6071 48.3705C94.5524 48.3977 94.5069 48.434 94.4705 48.4794C94.4432 48.5248 94.425 48.5702 94.425 48.6247C94.425 48.7064 94.4614 48.7699 94.5342 48.8244C94.6071 48.8789 94.6981 48.9152 94.8165 48.9515C94.9348 48.9878 95.0623 49.0241 95.1989 49.0604C95.3719 49.1058 95.554 49.1603 95.7452 49.2057C95.9364 49.2511 96.1185 49.3146 96.2823 49.3873C96.4462 49.4599 96.5828 49.5779 96.683 49.7141C96.7831 49.8503 96.8377 50.05 96.8377 50.2951C96.8377 50.5402 96.7922 50.7218 96.7012 50.8852C96.6101 51.0486 96.4826 51.1757 96.3279 51.2665C96.164 51.3664 95.9819 51.4299 95.7634 51.4753C95.5448 51.5207 95.3172 51.5389 95.0714 51.5389L95.0805 51.5752Z" fill="#B7202E"/>
<path d="M99.1323 51.5752C98.8682 51.5752 98.6224 51.548 98.413 51.4845C98.2036 51.43 98.0215 51.3483 97.8667 51.2393C97.7119 51.1395 97.6026 51.0124 97.5207 50.8671C97.4388 50.7219 97.4023 50.5584 97.4023 50.3769V50.3224C97.4023 50.3224 97.4023 50.2861 97.4023 50.277H98.3766V50.3315C98.3766 50.4495 98.4221 50.5494 98.4949 50.622C98.5678 50.6946 98.6679 50.7491 98.7863 50.7854C98.9046 50.8217 99.0321 50.8399 99.1596 50.8399C99.2779 50.8399 99.3872 50.8308 99.4964 50.8036C99.6057 50.7854 99.6968 50.74 99.7696 50.6855C99.8424 50.6311 99.8788 50.5494 99.8788 50.4586C99.8788 50.3406 99.8333 50.2498 99.7332 50.1862C99.6421 50.1227 99.5147 50.0682 99.3599 50.0319C99.2051 49.9956 99.0412 49.9502 98.8591 49.9048C98.6952 49.8685 98.5313 49.8231 98.3675 49.7686C98.2036 49.7141 98.0488 49.6506 97.9213 49.5689C97.7847 49.4872 97.6755 49.3782 97.5935 49.2421C97.5116 49.1059 97.4661 48.9425 97.4661 48.7337C97.4661 48.5249 97.5116 48.3614 97.5935 48.2162C97.6846 48.0709 97.8029 47.9438 97.9577 47.853C98.1125 47.7532 98.2946 47.6806 98.4949 47.6352C98.7043 47.5898 98.9228 47.5625 99.1596 47.5625C99.3872 47.5625 99.5875 47.5898 99.7878 47.6352C99.979 47.6806 100.152 47.7532 100.298 47.8349C100.443 47.9257 100.562 48.0346 100.644 48.1708C100.726 48.307 100.771 48.4522 100.771 48.6156V48.7064C100.771 48.7064 100.771 48.7518 100.771 48.7609H99.806V48.7064C99.806 48.6156 99.7787 48.543 99.7241 48.4885C99.6694 48.4341 99.5966 48.3796 99.4964 48.3433C99.3963 48.307 99.2779 48.2888 99.1323 48.2888C99.0321 48.2888 98.9502 48.2888 98.8682 48.307C98.7863 48.3251 98.7225 48.3433 98.6588 48.3705C98.6042 48.3978 98.5587 48.4341 98.5222 48.4795C98.4949 48.5249 98.4767 48.5702 98.4767 48.6247C98.4767 48.7064 98.5131 48.77 98.586 48.8244C98.6588 48.8789 98.7498 48.9152 98.8682 48.9515C98.9866 48.9879 99.114 49.0242 99.2506 49.0605C99.4236 49.1059 99.6057 49.1604 99.7969 49.2057C99.9881 49.2511 100.17 49.3147 100.334 49.3873C100.498 49.4599 100.635 49.578 100.735 49.7141C100.835 49.8503 100.889 50.05 100.889 50.2952C100.889 50.5403 100.844 50.7219 100.753 50.8853C100.662 51.0487 100.534 51.1758 100.38 51.2666C100.216 51.3664 100.034 51.43 99.8151 51.4754C99.5966 51.5208 99.369 51.5389 99.1232 51.5389L99.1323 51.5752Z" fill="#B7202E"/>
<path d="M103.393 51.5752C102.974 51.5752 102.619 51.5026 102.328 51.3574C102.036 51.2121 101.818 50.9942 101.663 50.6946C101.508 50.395 101.436 50.0228 101.436 49.5689C101.436 49.115 101.508 48.7337 101.663 48.4431C101.818 48.1526 102.036 47.9347 102.328 47.7895C102.619 47.6442 102.974 47.5716 103.393 47.5716C103.812 47.5716 104.176 47.6442 104.467 47.7895C104.759 47.9347 104.977 48.1526 105.123 48.4431C105.278 48.7337 105.351 49.115 105.351 49.5689C105.351 50.0228 105.278 50.395 105.123 50.6946C104.968 50.9942 104.75 51.2121 104.467 51.3574C104.176 51.5026 103.821 51.5752 103.393 51.5752ZM103.393 50.7945C103.621 50.7945 103.794 50.7491 103.93 50.6674C104.067 50.5857 104.167 50.4586 104.222 50.2861C104.285 50.1136 104.313 49.9048 104.313 49.6597V49.4872C104.313 49.2421 104.285 49.0333 104.222 48.8608C104.158 48.6883 104.058 48.5612 103.93 48.4795C103.794 48.3978 103.621 48.3524 103.393 48.3524C103.165 48.3524 103.002 48.3978 102.865 48.4795C102.728 48.5612 102.628 48.6883 102.574 48.8608C102.51 49.0333 102.483 49.2421 102.483 49.4872V49.6597C102.483 49.9048 102.51 50.1136 102.574 50.2861C102.637 50.4586 102.738 50.5857 102.865 50.6674C103.002 50.7491 103.175 50.7945 103.393 50.7945Z" fill="#B7202E"/>
<path d="M107.782 51.5752C107.372 51.5752 107.035 51.5026 106.753 51.3574C106.471 51.2121 106.261 50.9942 106.125 50.6946C105.988 50.395 105.906 50.0228 105.906 49.5689C105.906 49.115 105.979 48.7337 106.125 48.4431C106.27 48.1526 106.48 47.9347 106.762 47.7895C107.044 47.6442 107.381 47.5716 107.791 47.5716C108.055 47.5716 108.292 47.5988 108.501 47.6624C108.711 47.7259 108.893 47.8258 109.047 47.9529C109.202 48.08 109.321 48.2434 109.403 48.4341C109.484 48.6247 109.521 48.8517 109.521 49.115H108.51C108.51 48.9425 108.483 48.7972 108.428 48.6883C108.374 48.5793 108.292 48.4885 108.182 48.4341C108.073 48.3796 107.937 48.3433 107.773 48.3433C107.582 48.3433 107.418 48.3887 107.299 48.4704C107.181 48.5521 107.09 48.6883 107.026 48.8517C106.972 49.0242 106.935 49.233 106.935 49.4872V49.6506C106.935 49.8957 106.962 50.1045 107.026 50.277C107.09 50.4495 107.181 50.5766 107.308 50.6583C107.436 50.74 107.6 50.7854 107.8 50.7854C107.964 50.7854 108.101 50.7582 108.21 50.6946C108.319 50.6402 108.401 50.5494 108.465 50.4313C108.519 50.3133 108.556 50.1771 108.556 50.0137H109.521C109.521 50.2589 109.484 50.4858 109.403 50.6765C109.321 50.8671 109.202 51.0305 109.057 51.1667C108.902 51.2938 108.72 51.3937 108.51 51.4663C108.301 51.5298 108.055 51.5662 107.8 51.5662L107.782 51.5752Z" fill="#B7202E"/>
<path d="M110.275 47.1088V46.2373H111.286V47.1088H110.275ZM110.275 51.4937V47.6717H111.286V51.4937H110.275Z" fill="#B7202E"/>
<path d="M113.236 51.5751C113.109 51.5751 112.972 51.5569 112.835 51.5297C112.699 51.5025 112.553 51.448 112.435 51.3754C112.307 51.3027 112.207 51.1938 112.125 51.0485C112.043 50.9033 112.007 50.7217 112.007 50.5038C112.007 50.2406 112.061 50.0136 112.18 49.8411C112.298 49.6686 112.462 49.5324 112.681 49.4326C112.899 49.3327 113.154 49.2601 113.455 49.2238C113.755 49.1874 114.092 49.1693 114.456 49.1693V48.8878C114.456 48.7789 114.438 48.679 114.401 48.5973C114.365 48.5156 114.301 48.4521 114.21 48.3976C114.119 48.3431 113.992 48.325 113.837 48.325C113.682 48.325 113.546 48.3431 113.445 48.3795C113.345 48.4158 113.272 48.4702 113.236 48.5247C113.19 48.5883 113.172 48.6518 113.172 48.7244V48.8152H112.189C112.189 48.8152 112.189 48.7698 112.189 48.7426V48.6609C112.189 48.4339 112.253 48.2433 112.389 48.0799C112.526 47.9164 112.717 47.7893 112.963 47.7076C113.209 47.6169 113.5 47.5805 113.828 47.5805C114.183 47.5805 114.483 47.6259 114.72 47.7167C114.957 47.8075 115.148 47.9437 115.275 48.1253C115.403 48.3068 115.467 48.5338 115.467 48.7971V50.5311C115.467 50.6218 115.494 50.6854 115.54 50.7217C115.594 50.7671 115.649 50.7853 115.712 50.7853H115.949V51.448C115.904 51.4752 115.822 51.4934 115.722 51.5206C115.621 51.5479 115.494 51.5569 115.348 51.5569C115.203 51.5569 115.084 51.5388 114.975 51.4934C114.866 51.448 114.775 51.3935 114.702 51.3209C114.629 51.2483 114.574 51.1575 114.547 51.0485H114.492C114.411 51.1484 114.31 51.2392 114.192 51.3209C114.074 51.4026 113.937 51.4571 113.773 51.5025C113.618 51.5479 113.436 51.566 113.227 51.566L113.236 51.5751ZM113.582 50.8125C113.719 50.8125 113.837 50.7943 113.946 50.7489C114.055 50.7036 114.146 50.6491 114.219 50.5855C114.292 50.5129 114.347 50.4312 114.392 50.3313C114.438 50.2315 114.456 50.1225 114.456 50.0045V49.7957C114.183 49.7957 113.937 49.8139 113.728 49.8502C113.518 49.8865 113.345 49.95 113.218 50.0317C113.09 50.1135 113.036 50.2405 113.036 50.3949C113.036 50.4857 113.054 50.5583 113.099 50.6218C113.145 50.6854 113.209 50.7308 113.291 50.7671C113.373 50.8034 113.473 50.8216 113.591 50.8216L113.582 50.8125Z" fill="#B7202E"/>
<path d="M117.598 51.575C117.352 51.575 117.161 51.5296 117.006 51.4479C116.851 51.3571 116.742 51.2391 116.678 51.0938C116.614 50.9486 116.578 50.7852 116.578 50.6036V48.4429H116.104V47.6622H116.614L116.806 46.5727H117.589V47.6622H118.29V48.4429H117.589V50.4311C117.589 50.5491 117.616 50.6399 117.671 50.6944C117.725 50.7579 117.807 50.7852 117.935 50.7852H118.29V51.457C118.235 51.4751 118.162 51.4933 118.089 51.5114C118.017 51.5296 117.925 51.5387 117.844 51.5568C117.752 51.5659 117.68 51.575 117.607 51.575H117.598Z" fill="#B7202E"/>
<path d="M118.944 47.1086V46.2371H119.955V47.1086H118.944ZM118.944 51.4935V47.6715H119.955V51.4935H118.944Z" fill="#B7202E"/>
<path d="M122.651 51.5754C122.232 51.5754 121.877 51.5028 121.586 51.3575C121.294 51.2122 121.076 50.9944 120.921 50.6948C120.766 50.3952 120.693 50.023 120.693 49.569C120.693 49.1151 120.766 48.7338 120.921 48.4433C121.076 48.1528 121.294 47.9349 121.586 47.7896C121.877 47.6444 122.232 47.5718 122.651 47.5718C123.07 47.5718 123.434 47.6444 123.725 47.7896C124.017 47.9349 124.235 48.1528 124.381 48.4433C124.536 48.7338 124.608 49.1151 124.608 49.569C124.608 50.023 124.536 50.3952 124.381 50.6948C124.226 50.9944 124.008 51.2122 123.725 51.3575C123.434 51.5028 123.079 51.5754 122.651 51.5754ZM122.651 50.7946C122.879 50.7946 123.052 50.7492 123.188 50.6675C123.325 50.5858 123.425 50.4587 123.479 50.2862C123.543 50.1137 123.57 49.9049 123.57 49.6598V49.4873C123.57 49.2422 123.543 49.0334 123.479 48.8609C123.416 48.6884 123.316 48.5613 123.188 48.4796C123.052 48.3979 122.879 48.3525 122.651 48.3525C122.423 48.3525 122.259 48.3979 122.123 48.4796C121.986 48.5613 121.886 48.6884 121.831 48.8609C121.768 49.0334 121.74 49.2422 121.74 49.4873V49.6598C121.74 49.9049 121.768 50.1137 121.831 50.2862C121.895 50.4587 121.995 50.5858 122.123 50.6675C122.259 50.7492 122.432 50.7946 122.651 50.7946Z" fill="#B7202E"/>
<path d="M125.363 51.4936V47.6715H126.201L126.283 48.1981H126.337C126.429 48.071 126.529 47.962 126.656 47.8713C126.784 47.7805 126.92 47.7078 127.075 47.6624C127.23 47.6171 127.403 47.5898 127.585 47.5898C127.84 47.5898 128.058 47.6352 128.25 47.726C128.441 47.8168 128.586 47.962 128.687 48.1618C128.787 48.3615 128.841 48.6157 128.841 48.9425V51.5027H127.831V49.1059C127.831 48.9879 127.812 48.879 127.785 48.7973C127.758 48.7156 127.712 48.6429 127.658 48.5885C127.603 48.534 127.53 48.4886 127.448 48.4704C127.366 48.4432 127.275 48.4341 127.175 48.4341C127.02 48.4341 126.884 48.4704 126.765 48.5431C126.647 48.6157 126.547 48.7156 126.483 48.8427C126.419 48.9698 126.383 49.115 126.383 49.2784V51.5117H125.372L125.363 51.4936Z" fill="#B7202E"/>
<path d="M131.354 51.4935V48.4522H130.808V47.6715H131.354V47.2539C131.354 47.0451 131.39 46.8635 131.463 46.7001C131.536 46.5367 131.645 46.4096 131.8 46.3188C131.955 46.228 132.164 46.1826 132.419 46.1826C132.492 46.1826 132.565 46.1826 132.647 46.2007C132.729 46.2098 132.802 46.228 132.884 46.2371C132.956 46.2552 133.02 46.2734 133.075 46.2915V46.9633H132.711C132.592 46.9633 132.51 46.9906 132.456 47.0541C132.401 47.1086 132.374 47.1994 132.374 47.3083V47.6896H133.084V48.4704H132.374V51.5117H131.363L131.354 51.4935Z" fill="#B7202E"/>
<path d="M135.27 51.5752C134.851 51.5752 134.496 51.5026 134.205 51.3574C133.913 51.2121 133.695 50.9942 133.54 50.6946C133.385 50.395 133.312 50.0228 133.312 49.5689C133.312 49.115 133.385 48.7337 133.54 48.4431C133.695 48.1526 133.913 47.9347 134.205 47.7895C134.496 47.6442 134.851 47.5716 135.27 47.5716C135.689 47.5716 136.053 47.6442 136.344 47.7895C136.636 47.9347 136.854 48.1526 137 48.4431C137.155 48.7337 137.228 49.115 137.228 49.5689C137.228 50.0228 137.155 50.395 137 50.6946C136.845 50.9942 136.627 51.2121 136.344 51.3574C136.053 51.5026 135.698 51.5752 135.27 51.5752ZM135.27 50.7945C135.498 50.7945 135.671 50.7491 135.807 50.6674C135.944 50.5857 136.044 50.4586 136.099 50.2861C136.162 50.1136 136.19 49.9048 136.19 49.6597V49.4872C136.19 49.2421 136.162 49.0333 136.099 48.8608C136.035 48.6883 135.935 48.5612 135.807 48.4795C135.671 48.3978 135.498 48.3524 135.27 48.3524C135.042 48.3524 134.879 48.3978 134.742 48.4795C134.605 48.5612 134.505 48.6883 134.451 48.8608C134.387 49.0333 134.36 49.2421 134.36 49.4872V49.6597C134.36 49.9048 134.387 50.1136 134.451 50.2861C134.514 50.4586 134.614 50.5857 134.742 50.6674C134.879 50.7491 135.052 50.7945 135.27 50.7945Z" fill="#B7202E"/>
<path d="M137.974 51.4934V47.6713H138.811L138.893 48.2705H138.948C138.993 48.1434 139.057 48.0254 139.139 47.9255C139.221 47.8257 139.312 47.7349 139.43 47.6713C139.549 47.6078 139.685 47.5805 139.84 47.5805C139.922 47.5805 139.995 47.5805 140.068 47.6078C140.141 47.635 140.186 47.6441 140.223 47.6532V48.5701H139.913C139.758 48.5701 139.631 48.5883 139.512 48.6336C139.394 48.679 139.303 48.7426 139.221 48.8243C139.139 48.906 139.084 49.0149 139.048 49.142C139.012 49.2691 138.993 49.4144 138.993 49.5869V51.5025H137.983L137.974 51.4934Z" fill="#B7202E"/>
<path d="M67.7845 59.528C67.0015 59.528 66.3914 59.3192 65.9635 58.9016C65.5356 58.484 65.3262 57.8303 65.3262 56.9497C65.3262 56.3596 65.4263 55.8785 65.6357 55.4972C65.836 55.1159 66.1365 54.8344 66.528 54.6438C66.9195 54.4531 67.3839 54.3623 67.9301 54.3623C68.2579 54.3623 68.5584 54.3987 68.8497 54.4713C69.132 54.5439 69.3869 54.6529 69.6145 54.8072C69.8331 54.9615 70.006 55.1431 70.1335 55.3701C70.261 55.597 70.3156 55.8603 70.3156 56.169H69.2139C69.2139 56.0146 69.1775 55.8875 69.1138 55.7695C69.05 55.6515 68.959 55.5607 68.8406 55.479C68.7223 55.3973 68.5948 55.3428 68.44 55.3065C68.2852 55.2702 68.1305 55.252 67.9666 55.252C67.7116 55.252 67.4931 55.2884 67.3019 55.3519C67.1107 55.4155 66.9559 55.5153 66.8285 55.6515C66.701 55.7877 66.6099 55.9511 66.5462 56.1508C66.4825 56.3505 66.4552 56.5775 66.4552 56.8408V57.0587C66.4552 57.4218 66.5098 57.7214 66.6191 57.9484C66.7283 58.1844 66.8831 58.3569 67.1016 58.4658C67.3201 58.5748 67.5842 58.6383 67.8937 58.6383C68.1578 58.6383 68.3854 58.602 68.5857 58.5203C68.786 58.4386 68.9408 58.3297 69.0591 58.1753C69.1775 58.021 69.2321 57.8394 69.2321 57.6215V57.5671H67.7389V56.7409H70.3156V59.4372H69.6054L69.5144 58.9016C69.3687 59.0378 69.2139 59.1558 69.0409 59.2466C68.8771 59.3374 68.6858 59.41 68.4855 59.4554C68.2852 59.5008 68.0485 59.528 67.8027 59.528H67.7845Z" fill="#B7202E"/>
<path d="M73.0288 59.528C72.61 59.528 72.2549 59.4554 71.9636 59.3101C71.6722 59.1649 71.4537 58.947 71.2989 58.6474C71.1441 58.3478 71.0713 57.9756 71.0713 57.5217C71.0713 57.0677 71.1441 56.6865 71.2989 56.3959C71.4537 56.1054 71.6722 55.8875 71.9636 55.7423C72.2549 55.597 72.61 55.5244 73.0288 55.5244C73.4476 55.5244 73.8118 55.597 74.1032 55.7423C74.3945 55.8875 74.6131 56.1054 74.7587 56.3959C74.9135 56.6865 74.9864 57.0677 74.9864 57.5217C74.9864 57.9756 74.9135 58.3478 74.7587 58.6474C74.604 58.947 74.3854 59.1649 74.1032 59.3101C73.8209 59.4554 73.4568 59.528 73.0288 59.528ZM73.0288 58.7382C73.2564 58.7382 73.4294 58.6928 73.566 58.6111C73.7026 58.5294 73.7936 58.4023 73.8574 58.2298C73.9211 58.0573 73.9484 57.8485 73.9484 57.6034V57.4309C73.9484 57.1858 73.9211 56.977 73.8574 56.8045C73.7936 56.632 73.6935 56.5049 73.566 56.4232C73.4294 56.3415 73.2564 56.2961 73.0288 56.2961C72.8012 56.2961 72.6373 56.3415 72.5007 56.4232C72.3642 56.5049 72.2731 56.632 72.2094 56.8045C72.1457 56.977 72.1183 57.1858 72.1183 57.4309V57.6034C72.1183 57.8485 72.1457 58.0573 72.2094 58.2298C72.2731 58.4023 72.3733 58.5294 72.5007 58.6111C72.6282 58.6928 72.8103 58.7382 73.0288 58.7382Z" fill="#B7202E"/>
<path d="M75.7314 59.4372V54.1808H76.7421V59.4372H75.7314Z" fill="#B7202E"/>
<path d="M79.039 59.528C78.7204 59.528 78.4472 59.4554 78.2196 59.3101C77.992 59.1649 77.8099 58.947 77.6824 58.6565C77.5549 58.3569 77.4912 57.9847 77.4912 57.5217C77.4912 57.0587 77.5549 56.6865 77.6824 56.3869C77.8099 56.0963 77.992 55.8785 78.2105 55.7332C78.4381 55.597 78.693 55.5244 78.9935 55.5244C79.1574 55.5244 79.3122 55.5426 79.4578 55.5789C79.6035 55.6152 79.731 55.6697 79.8403 55.7514C79.9495 55.8331 80.0406 55.9239 80.1225 56.0328H80.168V54.1808H81.1787V59.4372H80.3501L80.2682 58.9198H80.2135C80.0861 59.1195 79.9222 59.2738 79.7219 59.3737C79.5216 59.4736 79.2849 59.519 79.039 59.519V59.528ZM79.3577 58.6928C79.5489 58.6928 79.7037 58.6474 79.822 58.5657C79.9404 58.484 80.0315 58.3569 80.0861 58.1844C80.1407 58.021 80.1771 57.8213 80.1771 57.5943V57.4672C80.1771 57.2947 80.1589 57.1404 80.1316 57.0042C80.1043 56.868 80.0497 56.75 79.9859 56.6501C79.9222 56.5503 79.8311 56.4867 79.731 56.4323C79.6308 56.3778 79.5034 56.3596 79.3668 56.3596C79.1665 56.3596 79.0026 56.3959 78.8751 56.4776C78.7568 56.5594 78.6657 56.6774 78.6111 56.8408C78.5565 57.0042 78.5292 57.2039 78.5292 57.449V57.6125C78.5292 57.8576 78.5565 58.0573 78.6111 58.2116C78.6657 58.3751 78.7477 58.4931 78.8751 58.5748C78.9935 58.6565 79.1574 58.6928 79.3668 58.6928H79.3577Z" fill="#B7202E"/>
<path d="M83.6279 59.4374V54.4532H87.6249V55.3429H84.7205V56.4505H87.2881V57.3311H84.7205V58.5477H87.6705V59.4374H83.6279Z" fill="#B7202E"/>
<path d="M88.126 59.4372L89.519 57.449L88.2261 55.6061H89.4462L90.1746 56.759H90.211L90.9485 55.6061H92.0957L90.7937 57.4399L92.1685 59.4281H90.9758L90.1472 58.1299H90.1108L89.2823 59.4281H88.1351L88.126 59.4372Z" fill="#B7202E"/>
<path d="M94.1705 59.5282C93.7608 59.5282 93.4239 59.4555 93.1417 59.3103C92.8594 59.165 92.65 58.9471 92.5134 58.6475C92.3769 58.3479 92.2949 57.9757 92.2949 57.5218C92.2949 57.0679 92.3678 56.6866 92.5134 56.3961C92.6591 56.1056 92.8685 55.8877 93.1508 55.7424C93.433 55.5972 93.7699 55.5245 94.1796 55.5245C94.4437 55.5245 94.6804 55.5518 94.8898 55.6153C95.0992 55.6789 95.2813 55.7787 95.4361 55.9058C95.5909 56.0329 95.7092 56.1963 95.7912 56.387C95.8731 56.5776 95.9095 56.8046 95.9095 57.0679H94.8989C94.8989 56.8954 94.8716 56.7501 94.817 56.6412C94.7623 56.5322 94.6804 56.4415 94.5711 56.387C94.4619 56.3325 94.3253 56.2962 94.1614 56.2962C93.9702 56.2962 93.8063 56.3416 93.688 56.4233C93.5696 56.505 93.4785 56.6412 93.4148 56.8046C93.3602 56.9771 93.3238 57.1859 93.3238 57.4401V57.6035C93.3238 57.8486 93.3511 58.0574 93.4148 58.2299C93.4785 58.4024 93.5696 58.5295 93.6971 58.6112C93.8245 58.6929 93.9884 58.7383 94.1887 58.7383C94.3526 58.7383 94.4892 58.7111 94.5984 58.6475C94.7077 58.5931 94.7896 58.5023 94.8534 58.3843C94.908 58.2662 94.9444 58.1301 94.9444 57.9667H95.9095C95.9095 58.2118 95.8731 58.4387 95.7912 58.6294C95.7092 58.82 95.5909 58.9834 95.4452 59.1196C95.2904 59.2467 95.1083 59.3466 94.8989 59.4192C94.6895 59.4828 94.4437 59.5191 94.1887 59.5191L94.1705 59.5282Z" fill="#B7202E"/>
<path d="M98.4039 59.528C97.985 59.528 97.6299 59.4554 97.3386 59.3101C97.0472 59.1649 96.8378 58.947 96.6921 58.6565C96.5465 58.3569 96.4736 57.9847 96.4736 57.5308C96.4736 57.0768 96.5465 56.6955 96.6921 56.405C96.8378 56.1145 97.0563 55.8966 97.3386 55.7514C97.6208 55.6061 97.9759 55.5335 98.3856 55.5335C98.7771 55.5335 99.1049 55.6061 99.369 55.7423C99.633 55.8785 99.8424 56.0963 99.9699 56.3778C100.106 56.6683 100.17 57.0405 100.17 57.4944V57.7577H97.4934C97.5025 57.9847 97.5389 58.1662 97.6026 58.3206C97.6664 58.4749 97.7574 58.5929 97.8849 58.6656C98.0123 58.7382 98.1853 58.7745 98.3947 58.7745C98.5131 58.7745 98.6133 58.7564 98.7134 58.7291C98.8045 58.7019 98.8864 58.6565 98.9593 58.602C99.023 58.5476 99.0776 58.4749 99.1231 58.3841C99.1596 58.2933 99.1778 58.1935 99.1778 58.0845H100.17C100.17 58.3297 100.125 58.5385 100.043 58.72C99.9517 58.9016 99.8333 59.0469 99.6785 59.1649C99.5237 59.2829 99.3325 59.3737 99.1231 59.4372C98.9046 59.5008 98.6679 59.528 98.4039 59.528ZM97.5207 57.1131H99.1413C99.1413 56.9679 99.1231 56.8408 99.0867 56.7318C99.0503 56.6229 99.0048 56.5412 98.941 56.4686C98.8773 56.405 98.8045 56.3505 98.7134 56.3233C98.6224 56.2961 98.5222 56.2779 98.413 56.2779C98.2309 56.2779 98.0761 56.3052 97.9486 56.3687C97.8211 56.4323 97.7301 56.523 97.6664 56.6411C97.6026 56.7682 97.5571 56.9225 97.5298 57.1131H97.5207Z" fill="#B7202E"/>
<path d="M100.927 59.4372V54.1808H101.937V59.4372H100.927Z" fill="#B7202E"/>
<path d="M102.864 59.4372V54.1808H103.875V59.4372H102.864Z" fill="#B7202E"/>
<path d="M106.562 59.5279C106.143 59.5279 105.788 59.4552 105.497 59.31C105.205 59.1647 104.996 58.9468 104.85 58.6563C104.705 58.3567 104.632 57.9845 104.632 57.5306C104.632 57.0767 104.705 56.6954 104.85 56.4049C104.996 56.1143 105.215 55.8965 105.497 55.7512C105.779 55.6059 106.134 55.5333 106.544 55.5333C106.935 55.5333 107.263 55.6059 107.527 55.7421C107.791 55.8783 108.001 56.0962 108.128 56.3776C108.265 56.6681 108.328 57.0404 108.328 57.4943V57.7576H105.652C105.661 57.9845 105.697 58.1661 105.761 58.3204C105.825 58.4748 105.916 58.5928 106.043 58.6654C106.171 58.738 106.344 58.7744 106.553 58.7744C106.671 58.7744 106.771 58.7562 106.872 58.729C106.963 58.7017 107.045 58.6563 107.117 58.6019C107.181 58.5474 107.236 58.4748 107.281 58.384C107.318 58.2932 107.336 58.1933 107.336 58.0844H108.328C108.328 58.3295 108.283 58.5383 108.201 58.7199C108.11 58.9015 107.992 59.0467 107.837 59.1647C107.682 59.2827 107.491 59.3735 107.281 59.4371C107.063 59.5006 106.826 59.5279 106.562 59.5279ZM105.67 57.113H107.29C107.29 56.9677 107.272 56.8406 107.236 56.7317C107.199 56.6227 107.154 56.541 107.09 56.4684C107.026 56.4049 106.954 56.3504 106.863 56.3232C106.771 56.2959 106.671 56.2778 106.562 56.2778C106.38 56.2778 106.225 56.305 106.098 56.3685C105.97 56.4321 105.879 56.5229 105.815 56.6409C105.752 56.768 105.706 56.9223 105.679 57.113H105.67Z" fill="#B7202E"/>
<path d="M109.076 59.4372V55.6152H109.914L109.996 56.1417H110.05C110.141 56.0146 110.242 55.9057 110.369 55.8149C110.497 55.7241 110.633 55.6515 110.788 55.6061C110.943 55.5607 111.116 55.5335 111.298 55.5335C111.553 55.5335 111.771 55.5789 111.962 55.6697C112.154 55.7604 112.299 55.9057 112.399 56.1054C112.5 56.3052 112.554 56.5594 112.554 56.8862V59.4463H111.544V57.0496C111.544 56.9316 111.525 56.8226 111.498 56.7409C111.471 56.6592 111.425 56.5866 111.371 56.5321C111.316 56.4776 111.243 56.4323 111.161 56.4141C111.079 56.3869 110.988 56.3778 110.888 56.3778C110.733 56.3778 110.597 56.4141 110.478 56.4867C110.36 56.5594 110.26 56.6592 110.196 56.7863C110.132 56.9134 110.096 57.0587 110.096 57.2221V59.4554H109.085L109.076 59.4372Z" fill="#B7202E"/>
<path d="M115.148 59.528C114.738 59.528 114.401 59.4554 114.119 59.3101C113.837 59.1649 113.628 58.947 113.491 58.6474C113.354 58.3478 113.272 57.9756 113.272 57.5217C113.272 57.0677 113.345 56.6865 113.491 56.3959C113.637 56.1054 113.846 55.8875 114.128 55.7423C114.411 55.597 114.747 55.5244 115.157 55.5244C115.421 55.5244 115.658 55.5516 115.867 55.6152C116.077 55.6787 116.259 55.7786 116.414 55.9057C116.568 56.0328 116.687 56.1962 116.769 56.3869C116.851 56.5775 116.887 56.8045 116.887 57.0677H115.876C115.876 56.8953 115.849 56.75 115.794 56.6411C115.74 56.5321 115.658 56.4413 115.549 56.3869C115.439 56.3324 115.303 56.2961 115.139 56.2961C114.948 56.2961 114.784 56.3415 114.665 56.4232C114.547 56.5049 114.456 56.6411 114.392 56.8045C114.338 56.977 114.301 57.1858 114.301 57.44V57.6034C114.301 57.8485 114.329 58.0573 114.392 58.2298C114.456 58.4023 114.547 58.5294 114.675 58.6111C114.802 58.6928 114.966 58.7382 115.166 58.7382C115.33 58.7382 115.467 58.711 115.576 58.6474C115.685 58.5929 115.767 58.5022 115.831 58.3841C115.886 58.2661 115.922 58.1299 115.922 57.9665H116.887C116.887 58.2116 116.851 58.4386 116.769 58.6293C116.687 58.8199 116.568 58.9833 116.423 59.1195C116.268 59.2466 116.086 59.3465 115.876 59.4191C115.667 59.4826 115.421 59.5189 115.166 59.5189L115.148 59.528Z" fill="#B7202E"/>
<path d="M119.381 59.528C118.963 59.528 118.607 59.4554 118.316 59.3101C118.025 59.1649 117.815 58.947 117.67 58.6565C117.524 58.3569 117.451 57.9847 117.451 57.5308C117.451 57.0768 117.524 56.6955 117.67 56.405C117.815 56.1145 118.034 55.8966 118.316 55.7514C118.598 55.6061 118.953 55.5335 119.363 55.5335C119.755 55.5335 120.082 55.6061 120.346 55.7423C120.611 55.8785 120.82 56.0963 120.947 56.3778C121.084 56.6683 121.148 57.0405 121.148 57.4944V57.7577H118.471C118.48 57.9847 118.516 58.1662 118.58 58.3206C118.644 58.4749 118.735 58.5929 118.862 58.6656C118.99 58.7382 119.163 58.7745 119.372 58.7745C119.491 58.7745 119.591 58.7564 119.691 58.7291C119.782 58.7019 119.864 58.6565 119.937 58.602C120.001 58.5476 120.055 58.4749 120.101 58.3841C120.137 58.2933 120.155 58.1935 120.155 58.0845H121.148C121.148 58.3297 121.102 58.5385 121.02 58.72C120.929 58.9016 120.811 59.0469 120.656 59.1649C120.501 59.2829 120.31 59.3737 120.101 59.4372C119.882 59.5008 119.645 59.528 119.381 59.528ZM118.489 57.1131H120.11C120.11 56.9679 120.092 56.8408 120.055 56.7318C120.019 56.6229 119.973 56.5412 119.909 56.4686C119.846 56.405 119.773 56.3505 119.682 56.3233C119.591 56.2961 119.491 56.2779 119.381 56.2779C119.199 56.2779 119.045 56.3052 118.917 56.3687C118.79 56.4323 118.699 56.523 118.635 56.6411C118.571 56.7682 118.526 56.9225 118.498 57.1131H118.489Z" fill="#B7202E"/>
<path d="M124.336 59.528C124.208 59.528 124.072 59.5099 123.935 59.4826C123.798 59.4554 123.653 59.4009 123.534 59.3283C123.407 59.2557 123.307 59.1467 123.225 59.0015C123.143 58.8562 123.106 58.6746 123.106 58.4568C123.106 58.1935 123.161 57.9665 123.279 57.794C123.398 57.6215 123.562 57.4854 123.78 57.3855C123.999 57.2856 124.254 57.213 124.554 57.1767C124.855 57.1404 125.191 57.1222 125.556 57.1222V56.8408C125.556 56.7318 125.537 56.632 125.501 56.5503C125.465 56.4686 125.401 56.405 125.31 56.3505C125.219 56.2961 125.091 56.2779 124.937 56.2779C124.782 56.2779 124.645 56.2961 124.545 56.3324C124.445 56.3687 124.372 56.4232 124.336 56.4776C124.29 56.5412 124.272 56.6047 124.272 56.6774V56.7682H123.289C123.289 56.7682 123.289 56.7228 123.289 56.6955V56.6138C123.289 56.3869 123.352 56.1962 123.489 56.0328C123.625 55.8694 123.817 55.7423 124.062 55.6606C124.308 55.5698 124.6 55.5335 124.927 55.5335C125.282 55.5335 125.583 55.5789 125.82 55.6697C126.056 55.7604 126.248 55.8966 126.375 56.0782C126.503 56.2598 126.566 56.4867 126.566 56.75V58.484C126.566 58.5748 126.594 58.6383 126.639 58.6746C126.694 58.72 126.748 58.7382 126.812 58.7382H127.049V59.4009C127.003 59.4282 126.921 59.4463 126.821 59.4736C126.721 59.5008 126.594 59.5099 126.448 59.5099C126.302 59.5099 126.184 59.4917 126.075 59.4463C125.965 59.4009 125.874 59.3465 125.801 59.2738C125.729 59.2012 125.674 59.1104 125.647 59.0015H125.592C125.51 59.1013 125.41 59.1921 125.292 59.2738C125.173 59.3555 125.037 59.41 124.873 59.4554C124.718 59.5008 124.536 59.519 124.326 59.519L124.336 59.528ZM124.682 58.7654C124.818 58.7654 124.937 58.7473 125.046 58.7019C125.155 58.6565 125.246 58.602 125.319 58.5385C125.392 58.4658 125.446 58.3841 125.492 58.2843C125.537 58.1844 125.556 58.0755 125.556 57.9574V57.7486C125.282 57.7486 125.037 57.7668 124.827 57.8031C124.618 57.8394 124.445 57.903 124.317 57.9847C124.19 58.0664 124.135 58.1935 124.135 58.3478C124.135 58.4386 124.153 58.5112 124.199 58.5748C124.245 58.6383 124.308 58.6837 124.39 58.72C124.472 58.7564 124.572 58.7745 124.691 58.7745L124.682 58.7654Z" fill="#B7202E"/>
<path d="M127.558 59.4371V55.615H128.395L128.477 56.1416H128.532C128.623 56.0145 128.723 55.9055 128.85 55.8148C128.978 55.724 129.115 55.6513 129.269 55.6059C129.424 55.5606 129.597 55.5333 129.779 55.5333C130.034 55.5333 130.253 55.5787 130.444 55.6695C130.635 55.7603 130.781 55.9055 130.881 56.1053C130.981 56.305 131.036 56.5592 131.036 56.886V59.4462H130.025V57.0494C130.025 56.9314 130.007 56.8225 129.979 56.7408C129.952 56.6591 129.907 56.5864 129.852 56.532C129.797 56.4775 129.725 56.4321 129.643 56.4139C129.561 56.3867 129.47 56.3776 129.369 56.3776C129.215 56.3776 129.078 56.4139 128.96 56.4866C128.841 56.5592 128.741 56.6591 128.678 56.7862C128.614 56.9133 128.577 57.0585 128.577 57.2219V59.4552H127.567L127.558 59.4371Z" fill="#B7202E"/>
<path d="M133.295 59.528C132.976 59.528 132.703 59.4554 132.475 59.3101C132.248 59.1649 132.066 58.947 131.938 58.6565C131.811 58.3569 131.747 57.9847 131.747 57.5217C131.747 57.0587 131.811 56.6865 131.938 56.3869C132.066 56.0963 132.248 55.8785 132.466 55.7332C132.694 55.597 132.958 55.5244 133.249 55.5244C133.413 55.5244 133.568 55.5426 133.714 55.5789C133.859 55.6152 133.987 55.6697 134.096 55.7514C134.205 55.8331 134.296 55.9239 134.378 56.0328H134.424V54.1808H135.435V59.4372H134.606L134.524 58.9198H134.469C134.342 59.1195 134.178 59.2738 133.978 59.3737C133.777 59.4736 133.541 59.519 133.295 59.519V59.528ZM133.623 58.6928C133.814 58.6928 133.969 58.6474 134.087 58.5657C134.205 58.4749 134.296 58.3569 134.351 58.1844C134.406 58.021 134.442 57.8213 134.442 57.5943V57.4672C134.442 57.2947 134.424 57.1404 134.397 57.0042C134.369 56.868 134.315 56.75 134.251 56.6501C134.187 56.5503 134.096 56.4867 133.996 56.4323C133.896 56.3778 133.768 56.3596 133.632 56.3596C133.431 56.3596 133.268 56.3959 133.14 56.4776C133.022 56.5594 132.931 56.6774 132.876 56.8408C132.821 57.0042 132.794 57.2039 132.794 57.449V57.6125C132.794 57.8576 132.821 58.0573 132.876 58.2116C132.931 58.366 133.013 58.4931 133.14 58.5748C133.258 58.6565 133.422 58.6928 133.632 58.6928H133.623Z" fill="#B7202E"/>
<path d="M139.839 59.5279C139.547 59.5279 139.274 59.5007 139.01 59.4371C138.746 59.3736 138.519 59.2828 138.318 59.1557C138.118 59.0286 137.954 58.8652 137.845 58.6654C137.726 58.4657 137.672 58.2297 137.672 57.9482V57.8756C137.672 57.8756 137.672 57.8302 137.672 57.8121H138.746C138.746 57.8121 138.746 57.8484 138.746 57.8665V57.9301C138.746 58.0844 138.792 58.2206 138.874 58.3205C138.956 58.4294 139.083 58.5111 139.247 58.5565C139.411 58.611 139.602 58.6382 139.821 58.6382C139.957 58.6382 140.085 58.6382 140.194 58.611C140.303 58.5928 140.403 58.5656 140.485 58.5383C140.567 58.5111 140.64 58.4657 140.695 58.4294C140.749 58.384 140.795 58.3386 140.822 58.2751C140.849 58.2206 140.859 58.148 140.859 58.0753C140.859 57.9482 140.813 57.8393 140.731 57.7576C140.649 57.6759 140.531 57.6033 140.385 57.5488C140.239 57.4943 140.066 57.4398 139.884 57.3854C139.702 57.34 139.511 57.2855 139.32 57.2401C139.129 57.1856 138.937 57.1221 138.755 57.0495C138.573 56.9768 138.409 56.8861 138.264 56.7771C138.118 56.6682 138 56.532 137.918 56.3686C137.836 56.2052 137.79 56.0054 137.79 55.7694C137.79 55.5243 137.845 55.3064 137.945 55.1339C138.045 54.9523 138.2 54.8071 138.382 54.689C138.573 54.571 138.792 54.4893 139.038 54.4348C139.283 54.3804 139.557 54.3531 139.848 54.3531C140.121 54.3531 140.376 54.3804 140.622 54.4348C140.868 54.4893 141.077 54.5801 141.259 54.6981C141.441 54.8161 141.587 54.9705 141.696 55.1521C141.796 55.3336 141.851 55.5515 141.851 55.8057V55.8965H140.795V55.842C140.795 55.7149 140.758 55.5969 140.676 55.5061C140.595 55.4153 140.485 55.3427 140.349 55.2882C140.212 55.2338 140.039 55.2065 139.857 55.2065C139.657 55.2065 139.475 55.2247 139.338 55.261C139.201 55.2973 139.083 55.3609 139.01 55.4335C138.937 55.5061 138.901 55.5969 138.901 55.6968C138.901 55.8148 138.947 55.9056 139.028 55.9873C139.11 56.069 139.229 56.1235 139.374 56.187C139.52 56.2415 139.693 56.2959 139.875 56.3323C140.057 56.3777 140.249 56.423 140.44 56.4775C140.631 56.532 140.822 56.5955 141.004 56.6682C141.186 56.7408 141.35 56.8316 141.496 56.9405C141.642 57.0495 141.76 57.1856 141.842 57.34C141.933 57.5034 141.969 57.694 141.969 57.9119C141.969 58.2932 141.878 58.6019 141.696 58.8379C141.514 59.074 141.259 59.2374 140.941 59.3463C140.622 59.4553 140.249 59.5097 139.839 59.5097V59.5279Z" fill="#B7202E"/>
<path d="M143.9 59.5283C143.655 59.5283 143.463 59.4829 143.309 59.4012C143.154 59.3104 143.045 59.1924 142.981 59.0471C142.917 58.9018 142.881 58.7384 142.881 58.5569V56.3962H142.407V55.6154H142.917L143.108 54.526H143.891V55.6154H144.592V56.3962H143.891V58.3844C143.891 58.5024 143.919 58.5932 143.973 58.6476C144.028 58.7112 144.11 58.7384 144.237 58.7384H144.592V59.4102C144.538 59.4284 144.465 59.4466 144.392 59.4647C144.319 59.4829 144.228 59.4919 144.146 59.5101C144.055 59.5192 143.982 59.5283 143.91 59.5283H143.9Z" fill="#B7202E"/>
<path d="M146.258 59.5279C146.131 59.5279 145.994 59.5097 145.858 59.4825C145.721 59.4552 145.576 59.4008 145.457 59.3281C145.33 59.2555 145.23 59.1466 145.148 59.0013C145.066 58.8561 145.029 58.6745 145.029 58.4566C145.029 58.1933 145.084 57.9664 145.202 57.7939C145.321 57.6214 145.485 57.4852 145.703 57.3853C145.922 57.2855 146.177 57.2128 146.477 57.1765C146.777 57.1402 147.114 57.1221 147.478 57.1221V56.8406C147.478 56.7317 147.46 56.6318 147.424 56.5501C147.387 56.4684 147.324 56.4049 147.233 56.3504C147.142 56.2959 147.014 56.2778 146.859 56.2778C146.705 56.2778 146.568 56.2959 146.468 56.3322C146.368 56.3685 146.295 56.423 146.258 56.4775C146.213 56.541 146.195 56.6046 146.195 56.6772V56.768H145.211C145.211 56.768 145.211 56.7226 145.211 56.6954V56.6137C145.211 56.3867 145.275 56.1961 145.412 56.0326C145.548 55.8692 145.739 55.7421 145.985 55.6604C146.231 55.5696 146.522 55.5333 146.85 55.5333C147.205 55.5333 147.506 55.5787 147.743 55.6695C147.979 55.7603 148.17 55.8965 148.298 56.078C148.425 56.2596 148.489 56.4866 148.489 56.7498V58.4838C148.489 58.5746 148.516 58.6382 148.562 58.6745C148.617 58.7199 148.671 58.738 148.735 58.738H148.972V59.4008C148.926 59.428 148.844 59.4462 148.744 59.4734C148.644 59.5006 148.516 59.5097 148.371 59.5097C148.225 59.5097 148.107 59.4916 147.997 59.4462C147.888 59.4008 147.797 59.3463 147.724 59.2737C147.651 59.201 147.597 59.1103 147.57 59.0013H147.515C147.433 59.1012 147.333 59.192 147.214 59.2737C147.096 59.3554 146.96 59.4098 146.796 59.4552C146.641 59.5006 146.459 59.5188 146.249 59.5188L146.258 59.5279ZM146.604 58.7653C146.741 58.7653 146.859 58.7471 146.969 58.7017C147.078 58.6563 147.169 58.6019 147.242 58.5383C147.315 58.4657 147.369 58.384 147.415 58.2841C147.46 58.1842 147.478 58.0753 147.478 57.9573V57.7485C147.205 57.7485 146.96 57.7666 146.75 57.8029C146.541 57.8393 146.368 57.9028 146.24 57.9845C146.113 58.0662 146.058 58.1933 146.058 58.3477C146.058 58.4384 146.076 58.5111 146.122 58.5746C146.167 58.6382 146.231 58.6836 146.313 58.7199C146.395 58.7562 146.495 58.7744 146.614 58.7744L146.604 58.7653Z" fill="#B7202E"/>
<path d="M149.472 59.4371V55.615H150.309L150.391 56.1416H150.446C150.537 56.0145 150.637 55.9055 150.765 55.8148C150.892 55.724 151.029 55.6513 151.183 55.6059C151.338 55.5606 151.511 55.5333 151.693 55.5333C151.948 55.5333 152.167 55.5787 152.358 55.6695C152.549 55.7603 152.695 55.9055 152.795 56.1053C152.895 56.305 152.95 56.5592 152.95 56.886V59.4462H151.939V57.0494C151.939 56.9314 151.921 56.8225 151.894 56.7408C151.866 56.6591 151.821 56.5864 151.766 56.532C151.711 56.4775 151.639 56.4321 151.557 56.4139C151.475 56.3867 151.384 56.3776 151.284 56.3776C151.129 56.3776 150.992 56.4139 150.874 56.4866C150.755 56.5592 150.655 56.6591 150.592 56.7862C150.528 56.9133 150.491 57.0585 150.491 57.2219V59.4552H149.481L149.472 59.4371Z" fill="#B7202E"/>
<path d="M155.218 59.528C154.899 59.528 154.626 59.4554 154.398 59.3101C154.171 59.1649 153.989 58.947 153.861 58.6565C153.734 58.3569 153.67 57.9847 153.67 57.5217C153.67 57.0587 153.734 56.6865 153.861 56.3869C153.989 56.0963 154.171 55.8785 154.389 55.7332C154.617 55.597 154.881 55.5244 155.172 55.5244C155.336 55.5244 155.491 55.5426 155.637 55.5789C155.782 55.6152 155.91 55.6697 156.019 55.7514C156.128 55.8331 156.219 55.9239 156.301 56.0328H156.347V54.1808H157.357V59.4372H156.529L156.447 58.9198H156.392C156.265 59.1195 156.101 59.2738 155.901 59.3737C155.7 59.4736 155.464 59.519 155.218 59.519V59.528ZM155.536 58.6928C155.728 58.6928 155.882 58.6474 156.001 58.5657C156.119 58.4749 156.21 58.3569 156.265 58.1844C156.319 58.021 156.356 57.8213 156.356 57.5943V57.4672C156.356 57.2947 156.338 57.1404 156.31 57.0042C156.283 56.868 156.228 56.75 156.165 56.6501C156.101 56.5503 156.01 56.4867 155.91 56.4323C155.81 56.3778 155.682 56.3596 155.546 56.3596C155.345 56.3596 155.181 56.3959 155.054 56.4776C154.935 56.5594 154.844 56.6774 154.79 56.8408C154.735 57.0042 154.708 57.2039 154.708 57.449V57.6125C154.708 57.8576 154.735 58.0573 154.79 58.2116C154.844 58.366 154.926 58.4931 155.054 58.5748C155.172 58.6565 155.336 58.6928 155.546 58.6928H155.536Z" fill="#B7202E"/>
<path d="M159.306 59.528C159.179 59.528 159.042 59.5099 158.906 59.4826C158.769 59.4554 158.623 59.4009 158.505 59.3283C158.378 59.2557 158.277 59.1467 158.196 59.0015C158.114 58.8562 158.077 58.6746 158.077 58.4568C158.077 58.1935 158.132 57.9665 158.25 57.794C158.369 57.6215 158.532 57.4854 158.751 57.3855C158.969 57.2856 159.224 57.213 159.525 57.1767C159.825 57.1404 160.162 57.1222 160.526 57.1222V56.8408C160.526 56.7318 160.508 56.632 160.472 56.5503C160.435 56.4686 160.372 56.405 160.281 56.3505C160.189 56.2961 160.062 56.2779 159.907 56.2779C159.752 56.2779 159.616 56.2961 159.516 56.3324C159.416 56.3687 159.343 56.4232 159.306 56.4776C159.261 56.5412 159.243 56.6047 159.243 56.6774V56.7682H158.259C158.259 56.7682 158.259 56.7228 158.259 56.6955V56.6138C158.259 56.3869 158.323 56.1962 158.46 56.0328C158.596 55.8694 158.787 55.7423 159.033 55.6606C159.279 55.5698 159.57 55.5335 159.898 55.5335C160.253 55.5335 160.554 55.5789 160.79 55.6697C161.027 55.7604 161.218 55.8966 161.346 56.0782C161.473 56.2598 161.537 56.4867 161.537 56.75V58.484C161.537 58.5748 161.564 58.6383 161.61 58.6746C161.664 58.72 161.719 58.7382 161.783 58.7382H162.02V59.4009C161.974 59.4282 161.892 59.4463 161.792 59.4736C161.692 59.5008 161.564 59.5099 161.419 59.5099C161.273 59.5099 161.155 59.4917 161.045 59.4463C160.936 59.4009 160.845 59.3465 160.772 59.2738C160.699 59.2012 160.645 59.1104 160.617 59.0015H160.563C160.481 59.1013 160.381 59.1921 160.262 59.2738C160.144 59.3555 160.007 59.41 159.843 59.4554C159.689 59.5008 159.507 59.519 159.297 59.519L159.306 59.528ZM159.652 58.7654C159.789 58.7654 159.907 58.7473 160.016 58.7019C160.126 58.6565 160.217 58.602 160.29 58.5385C160.362 58.4658 160.417 58.3841 160.463 58.2843C160.508 58.1844 160.526 58.0755 160.526 57.9574V57.7486C160.253 57.7486 160.007 57.7668 159.798 57.8031C159.589 57.8394 159.416 57.903 159.288 57.9847C159.161 58.0664 159.106 58.1935 159.106 58.3478C159.106 58.4386 159.124 58.5112 159.17 58.5748C159.215 58.6383 159.279 58.6837 159.361 58.72C159.443 58.7564 159.543 58.7745 159.661 58.7745L159.652 58.7654Z" fill="#B7202E"/>
<path d="M162.521 59.4372V55.6152H163.358L163.44 56.2144H163.495C163.54 56.0873 163.604 55.9692 163.686 55.8694C163.768 55.7695 163.859 55.6787 163.977 55.6152C164.096 55.5516 164.232 55.5244 164.387 55.5244C164.469 55.5244 164.542 55.5244 164.615 55.5516C164.687 55.5789 164.733 55.588 164.769 55.597V56.514H164.46C164.305 56.514 164.178 56.5321 164.059 56.5775C163.941 56.6229 163.85 56.6865 163.768 56.7682C163.686 56.8499 163.631 56.9588 163.595 57.0859C163.558 57.213 163.54 57.3583 163.54 57.5308V59.4463H162.53L162.521 59.4372Z" fill="#B7202E"/>
<path d="M166.572 59.528C166.254 59.528 165.98 59.4554 165.753 59.3101C165.525 59.1649 165.343 58.947 165.216 58.6565C165.088 58.3569 165.024 57.9847 165.024 57.5217C165.024 57.0587 165.088 56.6865 165.216 56.3869C165.343 56.0963 165.525 55.8785 165.744 55.7332C165.971 55.597 166.235 55.5244 166.527 55.5244C166.691 55.5244 166.845 55.5426 166.991 55.5789C167.137 55.6152 167.264 55.6697 167.373 55.7514C167.483 55.8331 167.574 55.9239 167.656 56.0328H167.701V54.1808H168.712V59.4372H167.883L167.801 58.9198H167.747C167.619 59.1195 167.455 59.2738 167.255 59.3737C167.055 59.4736 166.818 59.519 166.572 59.519V59.528ZM166.9 58.6928C167.091 58.6928 167.246 58.6474 167.364 58.5657C167.483 58.4749 167.574 58.3569 167.628 58.1844C167.683 58.021 167.719 57.8213 167.719 57.5943V57.4672C167.719 57.2947 167.701 57.1404 167.674 57.0042C167.647 56.868 167.592 56.75 167.528 56.6501C167.465 56.5503 167.373 56.4867 167.273 56.4323C167.173 56.3778 167.046 56.3596 166.909 56.3596C166.709 56.3596 166.545 56.3959 166.417 56.4776C166.299 56.5594 166.208 56.6774 166.153 56.8408C166.099 57.0042 166.071 57.2039 166.071 57.449V57.6125C166.071 57.8576 166.099 58.0573 166.153 58.2116C166.208 58.366 166.29 58.4931 166.417 58.5748C166.536 58.6565 166.7 58.6928 166.909 58.6928H166.9Z" fill="#B7202E"/>
<path d="M171.206 59.528C170.942 59.528 170.697 59.5007 170.487 59.4372C170.278 59.3827 170.096 59.301 169.941 59.1921C169.786 59.0922 169.677 58.9651 169.595 58.8198C169.513 58.6746 169.477 58.5112 169.477 58.3296V58.2751C169.477 58.2751 169.477 58.2388 169.477 58.2297H170.451V58.2842C170.451 58.4022 170.496 58.5021 170.569 58.5747C170.642 58.6473 170.742 58.7018 170.86 58.7381C170.979 58.7744 171.106 58.7926 171.234 58.7926C171.352 58.7926 171.461 58.7835 171.571 58.7563C171.68 58.7381 171.771 58.6927 171.844 58.6383C171.917 58.5838 171.953 58.5021 171.953 58.4113C171.953 58.2933 171.908 58.2025 171.807 58.1389C171.716 58.0754 171.589 58.0209 171.434 57.9846C171.279 57.9483 171.115 57.9029 170.933 57.8575C170.769 57.8212 170.606 57.7758 170.442 57.7213C170.278 57.6669 170.123 57.6033 169.996 57.5216C169.859 57.4399 169.75 57.331 169.668 57.1948C169.586 57.0586 169.54 56.8952 169.54 56.6864C169.54 56.4776 169.586 56.3142 169.668 56.1689C169.759 56.0236 169.877 55.8965 170.032 55.8058C170.187 55.7059 170.369 55.6333 170.569 55.5879C170.779 55.5425 170.997 55.5153 171.234 55.5153C171.461 55.5153 171.662 55.5425 171.862 55.5879C172.053 55.6333 172.226 55.7059 172.372 55.7876C172.518 55.8784 172.636 55.9873 172.718 56.1235C172.8 56.2597 172.845 56.4049 172.845 56.5684V56.6591C172.845 56.6591 172.845 56.7045 172.845 56.7136H171.88V56.6591C171.88 56.5684 171.853 56.4957 171.798 56.4413C171.744 56.3868 171.671 56.3323 171.571 56.296C171.471 56.2597 171.352 56.2415 171.206 56.2415C171.106 56.2415 171.024 56.2415 170.942 56.2597C170.86 56.2778 170.797 56.296 170.733 56.3232C170.678 56.3505 170.633 56.3868 170.596 56.4322C170.569 56.4776 170.551 56.523 170.551 56.5774C170.551 56.6591 170.587 56.7227 170.66 56.7772C170.733 56.8316 170.824 56.8679 170.942 56.9043C171.061 56.9406 171.188 56.9769 171.325 57.0132C171.498 57.0586 171.68 57.1131 171.871 57.1585C172.062 57.2039 172.244 57.2674 172.408 57.34C172.572 57.4127 172.709 57.5307 172.809 57.6669C172.909 57.803 172.964 58.0028 172.964 58.2479C172.964 58.493 172.918 58.6746 172.827 58.838C172.736 59.0014 172.609 59.1285 172.454 59.2193C172.29 59.3192 172.108 59.3827 171.889 59.4281C171.671 59.4735 171.443 59.4916 171.197 59.4916L171.206 59.528Z" fill="#B7202E"/>
<path d="M65.3262 39.9456V15.0614H70.7435V39.9456H65.3262Z" fill="#B7202E"/>
<path d="M73.7295 39.9456L83.3351 15.0614H90.0271L99.6327 39.9456H94.0332L92.1394 35.0523H81.2136L79.3289 39.9456H73.7295ZM82.898 30.6946H90.4641C90.4641 30.6946 86.8222 21.253 86.6856 20.8989L82.9071 30.6946H82.898Z" fill="#B7202E"/>
<path d="M112.652 40.3815C108.719 40.3815 105.696 39.3375 103.574 37.2403C101.453 35.1523 100.388 31.9022 100.388 27.4991C100.388 24.5758 100.898 22.1609 101.917 20.2635C102.937 18.3661 104.412 16.9498 106.351 16.0238C108.291 15.0887 110.622 14.6257 113.335 14.6257C114.955 14.6257 116.485 14.8073 117.914 15.1704C119.344 15.5336 120.609 16.0874 121.711 16.8409C122.813 17.5944 123.678 18.5295 124.297 19.6552C124.916 20.781 125.226 22.1155 125.226 23.6589H119.735C119.735 22.9053 119.572 22.2426 119.244 21.6616C118.916 21.0806 118.461 20.5994 117.878 20.209C117.295 19.8187 116.631 19.5281 115.875 19.3375C115.119 19.1468 114.336 19.047 113.508 19.047C112.242 19.047 111.14 19.2104 110.194 19.5372C109.247 19.864 108.464 20.3634 107.845 21.0261C107.225 21.6888 106.761 22.515 106.442 23.5136C106.124 24.5032 105.969 25.6561 105.969 26.9635V28.0529C105.969 29.8686 106.233 31.3575 106.77 32.5104C107.307 33.6725 108.099 34.5349 109.174 35.1069C110.239 35.6788 111.559 35.9603 113.144 35.9603C114.455 35.9603 115.611 35.7605 116.622 35.3611C117.623 34.9616 118.415 34.3897 118.989 33.6362C119.562 32.8827 119.845 31.9657 119.845 30.8763V30.6221H112.388V26.4914H125.226V39.9457H121.657L121.183 37.2585C120.455 37.9576 119.672 38.5386 118.834 39.0016C117.996 39.4646 117.068 39.8096 116.048 40.0365C115.028 40.2635 113.89 40.3815 112.625 40.3815H112.652Z" fill="#B7202E"/>
<path d="M129.752 39.9455V15.0613H149.682V19.4825H135.206V25.0295H148.007V29.4144H135.206V35.4698H149.901V39.9274H129.752V39.9455Z" fill="#B7202E"/>
<path d="M163.576 40.3814C162.119 40.3814 160.736 40.2362 159.434 39.9456C158.122 39.6551 156.966 39.1921 155.956 38.5475C154.945 37.903 154.162 37.095 153.588 36.1145C153.015 35.134 152.732 33.9447 152.732 32.5376V32.1563C152.732 32.0201 152.742 31.9202 152.769 31.8476H158.15C158.122 31.9202 158.113 32.0201 158.113 32.1381V32.4649C158.113 33.2366 158.323 33.8903 158.751 34.4259C159.179 34.9615 159.798 35.361 160.626 35.6243C161.455 35.8875 162.411 36.0237 163.503 36.0237C164.204 36.0237 164.833 35.9783 165.379 35.8966C165.925 35.8149 166.408 35.6878 166.836 35.5335C167.264 35.3791 167.61 35.1885 167.892 34.9706C168.174 34.7527 168.374 34.4985 168.511 34.208C168.648 33.9175 168.711 33.5907 168.711 33.2275C168.711 32.5739 168.502 32.0473 168.074 31.6297C167.646 31.2212 167.063 30.8671 166.326 30.5766C165.588 30.2861 164.76 30.0228 163.831 29.7777C162.912 29.5326 161.965 29.2874 160.99 29.0332C160.016 28.7791 159.078 28.4613 158.15 28.0891C157.23 27.7169 156.402 27.2629 155.673 26.7273C154.945 26.1917 154.362 25.5199 153.925 24.6937C153.488 23.8676 153.27 22.878 153.27 21.716C153.27 20.4813 153.534 19.4191 154.053 18.5203C154.572 17.6215 155.309 16.8862 156.256 16.3052C157.203 15.7241 158.295 15.2974 159.534 15.016C160.772 14.7346 162.119 14.5984 163.567 14.5984C164.924 14.5984 166.208 14.7346 167.428 15.016C168.639 15.2974 169.704 15.7332 170.632 16.3415C171.552 16.9497 172.271 17.7123 172.799 18.6293C173.318 19.5462 173.582 20.6356 173.582 21.8975V22.3333H168.311V22.0428C168.311 21.3891 168.12 20.8353 167.728 20.3723C167.337 19.9093 166.79 19.5462 166.089 19.2829C165.388 19.0196 164.56 18.8835 163.613 18.8835C162.593 18.8835 161.728 18.9833 161.009 19.174C160.289 19.3646 159.743 19.6551 159.37 20.0273C158.997 20.3996 158.805 20.8444 158.805 21.3528C158.805 21.9338 159.015 22.415 159.443 22.7872C159.871 23.1594 160.453 23.4863 161.191 23.7677C161.928 24.0491 162.757 24.2943 163.686 24.5121C164.605 24.73 165.552 24.9751 166.526 25.2384C167.491 25.5017 168.438 25.8195 169.367 26.1826C170.287 26.5457 171.115 26.9997 171.843 27.5444C172.572 28.0891 173.155 28.7609 173.592 29.5598C174.029 30.3587 174.247 31.312 174.247 32.4286C174.247 34.3351 173.783 35.8785 172.863 37.0314C171.944 38.1935 170.678 39.0378 169.076 39.5734C167.473 40.1091 165.643 40.3723 163.585 40.3723L163.576 40.3814Z" fill="#B7202E"/>
<path d="M65.3262 70.8217L66.9924 66.6184H67.7572L69.4233 70.8217H68.7951L68.3854 69.7777H66.3368L65.9362 70.8217H65.3353H65.3262ZM66.5189 69.2874H68.1851L67.6752 67.9711C67.6752 67.9711 67.6479 67.8803 67.6206 67.8167C67.5933 67.7532 67.566 67.6805 67.5386 67.5988C67.5113 67.5171 67.484 67.4354 67.4567 67.3537C67.4294 67.272 67.4021 67.1903 67.3748 67.1268H67.3383C67.311 67.2085 67.2746 67.2992 67.2382 67.4082C67.2018 67.5171 67.1653 67.617 67.1289 67.7169C67.0925 67.8167 67.0652 67.8984 67.0379 67.9711L66.5189 69.2874Z" fill="#B7202E"/>
<path d="M69.8965 70.8217V67.5988H70.3335L70.379 68.08H70.4246C70.5065 67.9529 70.6067 67.844 70.7159 67.7623C70.8252 67.6805 70.9435 67.617 71.0801 67.5807C71.2167 67.5444 71.3533 67.5262 71.508 67.5262C71.7083 67.5262 71.8904 67.5625 72.0452 67.6261C72.2 67.6896 72.3184 67.8076 72.4094 67.962C72.5005 68.1163 72.5369 68.3251 72.5369 68.5884V70.8126H71.9997V68.661C71.9997 68.5248 71.9815 68.4159 71.9451 68.3342C71.9086 68.2525 71.8631 68.1799 71.7994 68.1345C71.7357 68.0891 71.6719 68.0528 71.5809 68.0346C71.4989 68.0165 71.4079 68.0074 71.2986 68.0074C71.1438 68.0074 71.0073 68.0437 70.8707 68.1163C70.7341 68.1889 70.6249 68.2979 70.552 68.4341C70.4792 68.5702 70.4337 68.7337 70.4337 68.9334V70.8217H69.8965Z" fill="#B7202E"/>
<path d="M74.7412 70.8217V66.6184H75.3239V70.8217H74.7412Z" fill="#B7202E"/>
<path d="M76.2705 70.8219V67.599H76.7075L76.7531 68.0802H76.7986C76.8805 67.9531 76.9807 67.8441 77.0899 67.7624C77.1992 67.6807 77.3176 67.6171 77.4541 67.5808C77.5907 67.5445 77.7273 67.5264 77.8821 67.5264C78.0824 67.5264 78.2645 67.5627 78.4192 67.6262C78.574 67.6898 78.6924 67.8078 78.7834 67.9621C78.8745 68.1165 78.9109 68.3253 78.9109 68.5886V70.8128H78.3737V68.6612C78.3737 68.525 78.3555 68.4161 78.3191 68.3343C78.2827 68.2526 78.2372 68.18 78.1734 68.1346C78.1097 68.0892 78.046 68.0529 77.9549 68.0348C77.873 68.0166 77.7819 68.0075 77.6727 68.0075C77.5179 68.0075 77.3813 68.0438 77.2447 68.1165C77.1082 68.1891 76.9989 68.298 76.9261 68.4342C76.8532 68.5704 76.8077 68.7338 76.8077 68.9335V70.8219H76.2705Z" fill="#B7202E"/>
<path d="M80.8326 70.8943C80.5686 70.8943 80.3409 70.8308 80.1497 70.7128C79.9585 70.5948 79.8129 70.4132 79.7036 70.159C79.6035 69.9048 79.5488 69.587 79.5488 69.1785C79.5488 68.77 79.6035 68.4885 79.7127 68.2434C79.822 67.9983 79.9676 67.8167 80.1588 67.6987C80.3501 67.5807 80.5686 67.5171 80.8144 67.5171C80.9601 67.5171 81.0875 67.5353 81.215 67.5625C81.3334 67.5988 81.4517 67.6442 81.5428 67.7169C81.6338 67.7895 81.7249 67.8803 81.7977 67.9892H81.8341V66.3823H82.3713V70.8126H81.9343L81.8888 70.3496H81.8432C81.734 70.5312 81.5883 70.6674 81.4153 70.7491C81.2423 70.8399 81.0511 70.8853 80.8417 70.8853L80.8326 70.8943ZM80.9601 70.4223C81.1604 70.4223 81.3334 70.3769 81.4608 70.2861C81.5883 70.1953 81.6794 70.0682 81.7431 69.8957C81.7977 69.7232 81.8341 69.5144 81.8341 69.2602V69.1603C81.8341 68.9425 81.8159 68.7518 81.7704 68.6066C81.7249 68.4522 81.6611 68.3342 81.5883 68.2434C81.5064 68.1526 81.4244 68.0891 81.3152 68.0528C81.215 68.0164 81.1057 67.9983 80.9874 67.9983C80.7871 67.9983 80.6232 68.0346 80.4957 68.1163C80.3683 68.198 80.2772 68.316 80.2135 68.4885C80.1497 68.661 80.1224 68.8789 80.1224 69.1422V69.2693C80.1224 69.5507 80.1588 69.7686 80.2226 69.9411C80.2863 70.1136 80.3865 70.2316 80.5048 70.3042C80.6232 70.3769 80.7871 70.4132 80.9692 70.4132L80.9601 70.4223Z" fill="#B7202E"/>
<path d="M84.2095 70.8943C83.8999 70.8943 83.645 70.8126 83.4629 70.6583C83.2717 70.4949 83.1807 70.2225 83.1807 69.8231V67.5988H83.7178V69.7505C83.7178 69.8866 83.7361 69.9956 83.7634 70.0773C83.7907 70.159 83.8453 70.2316 83.9091 70.277C83.9728 70.3224 84.0456 70.3587 84.1276 70.3769C84.2095 70.395 84.3006 70.4041 84.4007 70.4041C84.5555 70.4041 84.7012 70.3678 84.8286 70.2952C84.9561 70.2225 85.0654 70.1136 85.1473 69.9774C85.2292 69.8322 85.2748 69.6687 85.2748 69.4872V67.5988H85.812V70.8217H85.3749L85.3294 70.3406H85.2839C85.2019 70.4677 85.1018 70.5766 84.9925 70.6583C84.8833 70.74 84.7649 70.8036 84.6283 70.8399C84.4918 70.8762 84.3552 70.8943 84.2004 70.8943H84.2095Z" fill="#B7202E"/>
<path d="M87.7867 70.8944C87.5681 70.8944 87.3678 70.8762 87.2039 70.8308C87.0401 70.7855 86.8944 70.7219 86.7851 70.6311C86.6759 70.5494 86.5939 70.4405 86.5302 70.3225C86.4756 70.2044 86.4482 70.0683 86.4482 69.923V69.8685C86.4482 69.8685 86.4482 69.8322 86.4482 69.8231H86.9854C86.9854 69.8231 86.9854 69.8504 86.9854 69.8685V69.9048C86.9854 70.0501 87.031 70.159 87.0947 70.2408C87.1584 70.3225 87.2677 70.3769 87.3951 70.4132C87.5226 70.4496 87.6592 70.4586 87.8231 70.4586C87.9596 70.4586 88.0871 70.4405 88.1964 70.4042C88.3147 70.3678 88.4058 70.3134 88.4695 70.2408C88.5332 70.1681 88.5697 70.0773 88.5697 69.9684C88.5697 69.8322 88.5241 69.7324 88.4331 69.6597C88.342 69.5871 88.2328 69.5326 88.0871 69.4872C87.9414 69.4418 87.7958 69.4055 87.641 69.3601C87.5135 69.3238 87.3769 69.2784 87.2495 69.2421C87.122 69.1967 87.0036 69.1422 86.8944 69.0787C86.7942 69.0151 86.7032 68.9244 86.6394 68.8245C86.5757 68.7246 86.5484 68.5885 86.5484 68.4341C86.5484 68.2889 86.5757 68.1618 86.6394 68.0528C86.7032 67.9439 86.7851 67.8531 86.8944 67.7714C87.0036 67.6897 87.1402 67.6352 87.295 67.5989C87.4498 67.5626 87.6319 67.5444 87.8231 67.5444C88.0234 67.5444 88.2055 67.5626 88.3603 67.608C88.515 67.6534 88.6425 67.7169 88.7427 67.7986C88.8428 67.8803 88.9248 67.9711 88.9703 68.0801C89.0158 68.1799 89.0431 68.2979 89.0431 68.416V68.4886C89.0431 68.4886 89.0431 68.5249 89.0431 68.5431H88.515V68.4795C88.515 68.3978 88.4968 68.3161 88.4513 68.2435C88.4058 68.1708 88.3329 68.1073 88.2328 68.0619C88.1326 68.0165 87.987 67.9893 87.7958 67.9893C87.6774 67.9893 87.5772 67.9983 87.4862 68.0165C87.3951 68.0347 87.3314 68.0619 87.2677 68.0982C87.2039 68.1345 87.1675 68.1799 87.1402 68.2344C87.1129 68.2889 87.0947 68.3433 87.0947 68.4069C87.0947 68.5158 87.1311 68.5975 87.1948 68.652C87.2677 68.7065 87.3587 68.7519 87.4771 68.7882C87.5955 68.8245 87.7229 68.8699 87.8504 68.9062C87.9961 68.9425 88.1417 68.9879 88.2874 69.0333C88.4331 69.0787 88.5697 69.1332 88.6971 69.1967C88.8246 69.2603 88.9248 69.3511 88.9976 69.46C89.0704 69.5689 89.1069 69.7233 89.1069 69.9048C89.1069 70.0773 89.0704 70.2226 89.0067 70.3497C88.943 70.4768 88.8519 70.5767 88.7244 70.6584C88.597 70.7401 88.4604 70.8036 88.2965 70.8399C88.1326 70.8762 87.9596 70.8944 87.7684 70.8944H87.7867Z" fill="#B7202E"/>
<path d="M90.546 70.8945C90.3822 70.8945 90.2456 70.8672 90.1545 70.8037C90.0635 70.7401 89.9907 70.6584 89.9542 70.5495C89.9178 70.4405 89.8905 70.3316 89.8905 70.2136V68.0529H89.4717V67.599H89.8996L89.9998 66.7002H90.4277V67.599H91.0377V68.0529H90.4277V70.1319C90.4277 70.2317 90.4459 70.3134 90.4823 70.3588C90.5187 70.4042 90.5916 70.4315 90.6917 70.4315H91.0377V70.7855C91.0377 70.7855 90.9467 70.8218 90.892 70.8309C90.8374 70.84 90.7737 70.8582 90.719 70.8672C90.6644 70.8763 90.6007 70.8854 90.546 70.8854V70.8945Z" fill="#B7202E"/>
<path d="M91.6123 70.8217V67.5988H92.0493L92.0949 68.1345H92.1404C92.1768 68.0346 92.2223 67.9347 92.277 67.844C92.3316 67.7532 92.4135 67.6805 92.5137 67.617C92.6138 67.5535 92.7322 67.5262 92.8779 67.5262C92.9416 67.5262 92.9962 67.5262 93.0509 67.5444C93.1055 67.5534 93.1419 67.5625 93.1601 67.5807V68.08H92.9598C92.8232 68.08 92.7049 68.1072 92.6047 68.1526C92.5046 68.198 92.4226 68.2616 92.3589 68.3524C92.2952 68.4341 92.2496 68.543 92.2132 68.661C92.1859 68.779 92.1677 68.9062 92.1677 69.0423V70.8399H91.6305L91.6123 70.8217Z" fill="#B7202E"/>
<path d="M93.9248 71.9384C93.8246 71.9384 93.7427 71.9384 93.6699 71.9202C93.597 71.902 93.5515 71.893 93.5242 71.893V71.5026H93.7973C93.8975 71.5026 93.9885 71.4844 94.0887 71.439C94.1797 71.4027 94.2708 71.3301 94.3527 71.2302C94.4347 71.1304 94.5075 70.9942 94.5621 70.8308L93.3057 67.6079H93.8702L94.5166 69.2693C94.5439 69.351 94.5803 69.4418 94.6168 69.5507C94.6532 69.6596 94.6987 69.7777 94.7351 69.8957C94.7715 70.0137 94.808 70.1136 94.8262 70.2044H94.8626C94.8808 70.1408 94.899 70.0682 94.9263 69.9865C94.9536 69.9048 94.9809 69.8231 94.9992 69.7323C95.0174 69.6415 95.0538 69.5598 95.0811 69.4781C95.1084 69.3964 95.1266 69.3237 95.1448 69.2693L95.6911 67.6079H96.2374L95.1448 70.74C95.0811 70.9125 95.0174 71.0759 94.9445 71.2302C94.8717 71.3755 94.7897 71.5026 94.6987 71.6115C94.6077 71.7205 94.4984 71.8022 94.3709 71.8567C94.2435 71.9202 94.0978 71.9474 93.9248 71.9474V71.9384Z" fill="#B7202E"/>
<path d="M98.1309 70.8217V66.6184H98.7136V70.8217H98.1309Z" fill="#B7202E"/>
<path d="M99.6699 70.8219V67.599H100.107L100.152 68.0802H100.198C100.28 67.9531 100.38 67.8441 100.489 67.7624C100.599 67.6807 100.717 67.6171 100.854 67.5808C100.99 67.5445 101.127 67.5264 101.281 67.5264C101.482 67.5264 101.664 67.5627 101.819 67.6262C101.973 67.6898 102.092 67.8078 102.183 67.9621C102.274 68.1165 102.31 68.3253 102.31 68.5886V70.8128H101.773V68.6612C101.773 68.525 101.755 68.4161 101.719 68.3343C101.682 68.2526 101.637 68.18 101.573 68.1346C101.509 68.0892 101.445 68.0529 101.354 68.0348C101.272 68.0166 101.181 68.0075 101.072 68.0075C100.917 68.0075 100.781 68.0438 100.644 68.1165C100.508 68.1891 100.398 68.298 100.325 68.4342C100.253 68.5704 100.207 68.7338 100.207 68.9335V70.8219H99.6699Z" fill="#B7202E"/>
<path d="M103.13 66.9906V66.3914H103.667V66.9906H103.13ZM103.13 70.8217V67.5988H103.667V70.8217H103.13Z" fill="#B7202E"/>
<path d="M105.261 70.8945C105.097 70.8945 104.96 70.8672 104.869 70.8037C104.778 70.7401 104.705 70.6584 104.669 70.5495C104.633 70.4405 104.605 70.3316 104.605 70.2136V68.0529H104.187V67.599H104.614L104.715 66.7002H105.143V67.599H105.753V68.0529H105.143V70.1319C105.143 70.2317 105.161 70.3134 105.197 70.3588C105.234 70.4042 105.306 70.4315 105.407 70.4315H105.753V70.7855C105.753 70.7855 105.662 70.8218 105.607 70.8309C105.552 70.84 105.489 70.8582 105.434 70.8672C105.379 70.8763 105.316 70.8854 105.261 70.8854V70.8945Z" fill="#B7202E"/>
<path d="M106.334 66.9908V66.3916H106.871V66.9908H106.334ZM106.334 70.8219V67.599H106.871V70.8219H106.334Z" fill="#B7202E"/>
<path d="M108.52 70.8942C108.401 70.8942 108.283 70.876 108.165 70.8488C108.046 70.8216 107.937 70.7762 107.837 70.7126C107.737 70.6491 107.655 70.5583 107.591 70.4403C107.527 70.3223 107.5 70.177 107.5 70.0045C107.5 69.7866 107.555 69.6051 107.664 69.4598C107.773 69.3145 107.919 69.2056 108.11 69.1239C108.301 69.0422 108.529 68.9877 108.793 68.9605C109.057 68.9332 109.339 68.9151 109.649 68.9151V68.5519C109.649 68.4339 109.631 68.3341 109.585 68.2433C109.549 68.1616 109.476 68.0889 109.366 68.0435C109.266 67.9982 109.112 67.9709 108.92 67.9709C108.729 67.9709 108.593 67.9982 108.483 68.0435C108.374 68.0889 108.301 68.1525 108.256 68.2251C108.21 68.2977 108.192 68.3795 108.192 68.4702V68.561H107.673C107.673 68.561 107.673 68.5247 107.673 68.4975V68.4248C107.673 68.2251 107.728 68.0617 107.837 67.9346C107.946 67.7984 108.101 67.6986 108.292 67.635C108.483 67.5715 108.711 67.5351 108.966 67.5351C109.239 67.5351 109.467 67.5715 109.649 67.6532C109.831 67.7349 109.967 67.8438 110.058 67.98C110.149 68.1253 110.195 68.2977 110.195 68.4975V70.2406C110.195 70.3223 110.213 70.3677 110.25 70.404C110.286 70.4403 110.332 70.4494 110.386 70.4494H110.623V70.8034C110.568 70.8307 110.505 70.8488 110.432 70.867C110.359 70.8851 110.286 70.8942 110.195 70.8942C110.086 70.8942 110.004 70.876 109.931 70.8307C109.858 70.7853 109.813 70.7308 109.767 70.6491C109.731 70.5765 109.703 70.4857 109.694 70.3949H109.649C109.576 70.4948 109.485 70.5855 109.366 70.6582C109.248 70.7308 109.13 70.7943 108.993 70.8307C108.857 70.867 108.702 70.8942 108.538 70.8942H108.52ZM108.656 70.4403C108.784 70.4403 108.911 70.4221 109.03 70.3767C109.148 70.3313 109.248 70.2769 109.339 70.2042C109.43 70.1316 109.503 70.0408 109.558 69.9319C109.612 69.8229 109.64 69.714 109.64 69.5869V69.3145C109.312 69.3145 109.03 69.3327 108.793 69.369C108.556 69.4053 108.383 69.4689 108.256 69.5687C108.128 69.6595 108.065 69.7957 108.065 69.9682C108.065 70.0771 108.092 70.1679 108.137 70.2406C108.183 70.3132 108.256 70.3586 108.347 70.3949C108.438 70.4312 108.538 70.4494 108.656 70.4494V70.4403Z" fill="#B7202E"/>
<path d="M111.817 70.8943C111.653 70.8943 111.516 70.8671 111.425 70.8036C111.334 70.74 111.261 70.6583 111.225 70.5494C111.188 70.4404 111.161 70.3315 111.161 70.2135V68.0528H110.742V67.5988H111.17L111.27 66.7001H111.698V67.5988H112.308V68.0528H111.698V70.1318C111.698 70.2316 111.716 70.3133 111.753 70.3587C111.789 70.4041 111.862 70.4313 111.962 70.4313H112.308V70.7854C112.308 70.7854 112.217 70.8217 112.163 70.8308C112.108 70.8399 112.044 70.858 111.99 70.8671C111.935 70.8762 111.871 70.8853 111.817 70.8853V70.8943Z" fill="#B7202E"/>
<path d="M112.881 66.9906V66.3914H113.418V66.9906H112.881ZM112.881 70.8217V67.5988H113.418V70.8217H112.881Z" fill="#B7202E"/>
<path d="M115.111 70.8217L113.909 67.5988H114.474L115.065 69.2057C115.093 69.2874 115.129 69.3782 115.166 69.4963C115.202 69.6143 115.238 69.7323 115.275 69.8503C115.311 69.9683 115.348 70.0773 115.366 70.1681H115.393C115.421 70.0773 115.457 69.9774 115.493 69.8503C115.53 69.7232 115.566 69.6143 115.603 69.4963C115.639 69.3782 115.676 69.2784 115.703 69.1967L116.286 67.5898H116.832L115.63 70.8126H115.093L115.111 70.8217Z" fill="#B7202E"/>
<path d="M118.617 70.8943C118.298 70.8943 118.025 70.8308 117.807 70.7128C117.588 70.5948 117.424 70.4041 117.306 70.159C117.197 69.9139 117.133 69.5961 117.133 69.2057C117.133 68.8154 117.187 68.4976 117.306 68.2525C117.415 68.0074 117.588 67.8258 117.807 67.6987C118.025 67.5807 118.307 67.5171 118.635 67.5171C118.936 67.5171 119.191 67.5716 119.4 67.6896C119.6 67.8076 119.755 67.9801 119.864 68.2071C119.964 68.4341 120.019 68.7246 120.019 69.0696V69.3238H117.697C117.697 69.578 117.743 69.7958 117.807 69.9593C117.87 70.1227 117.98 70.2407 118.107 70.3224C118.244 70.395 118.407 70.4313 118.617 70.4313C118.753 70.4313 118.881 70.4132 118.981 70.3769C119.081 70.3406 119.172 70.2952 119.245 70.2225C119.318 70.1499 119.373 70.0773 119.409 69.9865C119.445 69.8957 119.464 69.7958 119.473 69.696H120.001C120.001 69.8685 119.964 70.0228 119.901 70.1681C119.837 70.3133 119.746 70.4404 119.628 70.5403C119.509 70.6401 119.364 70.7219 119.191 70.7763C119.018 70.8308 118.826 70.858 118.599 70.858L118.617 70.8943ZM117.716 68.9425H119.464C119.464 68.7609 119.445 68.6156 119.4 68.4885C119.363 68.3705 119.3 68.2707 119.227 68.1889C119.154 68.1072 119.063 68.0528 118.963 68.0165C118.863 67.9801 118.744 67.962 118.626 67.962C118.435 67.962 118.28 67.9983 118.143 68.0618C118.016 68.1345 117.916 68.2343 117.843 68.3796C117.77 68.5248 117.734 68.7064 117.716 68.9334V68.9425Z" fill="#B7202E"/>
<path d="M201.18 0H200.324V80H201.18V0Z" fill="#D1AD77"/>
</g>
<defs>
<clipPath id="clip0_1823_1653">
<rect width="375" height="80" fill="white"/>
</clipPath>
</defs>
</svg>
