<svg width="75" height="55" viewBox="0 0 75 55" fill="none" xmlns="http://www.w3.org/2000/svg">
<path d="M70.8674 0H13.8575C12.1253 0 10.7226 1.41281 10.7226 3.15755V25.4902C10.1227 25.7455 9.53968 26.0434 8.97356 26.3838L7.7737 25.754C7.03858 25.371 6.13446 25.5072 5.55144 26.1029L3.9122 27.7541C3.32072 28.3498 3.18553 29.252 3.56576 30.0009L4.19104 31.201C3.48127 32.384 2.94894 33.6777 2.6194 35.0224L1.33505 35.4394C0.53233 35.6862 0 36.4267 0 37.2607V39.5927C0 40.4353 0.540779 41.1758 1.33505 41.4226L2.61095 41.8311C2.94049 43.1758 3.47282 44.461 4.18259 45.6525L3.55731 46.861C3.17708 47.6015 3.31227 48.5122 3.90375 49.0994L5.54299 50.7505C6.13446 51.3463 7.03858 51.4825 7.7737 51.0995L8.96511 50.4782C10.1396 51.1931 11.424 51.7293 12.7506 52.0612L13.1646 53.3549C13.4181 54.1549 14.1532 54.6996 14.9813 54.6911H17.3049C18.1415 54.6911 18.8766 54.1464 19.1216 53.3464L19.5272 52.0612C20.8623 51.7293 22.1382 51.1931 23.3211 50.4782L24.521 51.0995C25.2561 51.4825 26.1602 51.3463 26.7432 50.7505L28.3825 49.0994C28.9739 48.5037 29.1091 47.593 28.7289 46.8525L28.1121 45.6525C28.5261 44.9546 28.881 44.2312 29.1683 43.4737H70.8759C72.6081 43.4737 74.0023 42.0609 74.0107 40.3162V3.15755C74.0107 1.41281 72.6081 0.00851091 70.8759 0H70.8674ZM25.3575 49.1675L23.7436 48.3249C23.4056 48.1462 23 48.1717 22.6789 48.3845C21.4115 49.2356 19.9919 49.8314 18.4963 50.1292C18.1246 50.2058 17.8204 50.4782 17.7021 50.8442L17.1613 52.5804H15.1165L14.5672 50.8442C14.4489 50.4782 14.1448 50.2058 13.773 50.1292C12.2774 49.8228 10.8578 49.2356 9.59038 48.376C9.26929 48.1632 8.86371 48.1377 8.52572 48.3164L6.92028 49.159L5.48384 47.7036L6.32036 46.078C6.4978 45.7376 6.47245 45.3291 6.26121 45.0142C5.41624 43.7375 4.82477 42.3077 4.52903 40.8013C4.45298 40.4268 4.18259 40.1204 3.81925 40.0013L2.09552 39.4566V37.3969L3.81925 36.8437C4.18259 36.7246 4.45298 36.4267 4.52903 36.0437C4.83321 34.5373 5.41624 33.1074 6.26121 31.8308C6.47245 31.5074 6.48935 31.0988 6.31191 30.7584L5.47539 29.1413L6.92028 27.686L8.53417 28.5286C8.87216 28.7073 9.27774 28.6818 9.59883 28.469C10.8663 27.6179 12.2858 27.0306 13.7814 26.7242C14.1532 26.6476 14.4574 26.3753 14.5757 26.0093L15.1165 24.2731H17.1613L17.7105 26.0093C17.8288 26.3753 18.133 26.6476 18.5048 26.7242C20.0004 27.0306 21.4199 27.6179 22.6874 28.469C23.0085 28.6818 23.4141 28.7073 23.752 28.5286L25.3575 27.686L26.8024 29.1413L25.9659 30.7669C25.7884 31.1074 25.8138 31.5159 26.025 31.8393C26.87 33.1159 27.4614 34.5458 27.7572 36.0522C27.8332 36.4267 28.1036 36.7331 28.467 36.8522L30.1907 37.3969V39.4566L28.467 40.0098C28.1036 40.1289 27.8332 40.4268 27.7572 40.8098C27.453 42.3162 26.87 43.7461 26.025 45.0227C25.8138 45.3461 25.7884 45.7546 25.9659 46.0951L26.8024 47.7121L25.3575 49.159V49.1675ZM71.8983 40.3247C71.8983 40.9034 71.4336 41.363 70.8674 41.3715H31.1371C31.8384 41.0736 32.2947 40.3757 32.2947 39.6098V37.2693C32.2947 36.4267 31.7539 35.6862 30.9596 35.4394L29.6837 35.0309C29.5232 34.3841 29.3204 33.7542 29.0753 33.1415H40.5753V36.4182C40.5753 37.465 41.4203 38.3161 42.4596 38.3161H46.338C47.3773 38.3161 48.2223 37.465 48.2223 36.4182V33.1415H63.8542C64.4372 33.1415 64.902 32.6649 64.902 32.0861C64.902 31.5074 64.4288 31.0308 63.8542 31.0308H48.2223V27.7626C48.2223 26.7157 47.3773 25.8646 46.338 25.8646H42.4596C41.4203 25.8646 40.5753 26.7157 40.5753 27.7626V31.0393H28.2135L28.7373 30.0095C29.1176 29.269 28.9824 28.3583 28.3909 27.7711L26.7517 26.12C26.1602 25.5242 25.2561 25.388 24.521 25.771L23.3296 26.3923C22.1551 25.6774 20.8707 25.1412 19.5357 24.8093L19.1216 23.5156C18.8681 22.7156 18.1415 22.1794 17.3049 22.1794H14.9813C14.1448 22.1794 13.4096 22.7241 13.1646 23.5241L12.8182 24.6391V3.15755C12.8182 2.5788 13.2829 2.11922 13.849 2.1107H70.859C71.4336 2.1107 71.8898 2.5788 71.8898 3.15755V40.3247H71.8983ZM42.6624 36.1969V27.9668H46.1183V36.1969H42.6624ZM63.8457 10.8259H40.6598V7.54917C40.6598 6.50233 39.8149 5.65124 38.7756 5.65124H34.8972C33.8579 5.65124 33.0129 6.50233 33.0129 7.54917V10.8174H19.561C18.978 10.8003 18.4963 11.2599 18.4794 11.8472C18.4625 12.4344 18.9188 12.9196 19.5019 12.9366C19.5188 12.9366 19.5441 12.9366 19.561 12.9366H33.0129V16.2133C33.0129 17.2601 33.8579 18.1112 34.8972 18.1112H38.7756C39.8149 18.1112 40.6598 17.2601 40.6598 16.2133V12.9366H63.8457C64.4288 12.9536 64.9104 12.494 64.9273 11.9068C64.9442 11.3195 64.4879 10.8344 63.9049 10.8174C63.888 10.8174 63.8626 10.8174 63.8457 10.8174V10.8259ZM38.5643 15.992H35.1084V7.76195H38.5643V15.992ZM63.8457 20.9198H62.2995V17.6431C62.2995 16.5963 61.4545 15.7452 60.4152 15.7452H56.5368C55.4975 15.7452 54.6525 16.5963 54.6525 17.6431V20.9198H19.561C18.978 20.9198 18.5132 21.3964 18.5132 21.9752C18.5132 22.5539 18.9864 23.0305 19.561 23.0305H54.6525V26.3072C54.6525 27.354 55.4975 28.2051 56.5368 28.2051H60.4152C61.4545 28.2051 62.2995 27.354 62.2995 26.3072V23.0305H63.8457C64.4288 23.0305 64.8935 22.5539 64.8935 21.9752C64.8935 21.3964 64.4203 20.9198 63.8457 20.9198ZM60.2039 26.0944H56.748V17.8644H60.2039V26.0944ZM16.1473 29.5499C11.2803 29.5499 7.33432 33.5245 7.33432 38.4267C7.33432 43.329 11.2803 47.3036 16.1473 47.3036C21.0143 47.3036 24.9603 43.329 24.9603 38.4267C24.9603 33.5245 21.0143 29.5584 16.1473 29.5499ZM16.1473 45.1929C12.4379 45.1929 9.42984 42.163 9.42984 38.4267C9.42984 34.6905 12.4379 31.6606 16.1473 31.6606C19.8567 31.6606 22.8648 34.6905 22.8648 38.4267C22.8648 42.163 19.8567 45.1929 16.1473 45.1929Z" fill="#C5A26E"/>
</svg>
