<svg width="85" height="65" viewBox="0 0 85 65" fill="none" xmlns="http://www.w3.org/2000/svg">
<path d="M83.629 62.3118H77.7509V8.73896C79.5609 8.18309 80.8244 6.44259 80.8244 4.51072C80.8244 2.02299 78.8351 0 76.3889 0C73.9427 0 71.9534 2.02299 71.9534 4.51072C71.9534 5.06659 72.043 5.70447 72.3118 6.16921L61.8996 16.8492C61.1738 16.3935 60.3584 16.111 59.4534 16.111C57.0072 16.111 55.0179 18.134 55.0179 20.6218C55.0179 20.8951 55.0179 21.2688 55.1075 21.5421L46.147 25.5972C45.3315 24.4946 44.0681 23.7565 42.6165 23.7565C41.1649 23.7565 39.8118 24.4946 38.9964 25.5972L30.0358 21.7335C30.0358 21.4601 30.1254 21.2779 30.1254 20.9954C30.1254 18.5076 28.1362 16.4846 25.69 16.4846C23.2437 16.4846 21.2545 18.5076 21.2545 20.9954C21.2545 21.5512 21.3441 22.0069 21.5233 22.4716L11.4785 31.1286C10.7527 30.5727 9.75806 30.1171 8.76344 30.1171C6.3172 30.1171 4.32796 32.1401 4.32796 34.6278C4.32796 36.6508 5.5914 38.3093 7.40143 38.856V62.2389H1.36201C0.636201 62.2389 0 62.8768 0 63.6149C0 64.353 0.636201 65 1.36201 65H83.638C84.3638 65 85 64.353 85 63.6149C85 62.8768 84.3638 62.33 83.638 62.33L83.629 62.3118ZM60.8244 24.85C62.6344 24.2941 63.8979 22.5536 63.8979 20.6218C63.8979 20.0659 63.8082 19.5191 63.629 19.0544L74.0412 8.37446C74.31 8.55671 74.6774 8.73896 75.0358 8.83008V62.4029H60.8244V24.85ZM76.3889 2.76111C77.2939 2.76111 78.1093 3.59035 78.1093 4.51072C78.1093 5.43109 77.2939 6.26034 76.3889 6.26034C75.4839 6.26034 74.6685 5.43109 74.6685 4.51072C74.6685 3.59035 75.4839 2.76111 76.3889 2.76111ZM59.4624 18.8721C60.009 18.8721 60.457 19.1455 60.8244 19.5191C60.914 19.6103 60.914 19.7014 61.0036 19.7014C61.1828 19.9748 61.2724 20.2573 61.2724 20.5306C61.2724 21.451 60.457 22.2802 59.552 22.2802C58.647 22.2802 57.8315 21.451 57.8315 20.5306C57.8315 19.6103 58.5484 18.8721 59.4534 18.8721H59.4624ZM56.4785 23.9296C56.9265 24.3853 57.4731 24.6677 58.1093 24.85V62.3118H43.9875V32.4863C45.7975 31.9305 47.0609 30.19 47.0609 28.2581L56.4785 23.9296ZM42.6255 26.5085C43.5305 26.5085 44.3459 27.3377 44.3459 28.2581C44.3459 29.1785 43.5305 30.0077 42.6255 30.0077C41.7204 30.0077 40.905 29.1785 40.905 28.2581C40.905 27.3377 41.7204 26.5085 42.6255 26.5085ZM38.19 28.2581C38.19 30.2811 39.4534 31.9396 41.2634 32.4863V62.3118H27.0609V25.3147C27.6971 25.1325 28.3244 24.7589 28.871 24.2121L38.19 28.2581ZM25.7079 19.3278C26.6129 19.3278 27.4283 20.157 27.4283 21.0774C27.4283 21.9978 26.6129 22.827 25.7079 22.827C24.8029 22.827 23.9875 21.9978 23.9875 21.0774C23.9875 20.157 24.8029 19.3278 25.7079 19.3278ZM8.78136 32.9511C9.68638 32.9511 10.5018 33.7803 10.5018 34.7007C10.5018 35.6211 9.68638 36.4503 8.78136 36.4503C7.87634 36.4503 7.06093 35.6211 7.06093 34.7007C7.06093 33.7803 7.87634 32.9511 8.78136 32.9511ZM10.1344 38.938C11.9444 38.3822 13.2079 36.6417 13.2079 34.7098C13.2079 34.2542 13.1183 33.8806 13.0287 33.516L23.1631 24.768C23.5215 25.0414 23.8889 25.2236 24.3369 25.415V62.4211H10.1344V38.9471V38.938Z" fill="#C5A26E"/>
</svg>
