<svg width="150" height="150" viewBox="0 0 150 150" fill="none" xmlns="http://www.w3.org/2000/svg">
<rect width="150" height="150" fill="none"/>
<path d="M99.0369 10.077L125.457 36.3071H102.862C100.76 36.3071 99.0369 34.596 99.0369 32.4884V10.077ZM26.7322 8.44938H90.8395V32.5719C90.8816 39.1033 96.1993 44.3828 102.799 44.4036H126.824V137.284C126.824 139.391 125.1 141.081 122.998 141.081H26.7322C24.6093 141.081 22.9068 139.37 22.9068 137.284V12.2472C22.9068 10.1396 24.6303 8.44938 26.7322 8.44938ZM26.6902 0.332031C20.0903 0.373766 14.7725 5.63231 14.7305 12.1846V137.388C14.7725 143.919 20.0903 149.199 26.6902 149.241H123.04C129.619 149.199 134.958 143.94 135 137.388V36.5158C135 35.3264 134.748 34.0535 133.802 33.1353L102.043 1.60493C101.244 0.811978 100.193 0.4155 99.1419 0.4155C99.1209 0.4155 26.6902 0.332031 26.6902 0.332031Z" fill="#C0A375"/>
<rect x="38.1162" y="56.5864" width="36.749" height="6.61816" fill="#C0A375"/>
<rect x="38.1162" y="79.75" width="70.1572" height="6.61816" fill="#C0A375"/>
<rect x="38.1162" y="102.913" width="70.1572" height="6.61816" fill="#C0A375"/>
</svg>
