<svg width="88" height="88" viewBox="0 0 88 88" fill="none" xmlns="http://www.w3.org/2000/svg">
<path fill-rule="evenodd" clip-rule="evenodd" d="M43.75 0C43.2 0 42.67 0.22 42.28 0.61L36.35 6.55L28.6 3.33C28.09 3.12 27.52 3.12 27.01 3.33C26.5 3.54 26.09 3.94 25.88 4.46L22.68 12.21H14.29C13.74 12.19 13.2 12.42 12.81 12.81C12.42 13.2 12.2 13.74 12.2 14.29V22.68L4.46 25.88C3.95 26.09 3.54 26.5 3.33 27.01C3.12 27.52 3.12 28.09 3.33 28.6L6.55 36.35L0.61 42.28C0.22 42.67 0 43.2 0 43.75C0 44.3 0.22 44.83 0.61 45.22L6.55 51.15L3.33 58.9C3.12 59.41 3.12 59.98 3.33 60.49C3.54 61 3.94 61.41 4.46 61.62L12.21 64.82V73.21C12.19 73.76 12.42 74.3 12.81 74.69C13.2 75.08 13.74 75.3 14.29 75.3H22.68L25.88 83.04C26.09 83.55 26.5 83.96 27.01 84.17C27.52 84.38 28.09 84.38 28.6 84.17L36.35 80.95L42.28 86.89C42.67 87.28 43.2 87.5 43.75 87.5C44.3 87.5 44.83 87.28 45.22 86.89L51.15 80.95L58.9 84.17C59.41 84.38 59.98 84.38 60.49 84.17C61 83.96 61.41 83.56 61.62 83.04L64.82 75.29H73.21C73.76 75.31 74.3 75.08 74.69 74.69C75.08 74.3 75.3 73.76 75.3 73.21V64.82L83.04 61.62C83.55 61.41 83.96 61 84.17 60.49C84.38 59.98 84.38 59.41 84.17 58.9L80.95 51.15L86.89 45.22C87.28 44.83 87.5 44.3 87.5 43.75C87.5 43.2 87.28 42.67 86.89 42.28L80.95 36.35L84.17 28.6C84.38 28.09 84.38 27.52 84.17 27.01C83.96 26.5 83.56 26.09 83.04 25.88L75.29 22.68V14.29C75.31 13.74 75.08 13.2 74.69 12.81C74.3 12.42 73.76 12.2 73.21 12.2H64.82L61.62 4.46C61.41 3.95 61 3.54 60.49 3.33C59.98 3.12 59.41 3.12 58.9 3.33L51.15 6.55L45.22 0.61C44.83 0.22 44.3 0 43.75 0ZM43.75 5.04L49.18 10.49C49.78 11.09 50.68 11.27 51.46 10.94L58.57 7.98L61.5 15.1C61.82 15.88 62.58 16.39 63.43 16.39H71.13L71.12 24.08C71.12 24.92 71.63 25.69 72.41 26.01L79.53 28.94L76.57 36.05C76.25 36.83 76.43 37.73 77.02 38.33L82.47 43.76L77.02 49.19C76.42 49.79 76.24 50.69 76.57 51.47L79.53 58.58L72.41 61.51C71.63 61.83 71.12 62.59 71.12 63.44V71.14L63.43 71.13C62.59 71.13 61.82 71.64 61.5 72.42L58.57 79.54L51.46 76.58C50.68 76.26 49.78 76.44 49.18 77.03L43.75 82.48L38.32 77.03C37.72 76.43 36.82 76.25 36.04 76.58L28.93 79.54L26 72.42C25.68 71.64 24.92 71.13 24.07 71.13H16.37L16.38 63.44C16.38 62.6 15.87 61.83 15.09 61.51L7.97 58.58L10.93 51.47C11.25 50.69 11.07 49.79 10.48 49.19L5.03 43.76L10.48 38.33C11.08 37.73 11.26 36.83 10.93 36.05L7.97 28.94L15.09 26.01C15.87 25.69 16.38 24.93 16.38 24.08V16.38L24.07 16.39C24.91 16.39 25.68 15.88 26 15.1L28.93 7.98L36.04 10.94C36.82 11.26 37.72 11.08 38.32 10.49L43.75 5.04ZM43.75 14.59C27.65 14.59 14.58 27.66 14.58 43.76C14.58 59.86 27.65 72.93 43.75 72.93C59.85 72.93 72.92 59.86 72.92 43.76C72.92 27.66 59.85 14.59 43.75 14.59ZM43.75 18.75C57.55 18.75 68.75 29.95 68.75 43.75C68.75 57.55 57.55 68.75 43.75 68.75C29.95 68.75 18.75 57.55 18.75 43.75C18.75 29.95 29.95 18.75 43.75 18.75ZM43.75 29.17C42.99 29.17 42.29 29.59 41.92 30.26L38.5 36.53L31.48 37.85C30.73 37.99 30.12 38.53 29.89 39.26C29.66 39.99 29.83 40.78 30.35 41.33L35.26 46.52L34.34 53.61C34.24 54.37 34.57 55.11 35.18 55.56C35.8 56.01 36.61 56.09 37.29 55.76L43.74 52.69L50.19 55.76C50.88 56.09 51.69 56.01 52.3 55.56C52.92 55.11 53.24 54.36 53.14 53.61L52.22 46.52L57.13 41.33C57.65 40.78 57.83 39.98 57.59 39.26C57.36 38.53 56.75 37.99 56 37.85L48.98 36.53L45.56 30.26C45.2 29.59 44.49 29.17 43.73 29.17H43.75ZM43.75 35.61L45.81 39.4C46.11 39.95 46.65 40.33 47.26 40.45L51.5 41.24L48.54 44.38C48.11 44.83 47.9 45.45 47.99 46.08L48.54 50.36L44.65 48.51C44.08 48.24 43.42 48.24 42.86 48.51L38.97 50.36L39.52 46.08C39.6 45.46 39.4 44.84 38.97 44.38L36.01 41.24L40.25 40.45C40.86 40.34 41.4 39.95 41.7 39.4L43.76 35.61H43.75Z" fill="#C0A376"/>
</svg>
