<svg width="150" height="150" viewBox="0 0 150 150" fill="none" xmlns="http://www.w3.org/2000/svg">
<rect width="150" height="150" fill="none"/>
<path d="M28.1726 101.167C24.2331 101.167 20.7861 104.601 20.7861 108.526C20.7861 112.45 24.2331 115.884 28.1726 115.884C32.112 115.884 35.559 112.45 35.559 108.526C35.559 104.601 32.112 101.167 28.1726 101.167ZM28.1726 110.978C26.6953 110.978 25.7104 109.997 25.7104 108.526C25.7104 107.054 26.6953 106.073 28.1726 106.073C29.6499 106.073 30.6347 107.054 30.6347 108.526C30.6347 109.997 29.6499 110.978 28.1726 110.978ZM113.068 101.167C109.128 101.167 105.681 104.601 105.681 108.526C105.681 112.45 109.128 115.884 113.068 115.884C117.007 115.884 120.454 112.45 120.454 108.526C120.454 104.601 117.007 101.167 113.068 101.167ZM113.068 110.978C111.59 110.978 110.606 109.997 110.606 108.526C110.606 107.054 111.59 106.073 113.068 106.073C114.545 106.073 115.53 107.054 115.53 108.526C115.53 109.997 114.545 110.978 113.068 110.978ZM118.484 40.3406L115.53 37.3973H95.8326V22.6812H1.08887V115.884H12.4148C15.3694 121.77 21.2785 125.694 28.1726 125.694C35.0666 125.694 40.9758 121.77 43.9304 115.884H97.3099C100.264 121.77 106.174 125.694 113.068 125.694C119.962 125.694 125.871 121.77 128.825 115.884H150V71.7351L118.484 40.3406ZM28.1726 120.789C21.2785 120.789 15.8618 115.393 15.8618 108.526C15.8618 101.658 21.2785 96.2621 28.1726 96.2621C35.0666 96.2621 40.4833 101.658 40.4833 108.526C40.4833 115.393 35.0666 120.789 28.1726 120.789ZM90.9083 37.3973V110.978H44.9152C45.4077 109.997 45.4077 109.507 45.4077 108.526C45.4077 106.073 44.9152 103.62 43.9304 101.167H70.0292V96.2621H40.4833V96.7526C37.5288 93.3188 33.0969 91.3567 28.1726 91.3567C18.8164 91.3567 10.9375 99.2053 10.9375 108.526C10.9375 109.507 10.9375 109.997 11.4299 110.978H6.01318V96.2621H10.9375V91.3567H6.01318V27.5865H90.9083V37.3973ZM113.068 120.789C106.174 120.789 100.757 115.393 100.757 108.526C100.757 101.658 106.174 96.2621 113.068 96.2621C119.962 96.2621 125.378 101.658 125.378 108.526C125.378 115.393 119.962 120.789 113.068 120.789ZM145.076 86.4513H135.227V91.3567H145.076V110.978H129.81C129.81 109.997 130.303 109.507 130.303 108.526C130.303 99.2053 122.424 91.3567 113.068 91.3567C103.711 91.3567 95.8326 99.2053 95.8326 108.526C95.8326 109.507 95.8326 109.997 96.325 110.978H95.8326V42.3027H105.681V81.5459H145.076V86.4513ZM145.076 76.6405H110.606V42.3027H113.56L141.629 70.2635L145.076 73.6973V76.6405Z" fill="#C0A375"/>
<rect x="19.999" y="43.7522" width="26.0004" height="4.68242" fill="#C0A375"/>
</svg>
