<svg width="230" height="49" viewBox="0 0 230 49" fill="none" xmlns="http://www.w3.org/2000/svg">
<g clip-path="url(#clip0_1175_801)">
<path d="M142.761 4.02015C142.727 3.73227 142.589 3.50879 142.346 3.3497C142.104 3.19061 141.807 3.11106 141.454 3.11106C141.197 3.11106 140.971 3.15273 140.778 3.23606C140.587 3.31939 140.437 3.43398 140.329 3.57981C140.223 3.72564 140.17 3.89136 140.17 4.07697C140.17 4.23227 140.207 4.3658 140.281 4.47754C140.357 4.58739 140.453 4.67924 140.571 4.75311C140.688 4.82508 140.811 4.88474 140.94 4.93208C141.069 4.97754 141.187 5.01447 141.295 5.04288L141.886 5.20197C142.038 5.24174 142.206 5.29667 142.392 5.36674C142.579 5.43682 142.758 5.53246 142.929 5.65368C143.101 5.77299 143.243 5.9264 143.355 6.1139C143.467 6.3014 143.523 6.53152 143.523 6.80424C143.523 7.11864 143.44 7.40273 143.275 7.65652C143.113 7.9103 142.874 8.11201 142.56 8.26163C142.247 8.41125 141.867 8.48606 141.42 8.48606C141.004 8.48606 140.643 8.41883 140.338 8.28436C140.035 8.14989 139.796 7.96239 139.622 7.72186C139.45 7.48133 139.352 7.20197 139.329 6.88379H140.057C140.076 7.10349 140.149 7.2853 140.278 7.42924C140.409 7.57129 140.574 7.67735 140.773 7.74743C140.973 7.81561 141.189 7.8497 141.42 7.8497C141.689 7.8497 141.931 7.80614 142.145 7.71902C142.359 7.63 142.528 7.5069 142.653 7.3497C142.778 7.19061 142.841 7.005 142.841 6.79288C142.841 6.5997 142.787 6.4425 142.679 6.32129C142.571 6.20008 142.429 6.10159 142.253 6.02583C142.077 5.95008 141.886 5.88379 141.682 5.82697L140.966 5.62243C140.511 5.49174 140.151 5.30519 139.886 5.06277C139.621 4.82034 139.489 4.50311 139.489 4.11106C139.489 3.7853 139.577 3.50121 139.753 3.25879C139.931 3.01447 140.169 2.82508 140.469 2.69061C140.77 2.55424 141.106 2.48606 141.477 2.48606C141.852 2.48606 142.185 2.5533 142.477 2.68777C142.769 2.82034 143 3.00216 143.17 3.23322C143.343 3.46428 143.434 3.72659 143.443 4.02015H142.761ZM147.34 6.5997V4.02015H148.011V8.38379H147.34V7.64515H147.295C147.192 7.86674 147.033 8.05519 146.817 8.21049C146.601 8.3639 146.329 8.44061 145.999 8.44061C145.726 8.44061 145.484 8.38095 145.272 8.26163C145.06 8.14042 144.893 7.9586 144.772 7.71618C144.651 7.47186 144.59 7.16409 144.59 6.79288V4.02015H145.261V6.74743C145.261 7.06561 145.35 7.3194 145.528 7.50879C145.708 7.69818 145.937 7.79288 146.215 7.79288C146.382 7.79288 146.551 7.75027 146.724 7.66504C146.898 7.57981 147.044 7.44913 147.161 7.27299C147.28 7.09686 147.34 6.87243 147.34 6.5997ZM149.239 10.0202V4.02015H149.886V4.71333H149.966C150.015 4.63758 150.083 4.54099 150.17 4.42356C150.259 4.30424 150.386 4.19818 150.551 4.10538C150.718 4.01068 150.943 3.96333 151.227 3.96333C151.595 3.96333 151.918 4.05519 152.199 4.2389C152.479 4.42261 152.698 4.68303 152.855 5.02015C153.012 5.35727 153.091 5.755 153.091 6.21333C153.091 6.67546 153.012 7.07602 152.855 7.41504C152.698 7.75216 152.48 8.01352 152.202 8.19913C151.923 8.38284 151.602 8.4747 151.239 8.4747C150.958 8.4747 150.734 8.4283 150.565 8.33549C150.397 8.2408 150.267 8.13379 150.176 8.01447C150.085 7.89326 150.015 7.79288 149.966 7.71333H149.909V10.0202H149.239ZM149.898 6.20197C149.898 6.53152 149.946 6.82224 150.042 7.07413C150.139 7.32413 150.28 7.52015 150.466 7.6622C150.651 7.80235 150.879 7.87243 151.148 7.87243C151.428 7.87243 151.662 7.79856 151.849 7.65083C152.039 7.50121 152.181 7.30046 152.275 7.04856C152.372 6.79477 152.42 6.51258 152.42 6.20197C152.42 5.89515 152.373 5.61864 152.278 5.37243C152.185 5.12432 152.044 4.9283 151.855 4.78436C151.667 4.63852 151.432 4.56561 151.148 4.56561C150.875 4.56561 150.646 4.63474 150.46 4.77299C150.274 4.90936 150.134 5.10065 150.04 5.34686C149.945 5.59118 149.898 5.87621 149.898 6.20197ZM154.114 10.0202V4.02015H154.761V4.71333H154.841C154.89 4.63758 154.958 4.54099 155.045 4.42356C155.134 4.30424 155.261 4.19818 155.426 4.10538C155.593 4.01068 155.818 3.96333 156.102 3.96333C156.47 3.96333 156.793 4.05519 157.074 4.2389C157.354 4.42261 157.573 4.68303 157.73 5.02015C157.887 5.35727 157.966 5.755 157.966 6.21333C157.966 6.67546 157.887 7.07602 157.73 7.41504C157.573 7.75216 157.355 8.01352 157.077 8.19913C156.798 8.38284 156.477 8.4747 156.114 8.4747C155.833 8.4747 155.609 8.4283 155.44 8.33549C155.272 8.2408 155.142 8.13379 155.051 8.01447C154.96 7.89326 154.89 7.79288 154.841 7.71333H154.784V10.0202H154.114ZM154.773 6.20197C154.773 6.53152 154.821 6.82224 154.917 7.07413C155.014 7.32413 155.155 7.52015 155.341 7.6622C155.526 7.80235 155.754 7.87243 156.023 7.87243C156.303 7.87243 156.537 7.79856 156.724 7.65083C156.914 7.50121 157.056 7.30046 157.15 7.04856C157.247 6.79477 157.295 6.51258 157.295 6.20197C157.295 5.89515 157.248 5.61864 157.153 5.37243C157.06 5.12432 156.919 4.9283 156.73 4.78436C156.542 4.63852 156.307 4.56561 156.023 4.56561C155.75 4.56561 155.521 4.63474 155.335 4.77299C155.149 4.90936 155.009 5.10065 154.915 5.34686C154.82 5.59118 154.773 5.87621 154.773 6.20197ZM160.761 8.4747C160.367 8.4747 160.022 8.38095 159.724 8.19345C159.429 8.00595 159.198 7.74364 159.031 7.40652C158.866 7.0694 158.784 6.67546 158.784 6.2247C158.784 5.77015 158.866 5.37337 159.031 5.03436C159.198 4.69534 159.429 4.43208 159.724 4.24458C160.022 4.05708 160.367 3.96333 160.761 3.96333C161.155 3.96333 161.5 4.05708 161.795 4.24458C162.093 4.43208 162.324 4.69534 162.489 5.03436C162.655 5.37337 162.739 5.77015 162.739 6.2247C162.739 6.67546 162.655 7.0694 162.489 7.40652C162.324 7.74364 162.093 8.00595 161.795 8.19345C161.5 8.38095 161.155 8.4747 160.761 8.4747ZM160.761 7.87243C161.06 7.87243 161.307 7.79572 161.5 7.64231C161.693 7.4889 161.836 7.2872 161.929 7.0372C162.022 6.7872 162.068 6.51636 162.068 6.2247C162.068 5.93303 162.022 5.66125 161.929 5.40936C161.836 5.15746 161.693 4.95386 161.5 4.79856C161.307 4.64326 161.06 4.56561 160.761 4.56561C160.462 4.56561 160.216 4.64326 160.023 4.79856C159.829 4.95386 159.686 5.15746 159.594 5.40936C159.501 5.66125 159.454 5.93303 159.454 6.2247C159.454 6.51636 159.501 6.7872 159.594 7.0372C159.686 7.2872 159.829 7.4889 160.023 7.64231C160.216 7.79572 160.462 7.87243 160.761 7.87243ZM163.762 8.38379V4.02015H164.41V4.67924H164.455C164.535 4.46333 164.679 4.28815 164.887 4.15368C165.095 4.01921 165.33 3.95197 165.591 3.95197C165.641 3.95197 165.702 3.95292 165.776 3.95481C165.85 3.95671 165.906 3.95955 165.944 3.96333V4.64515C165.921 4.63947 165.869 4.63095 165.788 4.61958C165.708 4.60633 165.624 4.5997 165.535 4.5997C165.323 4.5997 165.133 4.64421 164.966 4.73322C164.802 4.82034 164.671 4.94155 164.574 5.09686C164.48 5.25027 164.432 5.42546 164.432 5.62243V8.38379H163.762ZM168.91 4.02015V4.58833H166.648V4.02015H168.91ZM167.307 2.9747H167.978V7.13379C167.978 7.32318 168.005 7.46523 168.06 7.55993C168.117 7.65273 168.189 7.71523 168.276 7.74743C168.365 7.77773 168.459 7.79288 168.557 7.79288C168.631 7.79288 168.692 7.78909 168.739 7.78152C168.787 7.77205 168.824 7.76447 168.853 7.75879L168.989 8.36106C168.944 8.37811 168.88 8.39515 168.799 8.4122C168.717 8.43114 168.614 8.44061 168.489 8.44061C168.3 8.44061 168.114 8.39989 167.932 8.31845C167.752 8.23701 167.603 8.11296 167.484 7.94629C167.366 7.77962 167.307 7.5694 167.307 7.31561V2.9747ZM171.701 8.4747C171.28 8.4747 170.918 8.3819 170.613 8.19629C170.31 8.00879 170.076 7.74743 169.911 7.4122C169.748 7.07508 169.667 6.68303 169.667 6.23606C169.667 5.78909 169.748 5.39515 169.911 5.05424C170.076 4.71144 170.305 4.4444 170.599 4.25311C170.894 4.05993 171.239 3.96333 171.633 3.96333C171.86 3.96333 172.084 4.00121 172.306 4.07697C172.528 4.15273 172.729 4.27583 172.911 4.44629C173.093 4.61485 173.238 4.83833 173.346 5.11674C173.454 5.39515 173.508 5.73796 173.508 6.14515V6.42924H170.144V5.8497H172.826C172.826 5.60349 172.777 5.38379 172.678 5.19061C172.582 4.99743 172.443 4.84496 172.263 4.73322C172.085 4.62148 171.875 4.56561 171.633 4.56561C171.366 4.56561 171.135 4.63189 170.94 4.76447C170.746 4.89515 170.598 5.06561 170.493 5.27583C170.389 5.48606 170.337 5.71144 170.337 5.95197V6.33833C170.337 6.66788 170.394 6.94724 170.508 7.1764C170.623 7.40368 170.783 7.57697 170.988 7.69629C171.192 7.81371 171.43 7.87243 171.701 7.87243C171.877 7.87243 172.036 7.8478 172.178 7.79856C172.322 7.74743 172.446 7.67167 172.55 7.57129C172.654 7.46902 172.735 7.34212 172.792 7.19061L173.44 7.37243C173.371 7.59212 173.257 7.7853 173.096 7.95197C172.935 8.11674 172.736 8.24553 172.499 8.33833C172.262 8.42924 171.996 8.4747 171.701 8.4747ZM176.175 8.4747C175.812 8.4747 175.491 8.38284 175.212 8.19913C174.934 8.01352 174.716 7.75216 174.559 7.41504C174.402 7.07602 174.323 6.67546 174.323 6.21333C174.323 5.755 174.402 5.35727 174.559 5.02015C174.716 4.68303 174.935 4.42261 175.215 4.2389C175.495 4.05519 175.819 3.96333 176.187 3.96333C176.471 3.96333 176.695 4.01068 176.86 4.10538C177.027 4.19818 177.154 4.30424 177.241 4.42356C177.33 4.54099 177.399 4.63758 177.448 4.71333H177.505V2.56561H178.175V8.38379H177.528V7.71333H177.448C177.399 7.79288 177.329 7.89326 177.238 8.01447C177.147 8.13379 177.017 8.2408 176.849 8.33549C176.68 8.4283 176.456 8.4747 176.175 8.4747ZM176.266 7.87243C176.535 7.87243 176.762 7.80235 176.948 7.6622C177.134 7.52015 177.275 7.32413 177.371 7.07413C177.468 6.82224 177.516 6.53152 177.516 6.20197C177.516 5.87621 177.469 5.59118 177.374 5.34686C177.279 5.10065 177.139 4.90936 176.954 4.77299C176.768 4.63474 176.539 4.56561 176.266 4.56561C175.982 4.56561 175.745 4.63852 175.556 4.78436C175.368 4.9283 175.227 5.12432 175.133 5.37243C175.04 5.61864 174.993 5.89515 174.993 6.20197C174.993 6.51258 175.041 6.79477 175.136 7.04856C175.232 7.30046 175.374 7.50121 175.562 7.65083C175.751 7.79856 175.986 7.87243 176.266 7.87243ZM181.837 8.38379V2.56561H182.508V4.71333H182.565C182.614 4.63758 182.682 4.54099 182.769 4.42356C182.858 4.30424 182.985 4.19818 183.15 4.10538C183.316 4.01068 183.542 3.96333 183.826 3.96333C184.193 3.96333 184.517 4.05519 184.797 4.2389C185.078 4.42261 185.297 4.68303 185.454 5.02015C185.611 5.35727 185.69 5.755 185.69 6.21333C185.69 6.67546 185.611 7.07602 185.454 7.41504C185.297 7.75216 185.079 8.01352 184.8 8.19913C184.522 8.38284 184.201 8.4747 183.837 8.4747C183.557 8.4747 183.333 8.4283 183.164 8.33549C182.995 8.2408 182.866 8.13379 182.775 8.01447C182.684 7.89326 182.614 7.79288 182.565 7.71333H182.485V8.38379H181.837ZM182.496 6.20197C182.496 6.53152 182.545 6.82224 182.641 7.07413C182.738 7.32413 182.879 7.52015 183.065 7.6622C183.25 7.80235 183.477 7.87243 183.746 7.87243C184.027 7.87243 184.261 7.79856 184.448 7.65083C184.637 7.50121 184.779 7.30046 184.874 7.04856C184.971 6.79477 185.019 6.51258 185.019 6.20197C185.019 5.89515 184.972 5.61864 184.877 5.37243C184.784 5.12432 184.643 4.9283 184.454 4.78436C184.266 4.63852 184.03 4.56561 183.746 4.56561C183.474 4.56561 183.244 4.63474 183.059 4.77299C182.873 4.90936 182.733 5.10065 182.638 5.34686C182.544 5.59118 182.496 5.87621 182.496 6.20197ZM186.991 10.0202C186.877 10.0202 186.776 10.0107 186.687 9.99174C186.598 9.9747 186.536 9.95765 186.502 9.94061L186.672 9.3497C186.835 9.39136 186.979 9.40652 187.104 9.39515C187.229 9.38379 187.34 9.32792 187.437 9.22754C187.535 9.12905 187.625 8.96902 187.707 8.74743L187.832 8.40652L186.218 4.02015H186.945L188.15 7.49743H188.195L189.4 4.02015H190.127L188.275 9.02015C188.191 9.24553 188.088 9.43208 187.965 9.57981C187.842 9.72943 187.699 9.84023 187.536 9.9122C187.375 9.98417 187.193 10.0202 186.991 10.0202Z" fill="#9D8147"/>
<path d="M155.533 11.4717C146.246 11.4717 138.713 18.9674 138.713 28.2202C138.713 37.473 146.246 44.9687 155.533 44.9687C164.819 44.9687 172.353 37.4675 172.353 28.2202C172.353 18.9729 164.819 11.4717 155.533 11.4717ZM155.533 43.5285C147.039 43.5285 140.159 36.6723 140.159 28.2202C140.159 19.7681 147.039 12.9119 155.533 12.9119C164.026 12.9119 170.906 19.7625 170.906 28.2202C170.906 36.6779 164.021 43.5285 155.533 43.5285ZM155.533 15.1584C148.284 15.1584 142.415 21.0081 142.415 28.2202C142.415 35.4323 148.284 41.2821 155.533 41.2821C162.781 41.2821 168.656 35.4323 168.656 28.2202C168.656 21.0081 162.781 15.1584 155.533 15.1584ZM155.533 39.8419C149.088 39.8419 143.862 34.6371 143.862 28.2202C143.862 21.8033 149.094 16.5986 155.533 16.5986C161.971 16.5986 167.204 21.8033 167.204 28.2202C167.204 34.6371 161.977 39.8419 155.533 39.8419ZM155.538 18.8395C150.334 18.8395 146.118 23.0433 146.118 28.2258C146.118 33.4082 150.334 37.6009 155.538 37.6009C160.743 37.6009 164.953 33.4027 164.953 28.2258C164.953 23.0488 160.737 18.8395 155.538 18.8395ZM155.533 36.1607C151.132 36.1607 147.564 32.6075 147.564 28.2258C147.564 23.844 151.132 20.2852 155.533 20.2852C159.933 20.2852 163.507 23.8385 163.507 28.2258C163.507 32.6131 159.928 36.1607 155.533 36.1607Z" fill="#C4A26E"/>
<path d="M203 18.1722C204.128 17.8552 204.937 16.8488 204.937 15.6366C204.937 14.1296 203.714 12.9119 202.201 12.9119H198.097V21.2806H199.571V18.3668H201.419L203.485 21.2806H205.228L203.005 18.1722H203ZM199.576 17.0267V14.252H202.207C202.938 14.252 203.53 14.8748 203.53 15.6366C203.53 16.3984 202.938 17.0211 202.207 17.0211H199.576V17.0267Z" fill="#C4A26E"/>
<path d="M206.551 12.9119H208.025V19.9405H212.263V21.2806H206.545V12.9119H206.551Z" fill="#C4A26E"/>
<path d="M216.864 12.9119H213.598V21.2806H216.864C219.188 21.2806 221.064 19.4066 221.064 17.099C221.064 14.7913 219.182 12.9174 216.864 12.9174V12.9119ZM216.864 19.9405H215.072V14.252H216.864C218.439 14.252 219.651 15.5253 219.651 17.099C219.651 18.6726 218.439 19.9405 216.864 19.9405Z" fill="#C4A26E"/>
<path d="M196.622 24.0386H198.096V31.0672H202.335V32.4073H196.616V24.0386H196.622Z" fill="#C4A26E"/>
<path d="M190.938 23.894C188.537 23.894 186.594 25.8291 186.594 28.2202C186.594 30.6112 188.537 32.5463 190.938 32.5463C193.34 32.5463 195.283 30.6112 195.283 28.2202C195.283 25.8291 193.34 23.894 190.938 23.894ZM190.938 31.1395C189.319 31.1395 188.007 29.8328 188.007 28.2202C188.007 26.6076 189.319 25.3009 190.938 25.3009C192.558 25.3009 193.87 26.6076 193.87 28.2202C193.87 29.8328 192.558 31.1395 190.938 31.1395Z" fill="#C4A26E"/>
<path d="M192.402 12.7673C190 12.7673 188.057 14.7024 188.057 17.0935C188.057 19.4845 190 21.4196 192.402 21.4196C194.803 21.4196 196.746 19.4845 196.746 17.0935C196.746 14.7024 194.803 12.7673 192.402 12.7673ZM192.402 20.0128C190.782 20.0128 189.47 18.7061 189.47 17.0935C189.47 15.4809 190.782 14.1742 192.402 14.1742C194.021 14.1742 195.333 15.4809 195.333 17.0935C195.333 18.7061 194.021 20.0128 192.402 20.0128Z" fill="#C4A26E"/>
<path d="M189.474 35.0151C187.073 35.0151 185.13 36.9502 185.13 39.3413C185.13 41.7323 187.073 43.6674 189.474 43.6674C191.876 43.6674 193.819 41.7323 193.819 39.3413C193.819 36.9502 191.876 35.0151 189.474 35.0151ZM189.474 42.2606C187.855 42.2606 186.543 40.9539 186.543 39.3413C186.543 37.7287 187.855 36.422 189.474 36.422C191.094 36.422 192.406 37.7287 192.406 39.3413C192.406 40.9539 191.094 42.2606 189.474 42.2606Z" fill="#C4A26E"/>
<path d="M184.421 42.3996C183.634 43.1837 182.551 43.6674 181.35 43.6674C178.949 43.6674 177.005 41.7323 177.005 39.3413C177.005 36.9502 178.949 35.0151 181.35 35.0151C182.551 35.0151 183.634 35.4989 184.421 36.283L183.422 37.2783C182.891 36.75 182.16 36.422 181.35 36.422C179.731 36.422 178.418 37.7287 178.418 39.3413C178.418 40.9539 179.731 42.2606 181.35 42.2606C182.16 42.2606 182.891 41.9325 183.422 41.4043L184.421 42.3996Z" fill="#C4A26E"/>
<path d="M209.616 35.1599H211.09V43.5286H209.834L205.378 37.6121V43.5286H203.903V35.1599H205.294L209.616 40.9096V35.1599Z" fill="#C4A26E"/>
<path d="M224.282 35.1599H225.756V42.1885H229.995V43.5286H224.276V35.1599H224.282Z" fill="#C4A26E"/>
<path d="M222.711 35.1599V43.5286H221.237V35.1599H222.711Z" fill="#C4A26E"/>
<path d="M219.869 42.3996C219.082 43.1837 217.998 43.6674 216.798 43.6674C214.397 43.6674 212.453 41.7323 212.453 39.3413C212.453 36.9502 214.397 35.0151 216.798 35.0151C217.998 35.0151 219.082 35.4989 219.869 36.283L218.87 37.2783C218.339 36.75 217.608 36.422 216.798 36.422C215.178 36.422 213.866 37.7287 213.866 39.3413C213.866 40.9539 215.178 42.2606 216.798 42.2606C217.608 42.2606 218.339 41.9325 218.87 41.4043L219.869 42.3996Z" fill="#C4A26E"/>
<path d="M207.17 24.0386H203.903V32.4073H207.17C209.493 32.4073 211.37 30.5334 211.37 28.2257C211.37 25.9181 209.488 24.0441 207.17 24.0441V24.0386ZM207.17 31.0616H205.378V25.3731H207.17C208.745 25.3731 209.957 26.6465 209.957 28.2201C209.957 29.7938 208.745 31.0616 207.17 31.0616Z" fill="#C4A26E"/>
<path d="M202.34 35.1599H200.866V40.1478C200.866 41.3155 199.916 42.2608 198.744 42.2608C197.571 42.2608 196.622 41.3155 196.622 40.1478V35.1599H195.147V40.0922C195.147 42.0717 196.756 43.6732 198.744 43.6732C200.732 43.6732 202.34 42.0717 202.34 40.0922V35.1599Z" fill="#C4A26E"/>
<path d="M185.164 27.7644V31.0451C184.315 31.9849 182.97 32.5854 181.484 32.5854C178.943 32.5854 177.005 30.6169 177.005 28.2259C177.005 25.8348 179.016 23.9331 181.417 23.9331C182.618 23.9331 183.869 24.4169 184.656 25.2009L183.656 26.1963C183.126 25.668 182.227 25.3455 181.417 25.3455C179.798 25.3455 178.418 26.6189 178.418 28.2314C178.418 29.844 179.77 31.1841 181.484 31.1841C182.517 31.1841 183.299 30.8839 183.774 30.4446V29.0544H181.624V27.7755H185.164V27.7644Z" fill="#C4A26E"/>
<path d="M179.949 21.2806H178.681L175.95 12.9119H177.469L179.312 18.8561L181.233 12.9119H182.478L184.399 18.8561L186.242 12.9119H187.761L185.036 21.2806H183.763L181.858 15.4975L179.949 21.2806Z" fill="#C4A26E"/>
<path d="M18.3563 20.0184C16.5694 19.8682 14.7433 19.8682 12.9563 20.0184C12.8056 21.7978 12.8056 23.6161 12.9563 25.3955C14.7433 25.5456 16.5694 25.5456 18.3563 25.3955C18.5071 23.6161 18.5071 21.7978 18.3563 20.0184Z" fill="#C4A26E"/>
<path d="M9.71216 10.8989C12.8226 6.41148 15.6762 4.73218 15.6762 4.73218C15.6762 4.73218 18.513 6.4226 21.6011 10.8989C19.4679 12.3947 17.4464 14.4021 15.6483 16.6986C13.8501 14.3965 11.8286 12.3947 9.71216 10.8989Z" fill="#B7202E"/>
<path d="M15.6422 28.7151C17.4403 31.0116 19.4674 33.019 21.595 34.5148C18.5069 38.9966 15.6701 40.6815 15.6701 40.6815C15.6701 40.6815 12.8165 38.9966 9.70605 34.5148C11.8225 33.0246 13.8384 31.0172 15.6422 28.7151Z" fill="#B7202E"/>
<path d="M20.8855 25.7068C23.7837 25.3064 26.5368 24.5613 28.9045 23.4714C31.2555 28.3759 31.3057 31.6678 31.3057 31.6678C31.3057 31.6678 28.4131 33.2859 22.9572 33.7252C22.7171 31.1562 21.9856 28.4092 20.8799 25.7068H20.8855Z" fill="#B7202E"/>
<path d="M10.3924 25.6901C9.29225 28.387 8.56071 31.1395 8.32617 33.7252C2.88708 33.3026 0 31.6956 0 31.6956C0 31.6956 0.0390901 28.3926 2.38449 23.4714C4.74106 24.5502 7.49411 25.2898 10.3924 25.6901Z" fill="#B7202E"/>
<path d="M22.9619 11.6885C28.4178 12.1278 31.3104 13.7459 31.3104 13.7459C31.3104 13.7459 31.2602 17.0378 28.9092 21.9422C26.5414 20.8523 23.7828 20.1072 20.8901 19.7069C21.9902 17.0044 22.7274 14.2575 22.9675 11.6885H22.9619Z" fill="#B7202E"/>
<path d="M2.38449 21.9422C0.0390901 17.0155 0 13.7125 0 13.7125C0 13.7125 2.88708 12.111 8.32617 11.6829C8.56071 14.2685 9.29225 17.021 10.3924 19.7179C7.48853 20.1183 4.73547 20.8578 2.38449 21.9366V21.9422Z" fill="#B7202E"/>
<path d="M40.0674 31.5398V28.4871H40.7319V31.5398H40.0674Z" fill="#B7202E"/>
<path d="M41.3575 31.5397V29.1987H41.8713L41.9216 29.5212H41.9551C42.0109 29.4434 42.0723 29.3767 42.1505 29.3211C42.2287 29.2655 42.3125 29.221 42.4074 29.1932C42.5023 29.1654 42.6084 29.1487 42.7201 29.1487C42.8765 29.1487 43.0105 29.1765 43.1278 29.2321C43.245 29.2877 43.3344 29.3767 43.3958 29.499C43.4572 29.6213 43.4907 29.777 43.4907 29.9772V31.5453H42.8709V30.0773C42.8709 30.005 42.8597 29.9383 42.843 29.8882C42.8262 29.8382 42.7983 29.7937 42.7648 29.7603C42.7313 29.727 42.6866 29.6992 42.6363 29.6881C42.5861 29.6714 42.5302 29.6658 42.4688 29.6658C42.3739 29.6658 42.2957 29.6881 42.2175 29.7325C42.1449 29.777 42.0835 29.8382 42.0444 29.916C42.0053 29.9939 41.983 30.0829 41.983 30.183V31.5509H41.3631L41.3575 31.5397Z" fill="#B7202E"/>
<path d="M44.8807 31.5899C44.6853 31.5899 44.5177 31.5454 44.3781 31.4564C44.2385 31.3675 44.1268 31.234 44.0487 31.0561C43.9705 30.8726 43.9314 30.6446 43.9314 30.361C43.9314 30.0774 43.9705 29.8494 44.0487 29.6659C44.1268 29.488 44.2385 29.3545 44.3726 29.2656C44.5066 29.1766 44.6685 29.1377 44.8528 29.1377C44.9533 29.1377 45.0483 29.1488 45.1376 29.171C45.227 29.1933 45.3051 29.2266 45.3721 29.2767C45.4392 29.3267 45.495 29.3823 45.5453 29.4491H45.5732V28.3147H46.193V31.5343H45.6849L45.6346 31.2173H45.6011C45.5229 31.3397 45.4224 31.4342 45.2995 31.4954C45.1767 31.5565 45.0315 31.5843 44.8807 31.5843V31.5899ZM45.0818 31.0839C45.199 31.0839 45.294 31.0561 45.3666 31.006C45.4392 30.9504 45.495 30.8781 45.5285 30.7725C45.562 30.6724 45.5843 30.5501 45.5843 30.411V30.3332C45.5843 30.2275 45.5732 30.133 45.5564 30.0496C45.5397 29.9662 45.5062 29.8939 45.4671 29.8327C45.428 29.7771 45.3721 29.7327 45.3107 29.6993C45.2493 29.6659 45.1711 29.6548 45.0873 29.6548C44.9645 29.6548 44.864 29.677 44.7858 29.7271C44.7132 29.7771 44.6574 29.8494 44.6239 29.9495C44.5903 30.0496 44.5736 30.1719 44.5736 30.3221V30.4222C44.5736 30.5723 44.5903 30.6946 44.6239 30.7892C44.6574 30.8893 44.7076 30.9615 44.7858 31.0116C44.8584 31.0616 44.9589 31.0839 45.0873 31.0839H45.0818Z" fill="#B7202E"/>
<path d="M46.7689 28.8541V28.3203H47.3888V28.8541H46.7689ZM46.7689 31.5399V29.1989H47.3888V31.5399H46.7689Z" fill="#B7202E"/>
<path d="M48.5832 31.59C48.505 31.59 48.4213 31.5789 48.3375 31.5622C48.2537 31.5455 48.1644 31.5121 48.0918 31.4676C48.0136 31.4232 47.9522 31.3564 47.9019 31.2675C47.8517 31.1785 47.8293 31.0673 47.8293 30.9338C47.8293 30.7726 47.8628 30.6336 47.9354 30.5279C48.008 30.4222 48.1086 30.3388 48.2426 30.2777C48.3766 30.2165 48.533 30.172 48.7172 30.1498C48.9015 30.1275 49.1081 30.1164 49.3315 30.1164V29.944C49.3315 29.8773 49.3203 29.8161 49.298 29.7661C49.2757 29.7161 49.2366 29.6771 49.1807 29.6438C49.1249 29.616 49.0467 29.5993 48.9518 29.5993C48.8569 29.5993 48.7731 29.6104 48.7117 29.6326C48.6502 29.6549 48.6056 29.6882 48.5832 29.7216C48.5553 29.7605 48.5441 29.7995 48.5441 29.8439V29.8996H47.941C47.941 29.8996 47.941 29.8717 47.941 29.8551V29.805C47.941 29.666 47.9801 29.5492 48.0639 29.4491C48.1476 29.3491 48.2649 29.2712 48.4157 29.2212C48.5665 29.1656 48.7452 29.1433 48.9462 29.1433C49.164 29.1433 49.3483 29.1711 49.4935 29.2267C49.6387 29.2823 49.7559 29.3657 49.8341 29.4769C49.9123 29.5882 49.9514 29.7272 49.9514 29.8884V30.9505C49.9514 31.0061 49.9681 31.045 49.996 31.0673C50.0296 31.0951 50.0631 31.1062 50.1022 31.1062H50.2473V31.5121C50.2194 31.5288 50.1692 31.5399 50.1077 31.5566C50.0463 31.5733 49.9681 31.5789 49.8788 31.5789C49.7894 31.5789 49.7168 31.5677 49.6498 31.5399C49.5828 31.5121 49.527 31.4788 49.4823 31.4343C49.4376 31.3898 49.4041 31.3342 49.3874 31.2675H49.3539C49.3036 31.3286 49.2422 31.3842 49.1696 31.4343C49.097 31.4843 49.0132 31.5177 48.9127 31.5455C48.8178 31.5733 48.7061 31.5844 48.5776 31.5844L48.5832 31.59ZM48.7954 31.1229C48.8792 31.1229 48.9518 31.1118 49.0188 31.084C49.0858 31.0562 49.1417 31.0228 49.1863 30.9839C49.231 30.9394 49.2645 30.8893 49.2924 30.8282C49.3203 30.767 49.3315 30.7003 49.3315 30.628V30.5001C49.164 30.5001 49.0132 30.5112 48.8848 30.5335C48.7508 30.5557 48.6502 30.5946 48.5721 30.6447C48.4939 30.6947 48.4604 30.7726 48.4604 30.8671C48.4604 30.9227 48.4715 30.9672 48.4995 31.0061C48.5274 31.045 48.5665 31.0728 48.6167 31.0951C48.667 31.1173 48.7284 31.1284 48.801 31.1284L48.7954 31.1229Z" fill="#B7202E"/>
<path d="M50.5555 31.5397V29.1987H51.0693L51.1196 29.5212H51.1531C51.2089 29.4434 51.2703 29.3767 51.3485 29.3211C51.4267 29.2655 51.5105 29.221 51.6054 29.1932C51.7003 29.1654 51.8064 29.1487 51.9181 29.1487C52.0745 29.1487 52.2085 29.1765 52.3258 29.2321C52.443 29.2877 52.5324 29.3767 52.5938 29.499C52.6552 29.6213 52.6887 29.777 52.6887 29.9772V31.5453H52.0689V30.0773C52.0689 30.005 52.0577 29.9383 52.041 29.8882C52.0242 29.8382 51.9963 29.7937 51.9628 29.7603C51.9293 29.727 51.8846 29.6992 51.8343 29.6881C51.7841 29.6714 51.7282 29.6658 51.6668 29.6658C51.5719 29.6658 51.4881 29.6881 51.4155 29.7325C51.3429 29.777 51.2815 29.8382 51.2424 29.916C51.2033 29.9939 51.181 30.0829 51.181 30.183V31.5509H50.5611L50.5555 31.5397Z" fill="#B7202E"/>
<path d="M53.8665 31.5398L55.0447 28.4871H55.8656L57.0439 31.5398H56.3235L56.1058 30.9393H54.7711L54.5533 31.5398H53.8665ZM54.9666 30.3999H55.9215L55.6478 29.6492C55.6367 29.6159 55.6199 29.5769 55.6032 29.5325C55.5864 29.488 55.5697 29.4379 55.5529 29.3768C55.5362 29.3212 55.5194 29.2655 55.5027 29.2099C55.4859 29.1543 55.4691 29.1043 55.458 29.0598H55.4301C55.4133 29.1154 55.3966 29.1821 55.3742 29.26C55.3519 29.3378 55.324 29.4101 55.3016 29.4768C55.2793 29.5491 55.2569 29.6047 55.2458 29.6492L54.9721 30.3999H54.9666Z" fill="#B7202E"/>
<path d="M58.3165 31.5899C58.1546 31.5899 58.0038 31.5732 57.8753 31.5343C57.7469 31.5009 57.6352 31.4508 57.5403 31.3841C57.4454 31.323 57.3784 31.2451 57.3281 31.1561C57.2778 31.0672 57.2555 30.9671 57.2555 30.8559V30.8225C57.2555 30.8225 57.2555 30.8003 57.2555 30.7947H57.853V30.8281C57.853 30.9004 57.8809 30.9615 57.9256 31.006C57.9703 31.0505 58.0317 31.0838 58.1043 31.1061C58.1769 31.1283 58.2551 31.1395 58.3333 31.1395C58.4059 31.1395 58.4729 31.1339 58.5399 31.1172C58.6069 31.1061 58.6627 31.0783 58.7074 31.0449C58.7521 31.0116 58.7744 30.9615 58.7744 30.9059C58.7744 30.8336 58.7465 30.778 58.6851 30.7391C58.6292 30.7002 58.551 30.6668 58.4561 30.6446C58.3612 30.6223 58.2607 30.5945 58.149 30.5667C58.0485 30.5445 57.9479 30.5167 57.8474 30.4833C57.7469 30.4499 57.652 30.411 57.5738 30.361C57.49 30.3109 57.423 30.2442 57.3728 30.1608C57.3225 30.0774 57.2946 29.9773 57.2946 29.8494C57.2946 29.7215 57.3225 29.6214 57.3728 29.5324C57.4286 29.4435 57.5012 29.3656 57.5961 29.31C57.6911 29.2489 57.8028 29.2044 57.9256 29.1766C58.054 29.1488 58.1881 29.1321 58.3333 29.1321C58.4729 29.1321 58.5957 29.1488 58.7186 29.1766C58.8358 29.2044 58.9419 29.2489 59.0313 29.2989C59.1206 29.3545 59.1932 29.4212 59.2435 29.5046C59.2938 29.5881 59.3217 29.677 59.3217 29.7771V29.8327C59.3217 29.8327 59.3217 29.8605 59.3217 29.8661H58.7297V29.8327C58.7297 29.7771 58.713 29.7326 58.6795 29.6993C58.646 29.6659 58.6013 29.6325 58.5399 29.6103C58.4785 29.588 58.4059 29.5769 58.3165 29.5769C58.2551 29.5769 58.2048 29.5769 58.1546 29.588C58.1043 29.5992 58.0652 29.6103 58.0261 29.627C57.9926 29.6437 57.9647 29.6659 57.9424 29.6937C57.9256 29.7215 57.9144 29.7493 57.9144 29.7827C57.9144 29.8327 57.9368 29.8716 57.9815 29.905C58.0261 29.9384 58.082 29.9606 58.1546 29.9829C58.2272 30.0051 58.3053 30.0273 58.3891 30.0496C58.4952 30.0774 58.6069 30.1107 58.7242 30.1385C58.8414 30.1664 58.9531 30.2053 59.0536 30.2498C59.1542 30.2942 59.2379 30.3665 59.2993 30.4499C59.3608 30.5334 59.3943 30.6557 59.3943 30.8058C59.3943 30.956 59.3664 31.0672 59.3105 31.1673C59.2547 31.2674 59.1765 31.3452 59.0816 31.4008C58.981 31.462 58.8694 31.5009 58.7353 31.5287C58.6013 31.5565 58.4617 31.5676 58.3109 31.5676L58.3165 31.5899Z" fill="#B7202E"/>
<path d="M60.8019 31.5899C60.6399 31.5899 60.4891 31.5732 60.3607 31.5343C60.2323 31.5009 60.1206 31.4508 60.0256 31.3841C59.9307 31.323 59.8637 31.2451 59.8134 31.1561C59.7632 31.0672 59.7408 30.9671 59.7408 30.8559V30.8225C59.7408 30.8225 59.7408 30.8003 59.7408 30.7947H60.3384V30.8281C60.3384 30.9004 60.3663 30.9615 60.411 31.006C60.4556 31.0505 60.5171 31.0838 60.5897 31.1061C60.6623 31.1283 60.7404 31.1395 60.8186 31.1395C60.8912 31.1395 60.9582 31.1339 61.0252 31.1172C61.0922 31.1061 61.1481 31.0783 61.1928 31.0449C61.2374 31.0116 61.2598 30.9615 61.2598 30.9059C61.2598 30.8336 61.2318 30.778 61.1704 30.7391C61.1146 30.7002 61.0364 30.6668 60.9415 30.6446C60.8465 30.6223 60.746 30.5945 60.6343 30.5667C60.5338 30.5445 60.4333 30.5167 60.3328 30.4833C60.2323 30.4499 60.1373 30.411 60.0591 30.361C59.9754 30.3109 59.9084 30.2442 59.8581 30.1608C59.8079 30.0774 59.7799 29.9773 59.7799 29.8494C59.7799 29.7215 59.8079 29.6214 59.8581 29.5324C59.914 29.4435 59.9865 29.3656 60.0815 29.31C60.1764 29.2489 60.2881 29.2044 60.411 29.1766C60.5394 29.1488 60.6734 29.1321 60.8186 29.1321C60.9582 29.1321 61.0811 29.1488 61.2039 29.1766C61.3212 29.2044 61.4273 29.2489 61.5166 29.2989C61.606 29.3545 61.6786 29.4212 61.7288 29.5046C61.7791 29.5881 61.807 29.677 61.807 29.7771V29.8327C61.807 29.8327 61.807 29.8605 61.807 29.8661H61.2151V29.8327C61.2151 29.7771 61.1983 29.7326 61.1648 29.6993C61.1313 29.6659 61.0867 29.6325 61.0252 29.6103C60.9638 29.588 60.8912 29.5769 60.8019 29.5769C60.7404 29.5769 60.6902 29.5769 60.6399 29.588C60.5897 29.5992 60.5506 29.6103 60.5115 29.627C60.478 29.6437 60.45 29.6659 60.4277 29.6937C60.411 29.7215 60.3998 29.7493 60.3998 29.7827C60.3998 29.8327 60.4221 29.8716 60.4668 29.905C60.5115 29.9384 60.5673 29.9606 60.6399 29.9829C60.7125 30.0051 60.7907 30.0273 60.8745 30.0496C60.9806 30.0774 61.0922 30.1107 61.2095 30.1385C61.3268 30.1664 61.4385 30.2053 61.539 30.2498C61.6395 30.2942 61.7233 30.3665 61.7847 30.4499C61.8461 30.5334 61.8796 30.6557 61.8796 30.8058C61.8796 30.956 61.8517 31.0672 61.7959 31.1673C61.74 31.2674 61.6618 31.3452 61.5669 31.4008C61.4664 31.462 61.3547 31.5009 61.2207 31.5287C61.0867 31.5565 60.9471 31.5676 60.7963 31.5676L60.8019 31.5899Z" fill="#B7202E"/>
<path d="M63.4138 31.5899C63.1569 31.5899 62.9391 31.5454 62.7604 31.4565C62.5817 31.3675 62.4477 31.234 62.3527 31.0505C62.2578 30.867 62.2131 30.6391 62.2131 30.361C62.2131 30.083 62.2578 29.8495 62.3527 29.6715C62.4477 29.4936 62.5817 29.3601 62.7604 29.2711C62.9391 29.1822 63.1569 29.1377 63.4138 29.1377C63.6706 29.1377 63.894 29.1822 64.0727 29.2711C64.2514 29.3601 64.3854 29.4936 64.4748 29.6715C64.5697 29.8495 64.6144 30.083 64.6144 30.361C64.6144 30.6391 64.5697 30.867 64.4748 31.0505C64.3798 31.234 64.2458 31.3675 64.0727 31.4565C63.894 31.5454 63.6762 31.5899 63.4138 31.5899ZM63.4138 31.1117C63.5534 31.1117 63.6595 31.0839 63.7432 31.0339C63.827 30.9838 63.8884 30.906 63.9219 30.8003C63.961 30.6947 63.9778 30.5668 63.9778 30.4166V30.311C63.9778 30.1608 63.961 30.033 63.9219 29.9273C63.8828 29.8216 63.8214 29.7438 63.7432 29.6938C63.6595 29.6437 63.5534 29.6159 63.4138 29.6159C63.2741 29.6159 63.1736 29.6437 63.0899 29.6938C63.0061 29.7438 62.9447 29.8216 62.9112 29.9273C62.8721 30.033 62.8553 30.1608 62.8553 30.311V30.4166C62.8553 30.5668 62.8721 30.6947 62.9112 30.8003C62.9503 30.906 63.0117 30.9838 63.0899 31.0339C63.1736 31.0839 63.2797 31.1117 63.4138 31.1117Z" fill="#B7202E"/>
<path d="M66.1067 31.5899C65.8554 31.5899 65.6488 31.5454 65.4756 31.4565C65.3025 31.3675 65.1741 31.234 65.0903 31.0505C65.0066 30.867 64.9563 30.6391 64.9563 30.361C64.9563 30.083 65.001 29.8495 65.0903 29.6715C65.1797 29.4936 65.3081 29.3601 65.4812 29.2711C65.6543 29.1822 65.861 29.1377 66.1122 29.1377C66.2742 29.1377 66.4194 29.1544 66.5478 29.1933C66.6763 29.2322 66.7879 29.2934 66.8829 29.3712C66.9778 29.4491 67.0504 29.5492 67.1007 29.666C67.1509 29.7827 67.1733 29.9217 67.1733 30.083H66.5534C66.5534 29.9773 66.5366 29.8884 66.5031 29.8216C66.4696 29.7549 66.4194 29.6993 66.3524 29.666C66.2854 29.6326 66.2016 29.6103 66.1011 29.6103C65.9838 29.6103 65.8833 29.6381 65.8107 29.6882C65.7381 29.7382 65.6823 29.8216 65.6432 29.9217C65.6097 30.0274 65.5873 30.1553 65.5873 30.311V30.4111C65.5873 30.5612 65.6041 30.6891 65.6432 30.7948C65.6823 30.9004 65.7381 30.9783 65.8163 31.0283C65.8945 31.0783 65.995 31.1061 66.1178 31.1061C66.2183 31.1061 66.3021 31.0895 66.3691 31.0505C66.4361 31.0172 66.4864 30.9616 66.5255 30.8893C66.559 30.817 66.5813 30.7336 66.5813 30.6335H67.1733C67.1733 30.7836 67.1509 30.9226 67.1007 31.0394C67.0504 31.1562 66.9778 31.2563 66.8885 31.3397C66.7935 31.4175 66.6818 31.4787 66.5534 31.5232C66.425 31.5621 66.2742 31.5844 66.1178 31.5844L66.1067 31.5899Z" fill="#B7202E"/>
<path d="M67.6376 28.8541V28.3203H68.2574V28.8541H67.6376ZM67.6376 31.5399V29.1989H68.2574V31.5399H67.6376Z" fill="#B7202E"/>
<path d="M69.452 31.59C69.3738 31.59 69.2901 31.5789 69.2063 31.5622C69.1225 31.5455 69.0332 31.5121 68.9606 31.4676C68.8824 31.4232 68.821 31.3564 68.7707 31.2675C68.7205 31.1785 68.6981 31.0673 68.6981 30.9338C68.6981 30.7726 68.7316 30.6336 68.8042 30.5279C68.8768 30.4222 68.9773 30.3388 69.1114 30.2777C69.2454 30.2165 69.4017 30.172 69.586 30.1498C69.7703 30.1275 69.9769 30.1164 70.2003 30.1164V29.944C70.2003 29.8773 70.1891 29.8161 70.1668 29.7661C70.1445 29.7161 70.1054 29.6771 70.0495 29.6438C69.9937 29.6104 69.9155 29.5993 69.8206 29.5993C69.7256 29.5993 69.6419 29.6104 69.5804 29.6326C69.519 29.6549 69.4743 29.6882 69.452 29.7216C69.4241 29.7605 69.4129 29.7995 69.4129 29.8439V29.8996H68.8098C68.8098 29.8996 68.8098 29.8717 68.8098 29.8551V29.805C68.8098 29.666 68.8489 29.5492 68.9327 29.4491C69.0164 29.3491 69.1337 29.2712 69.2845 29.2212C69.4352 29.1656 69.6139 29.1433 69.815 29.1433C70.0328 29.1433 70.217 29.1711 70.3622 29.2267C70.5074 29.2823 70.6247 29.3657 70.7029 29.4769C70.7811 29.5882 70.8202 29.7272 70.8202 29.8884V30.9505C70.8202 31.0061 70.8369 31.045 70.8648 31.0673C70.8983 31.0951 70.9318 31.1062 70.9709 31.1062H71.1161V31.5121C71.0882 31.5288 71.0379 31.5399 70.9765 31.5566C70.9151 31.5733 70.8369 31.5789 70.7476 31.5789C70.6582 31.5789 70.5856 31.5677 70.5186 31.5399C70.4516 31.5121 70.3957 31.4788 70.3511 31.4343C70.3064 31.3898 70.2729 31.3342 70.2561 31.2675H70.2226C70.1724 31.3286 70.1109 31.3842 70.0383 31.4343C69.9658 31.4843 69.882 31.5177 69.7815 31.5455C69.6865 31.5733 69.5749 31.5844 69.4464 31.5844L69.452 31.59ZM69.6642 31.1229C69.748 31.1229 69.8206 31.1118 69.8876 31.084C69.9546 31.0562 70.0104 31.0228 70.0551 30.9839C70.0998 30.9394 70.1333 30.8893 70.1612 30.8282C70.1891 30.767 70.2003 30.7003 70.2003 30.628V30.5001C70.0328 30.5001 69.882 30.5112 69.7536 30.5335C69.6251 30.5557 69.519 30.5946 69.4408 30.6447C69.3627 30.6947 69.3291 30.7726 69.3291 30.8671C69.3291 30.9227 69.3403 30.9672 69.3682 31.0061C69.3962 31.045 69.4352 31.0728 69.4855 31.0951C69.5358 31.1173 69.5972 31.1284 69.6698 31.1284L69.6642 31.1229Z" fill="#B7202E"/>
<path d="M72.1281 31.5898C71.9773 31.5898 71.8601 31.562 71.7651 31.5119C71.6702 31.4563 71.6032 31.384 71.5641 31.2951C71.525 31.2061 71.5027 31.106 71.5027 30.9948V29.6714H71.2123V29.1932H71.525L71.6423 28.5259H72.1225V29.1932H72.5525V29.6714H72.1225V30.8891C72.1225 30.9614 72.1393 31.017 72.1728 31.0504C72.2063 31.0893 72.2565 31.106 72.3347 31.106H72.5525V31.5175C72.519 31.5286 72.4743 31.5397 72.4297 31.5508C72.385 31.562 72.3291 31.5675 72.2789 31.5786C72.223 31.5842 72.1784 31.5898 72.1337 31.5898H72.1281Z" fill="#B7202E"/>
<path d="M72.9546 28.8541V28.3203H73.5744V28.8541H72.9546ZM72.9546 31.5399V29.1989H73.5744V31.5399H72.9546Z" fill="#B7202E"/>
<path d="M75.226 31.5899C74.9691 31.5899 74.7513 31.5454 74.5726 31.4565C74.394 31.3675 74.2599 31.234 74.165 31.0505C74.0701 30.867 74.0254 30.6391 74.0254 30.361C74.0254 30.083 74.0701 29.8495 74.165 29.6715C74.2599 29.4936 74.394 29.3601 74.5726 29.2711C74.7513 29.1822 74.9691 29.1377 75.226 29.1377C75.4829 29.1377 75.7063 29.1822 75.885 29.2711C76.0637 29.3601 76.1977 29.4936 76.287 29.6715C76.382 29.8495 76.4266 30.083 76.4266 30.361C76.4266 30.6391 76.382 30.867 76.287 31.0505C76.1921 31.234 76.0581 31.3675 75.885 31.4565C75.7063 31.5454 75.4885 31.5899 75.226 31.5899ZM75.226 31.1117C75.3656 31.1117 75.4717 31.0839 75.5555 31.0339C75.6393 30.9838 75.7007 30.906 75.7342 30.8003C75.7733 30.6947 75.79 30.5668 75.79 30.4166V30.311C75.79 30.1608 75.7733 30.033 75.7342 29.9273C75.6951 29.8216 75.6337 29.7438 75.5555 29.6938C75.4717 29.6437 75.3656 29.6159 75.226 29.6159C75.0864 29.6159 74.9859 29.6437 74.9021 29.6938C74.8184 29.7438 74.7569 29.8216 74.7234 29.9273C74.6843 30.033 74.6676 30.1608 74.6676 30.311V30.4166C74.6676 30.5668 74.6843 30.6947 74.7234 30.8003C74.7625 30.906 74.8239 30.9838 74.9021 31.0339C74.9859 31.0839 75.092 31.1117 75.226 31.1117Z" fill="#B7202E"/>
<path d="M76.89 31.5397V29.1987H77.4038L77.454 29.5212H77.4875C77.5434 29.4434 77.6048 29.3767 77.683 29.3211C77.7612 29.2655 77.8449 29.221 77.9399 29.1932C78.0348 29.1654 78.1409 29.1487 78.2526 29.1487C78.4089 29.1487 78.543 29.1765 78.6602 29.2321C78.7775 29.2877 78.8668 29.3767 78.9283 29.499C78.9897 29.6213 79.0232 29.777 79.0232 29.9772V31.5453H78.4034V30.0773C78.4034 30.005 78.3922 29.9383 78.3754 29.8882C78.3587 29.8382 78.3308 29.7937 78.2973 29.7603C78.2638 29.727 78.2191 29.6992 78.1688 29.6881C78.1186 29.6714 78.0627 29.6658 78.0013 29.6658C77.9063 29.6658 77.8226 29.6881 77.75 29.7325C77.6774 29.777 77.616 29.8382 77.5769 29.916C77.5378 29.9939 77.5155 30.0829 77.5155 30.183V31.5509H76.8956L76.89 31.5397Z" fill="#B7202E"/>
<path d="M80.5633 31.5398V29.677H80.2283V29.1988H80.5633V28.943C80.5633 28.8151 80.5857 28.7039 80.6303 28.6038C80.675 28.5037 80.742 28.4259 80.837 28.3703C80.9319 28.3147 81.0603 28.2869 81.2167 28.2869C81.2614 28.2869 81.306 28.2869 81.3563 28.298C81.4066 28.3035 81.4512 28.3147 81.5015 28.3202C81.5462 28.3314 81.5853 28.3425 81.6188 28.3536V28.7651H81.3954C81.3228 28.7651 81.2725 28.7818 81.239 28.8207C81.2055 28.854 81.1888 28.9097 81.1888 28.9764V29.2099H81.6243V29.6881H81.1888V31.5509H80.5689L80.5633 31.5398Z" fill="#B7202E"/>
<path d="M82.9664 31.5899C82.7095 31.5899 82.4917 31.5454 82.313 31.4565C82.1343 31.3675 82.0003 31.234 81.9054 31.0505C81.8104 30.867 81.7657 30.6391 81.7657 30.361C81.7657 30.083 81.8104 29.8495 81.9054 29.6715C82.0003 29.4936 82.1343 29.3601 82.313 29.2711C82.4917 29.1822 82.7095 29.1377 82.9664 29.1377C83.2233 29.1377 83.4466 29.1822 83.6253 29.2711C83.804 29.3601 83.938 29.4936 84.0274 29.6715C84.1223 29.8495 84.167 30.083 84.167 30.361C84.167 30.6391 84.1223 30.867 84.0274 31.0505C83.9325 31.234 83.7984 31.3675 83.6253 31.4565C83.4466 31.5454 83.2288 31.5899 82.9664 31.5899ZM82.9664 31.1117C83.106 31.1117 83.2121 31.0839 83.2958 31.0339C83.3796 30.9838 83.441 30.906 83.4745 30.8003C83.5136 30.6947 83.5304 30.5668 83.5304 30.4166V30.311C83.5304 30.1608 83.5136 30.033 83.4745 29.9273C83.4354 29.8216 83.374 29.7438 83.2958 29.6938C83.2121 29.6437 83.106 29.6159 82.9664 29.6159C82.8268 29.6159 82.7262 29.6437 82.6425 29.6938C82.5587 29.7438 82.4973 29.8216 82.4638 29.9273C82.4247 30.033 82.4079 30.1608 82.4079 30.311V30.4166C82.4079 30.5668 82.4247 30.6947 82.4638 30.8003C82.5029 30.906 82.5643 30.9838 82.6425 31.0339C82.7262 31.0839 82.8324 31.1117 82.9664 31.1117Z" fill="#B7202E"/>
<path d="M84.6248 31.5399V29.1989H85.1385L85.1888 29.5659H85.2223C85.2502 29.4881 85.2893 29.4158 85.3396 29.3546C85.3898 29.2934 85.4456 29.2378 85.5182 29.1989C85.5908 29.16 85.6746 29.1433 85.7695 29.1433C85.8198 29.1433 85.8645 29.1433 85.9091 29.16C85.9538 29.1767 85.9817 29.1822 86.0041 29.1878V29.7494H85.8142C85.7193 29.7494 85.6411 29.7605 85.5685 29.7883C85.4959 29.8161 85.4401 29.8551 85.3898 29.9051C85.3396 29.9552 85.306 30.0219 85.2837 30.0997C85.2614 30.1776 85.2502 30.2666 85.2502 30.3722V31.5455H84.6303L84.6248 31.5399Z" fill="#B7202E"/>
<path d="M41.5751 36.4611C41.0949 36.4611 40.7207 36.3332 40.4583 36.0774C40.1958 35.8216 40.0674 35.4213 40.0674 34.8819C40.0674 34.5205 40.1288 34.2257 40.2572 33.9922C40.3801 33.7586 40.5644 33.5863 40.8045 33.4695C41.0446 33.3527 41.3294 33.2971 41.6645 33.2971C41.8655 33.2971 42.0498 33.3194 42.2285 33.3638C42.4016 33.4083 42.558 33.4751 42.6976 33.5696C42.8316 33.6641 42.9377 33.7753 43.0159 33.9143C43.0941 34.0534 43.1276 34.2146 43.1276 34.4037H42.4519C42.4519 34.3091 42.4295 34.2313 42.3904 34.159C42.3514 34.0867 42.2955 34.0311 42.2229 33.9811C42.1503 33.931 42.0721 33.8977 41.9772 33.8754C41.8823 33.8532 41.7873 33.8421 41.6868 33.8421C41.5305 33.8421 41.3964 33.8643 41.2792 33.9032C41.1619 33.9421 41.067 34.0033 40.9888 34.0867C40.9106 34.1701 40.8548 34.2702 40.8157 34.3926C40.7766 34.5149 40.7598 34.6539 40.7598 34.8152V34.9486C40.7598 35.171 40.7933 35.3545 40.8604 35.4936C40.9274 35.6381 41.0223 35.7438 41.1563 35.8105C41.2903 35.8772 41.4523 35.9162 41.6422 35.9162C41.8041 35.9162 41.9437 35.8939 42.0666 35.8439C42.1894 35.7938 42.2843 35.7271 42.3569 35.6326C42.4295 35.538 42.463 35.4268 42.463 35.2934V35.26H41.5472V34.754H43.1276V36.4055H42.692L42.6362 36.0774C42.5468 36.1608 42.4519 36.2331 42.3458 36.2887C42.2453 36.3443 42.128 36.3888 42.0051 36.4166C41.8823 36.4444 41.7371 36.4611 41.5863 36.4611H41.5751Z" fill="#B7202E"/>
<path d="M44.7917 36.461C44.5348 36.461 44.317 36.4165 44.1383 36.3276C43.9596 36.2386 43.8256 36.1051 43.7307 35.9216C43.6357 35.7381 43.5911 35.5102 43.5911 35.2321C43.5911 34.9541 43.6357 34.7205 43.7307 34.5426C43.8256 34.3647 43.9596 34.2312 44.1383 34.1422C44.317 34.0533 44.5348 34.0088 44.7917 34.0088C45.0486 34.0088 45.2719 34.0533 45.4506 34.1422C45.6293 34.2312 45.7634 34.3647 45.8527 34.5426C45.9476 34.7205 45.9923 34.9541 45.9923 35.2321C45.9923 35.5102 45.9476 35.7381 45.8527 35.9216C45.7578 36.1051 45.6237 36.2386 45.4506 36.3276C45.2775 36.4165 45.0541 36.461 44.7917 36.461ZM44.7917 35.9772C44.9313 35.9772 45.0374 35.9494 45.1212 35.8994C45.2049 35.8493 45.2608 35.7715 45.2999 35.6658C45.3389 35.5602 45.3557 35.4323 45.3557 35.2822V35.1765C45.3557 35.0264 45.3389 34.8985 45.2999 34.7928C45.2608 34.6872 45.1993 34.6093 45.1212 34.5593C45.0374 34.5092 44.9313 34.4814 44.7917 34.4814C44.6521 34.4814 44.5516 34.5092 44.4678 34.5593C44.384 34.6093 44.3282 34.6872 44.2891 34.7928C44.25 34.8985 44.2333 35.0264 44.2333 35.1765V35.2822C44.2333 35.4323 44.25 35.5602 44.2891 35.6658C44.3282 35.7715 44.3896 35.8493 44.4678 35.8994C44.546 35.9494 44.6577 35.9772 44.7917 35.9772Z" fill="#B7202E"/>
<path d="M46.45 36.4054V33.1858H47.0698V36.4054H46.45Z" fill="#B7202E"/>
<path d="M48.4781 36.461C48.2827 36.461 48.1152 36.4165 47.9756 36.3275C47.8359 36.2386 47.7243 36.1051 47.6461 35.9272C47.5679 35.7437 47.5288 35.5157 47.5288 35.2321C47.5288 34.9485 47.5679 34.7205 47.6461 34.537C47.7243 34.3591 47.8359 34.2256 47.97 34.1367C48.1096 34.0532 48.2659 34.0088 48.4502 34.0088C48.5507 34.0088 48.6457 34.0199 48.735 34.0421C48.8244 34.0644 48.9025 34.0977 48.9696 34.1478C49.0366 34.1978 49.0924 34.2534 49.1427 34.3202H49.1706V33.1858H49.7904V36.4054H49.2823L49.232 36.0884H49.1985C49.1203 36.2108 49.0198 36.3053 48.897 36.3665C48.7741 36.4276 48.6289 36.4554 48.4781 36.4554V36.461ZM48.6736 35.9494C48.7909 35.9494 48.8858 35.9216 48.9584 35.8716C49.031 35.8215 49.0868 35.7437 49.1203 35.638C49.1538 35.5379 49.1762 35.4156 49.1762 35.2766V35.1987C49.1762 35.0931 49.165 34.9985 49.1483 34.9151C49.1315 34.8317 49.098 34.7594 49.0589 34.6983C49.0198 34.6371 48.964 34.5982 48.9025 34.5648C48.8411 34.5315 48.7629 34.5203 48.6792 34.5203C48.5563 34.5203 48.4558 34.5426 48.3776 34.5926C48.305 34.6427 48.2492 34.715 48.2157 34.815C48.1822 34.9151 48.1654 35.0375 48.1654 35.1876V35.2877C48.1654 35.4378 48.1822 35.5602 48.2157 35.6547C48.2492 35.7548 48.2994 35.8271 48.3776 35.8771C48.4502 35.9272 48.5507 35.9494 48.6792 35.9494H48.6736Z" fill="#B7202E"/>
<path d="M51.292 36.4053V33.3525H53.7435V33.8975H51.9621V34.5759H53.5369V35.1153H51.9621V35.8604H53.7714V36.4053H51.292Z" fill="#B7202E"/>
<path d="M54.0499 36.4054L54.9043 35.1876L54.1114 34.0588H54.8596L55.3064 34.765H55.3287L55.7811 34.0588H56.4847L55.6861 35.1821L56.5294 36.3998H55.7978L55.2896 35.6047H55.2673L54.7591 36.3998H54.0555L54.0499 36.4054Z" fill="#B7202E"/>
<path d="M57.7592 36.461C57.508 36.461 57.3013 36.4165 57.1282 36.3276C56.9551 36.2386 56.8267 36.1051 56.7429 35.9216C56.6591 35.7381 56.6089 35.5102 56.6089 35.2321C56.6089 34.9541 56.6536 34.7205 56.7429 34.5426C56.8323 34.3647 56.9607 34.2312 57.1338 34.1422C57.3069 34.0533 57.5135 34.0088 57.7648 34.0088C57.9268 34.0088 58.072 34.0255 58.2004 34.0644C58.3288 34.1033 58.4405 34.1645 58.5355 34.2423C58.6304 34.3202 58.703 34.4203 58.7533 34.537C58.8035 34.6538 58.8258 34.7928 58.8258 34.9541H58.206C58.206 34.8484 58.1892 34.7595 58.1557 34.6927C58.1222 34.626 58.072 34.5704 58.005 34.537C57.9379 34.5037 57.8542 34.4814 57.7537 34.4814C57.6364 34.4814 57.5359 34.5092 57.4633 34.5593C57.3907 34.6093 57.3348 34.6927 57.2958 34.7928C57.2622 34.8985 57.2399 35.0264 57.2399 35.1821V35.2822C57.2399 35.4323 57.2567 35.5602 57.2958 35.6658C57.3348 35.7715 57.3907 35.8493 57.4689 35.8994C57.547 35.9494 57.6476 35.9772 57.7704 35.9772C57.8709 35.9772 57.9547 35.9606 58.0217 35.9216C58.0887 35.8883 58.139 35.8327 58.1781 35.7604C58.2116 35.6881 58.2339 35.6047 58.2339 35.5046H58.8258C58.8258 35.6547 58.8035 35.7937 58.7533 35.9105C58.703 36.0273 58.6304 36.1274 58.541 36.2108C58.4461 36.2886 58.3344 36.3498 58.206 36.3943C58.0776 36.4332 57.9268 36.4555 57.7704 36.4555L57.7592 36.461Z" fill="#B7202E"/>
<path d="M60.3556 36.4611C60.0987 36.4611 59.881 36.4166 59.7023 36.3276C59.5236 36.2386 59.3951 36.1052 59.3058 35.9273C59.2164 35.7438 59.1718 35.5158 59.1718 35.2377C59.1718 34.9597 59.2164 34.7262 59.3058 34.5482C59.3951 34.3703 59.5291 34.2368 59.7023 34.1479C59.8754 34.0589 60.0932 34.0144 60.3445 34.0144C60.5846 34.0144 60.7856 34.0589 60.9476 34.1423C61.1095 34.2257 61.2379 34.3592 61.3161 34.5315C61.3999 34.7095 61.439 34.9375 61.439 35.2155V35.3768H59.7972C59.8028 35.5158 59.8251 35.627 59.8642 35.7215C59.9033 35.816 59.9591 35.8883 60.0373 35.9328C60.1155 35.9773 60.2216 35.9995 60.35 35.9995C60.4226 35.9995 60.4841 35.9884 60.5455 35.9717C60.6013 35.9551 60.6516 35.9273 60.6963 35.8939C60.7354 35.8605 60.7689 35.816 60.7968 35.7604C60.8191 35.7048 60.8303 35.6437 60.8303 35.5769H61.439C61.439 35.7271 61.4111 35.855 61.3608 35.9662C61.3049 36.0774 61.2324 36.1664 61.1374 36.2386C61.0425 36.3109 60.9252 36.3665 60.7968 36.4055C60.6628 36.4444 60.5176 36.4611 60.3556 36.4611ZM59.8139 34.9819H60.8079C60.8079 34.893 60.7968 34.8151 60.7744 34.7484C60.7521 34.6817 60.7242 34.6316 60.6851 34.5871C60.646 34.5482 60.6013 34.5149 60.5455 34.4982C60.4896 34.4815 60.4282 34.4704 60.3612 34.4704C60.2495 34.4704 60.1546 34.4871 60.0764 34.526C59.9982 34.5649 59.9424 34.6205 59.9033 34.6928C59.8642 34.7706 59.8363 34.8652 59.8195 34.9819H59.8139Z" fill="#B7202E"/>
<path d="M61.9023 36.4054V33.1858H62.5222V36.4054H61.9023Z" fill="#B7202E"/>
<path d="M63.0917 36.4054V33.1858H63.7115V36.4054H63.0917Z" fill="#B7202E"/>
<path d="M65.3581 36.4611C65.1012 36.4611 64.8834 36.4166 64.7047 36.3276C64.526 36.2386 64.3976 36.1052 64.3082 35.9273C64.2189 35.7438 64.1742 35.5158 64.1742 35.2377C64.1742 34.9597 64.2189 34.7262 64.3082 34.5482C64.3976 34.3703 64.5316 34.2368 64.7047 34.1479C64.8778 34.0589 65.0956 34.0144 65.3469 34.0144C65.587 34.0144 65.7881 34.0589 65.95 34.1423C66.1119 34.2257 66.2404 34.3592 66.3186 34.5315C66.4023 34.7095 66.4414 34.9375 66.4414 35.2155V35.3768H64.7996C64.8052 35.5158 64.8276 35.627 64.8666 35.7215C64.9057 35.816 64.9616 35.8883 65.0398 35.9328C65.1179 35.9773 65.224 35.9995 65.3525 35.9995C65.4251 35.9995 65.4865 35.9884 65.5479 35.9717C65.6038 35.9551 65.654 35.9273 65.6987 35.8939C65.7378 35.8605 65.7713 35.816 65.7992 35.7604C65.8216 35.7048 65.8327 35.6437 65.8327 35.5769H66.4414C66.4414 35.7271 66.4135 35.855 66.3632 35.9662C66.3074 36.0774 66.2348 36.1664 66.1399 36.2386C66.0449 36.3109 65.9277 36.3665 65.7992 36.4055C65.6652 36.4444 65.52 36.4611 65.3581 36.4611ZM64.8108 34.9819H65.8048C65.8048 34.893 65.7936 34.8151 65.7713 34.7484C65.749 34.6817 65.721 34.6316 65.682 34.5871C65.6429 34.5482 65.5982 34.5149 65.5423 34.4982C65.4865 34.4815 65.4251 34.4704 65.3581 34.4704C65.2464 34.4704 65.1514 34.4871 65.0733 34.526C64.9951 34.5649 64.9392 34.6205 64.9002 34.6928C64.8611 34.7706 64.8331 34.8652 64.8164 34.9819H64.8108Z" fill="#B7202E"/>
<path d="M66.9012 36.4055V34.0644H67.415L67.4653 34.387H67.4988C67.5546 34.3091 67.616 34.2424 67.6942 34.1868C67.7724 34.1312 67.8562 34.0867 67.9511 34.0589C68.046 34.0311 68.1521 34.0144 68.2638 34.0144C68.4202 34.0144 68.5542 34.0422 68.6715 34.0978C68.7887 34.1534 68.8781 34.2424 68.9395 34.3647C69.0009 34.4871 69.0344 34.6428 69.0344 34.8429V36.411H68.4146V34.943C68.4146 34.8707 68.4034 34.804 68.3867 34.754C68.3699 34.7039 68.342 34.6594 68.3085 34.6261C68.275 34.5927 68.2303 34.5649 68.18 34.5538C68.1298 34.5371 68.0739 34.5315 68.0125 34.5315C67.9176 34.5315 67.8338 34.5538 67.7612 34.5983C67.6886 34.6428 67.6272 34.7039 67.5881 34.7818C67.549 34.8596 67.5267 34.9486 67.5267 35.0487V36.4166H66.9068L66.9012 36.4055Z" fill="#B7202E"/>
<path d="M70.6246 36.461C70.3733 36.461 70.1667 36.4165 69.9936 36.3276C69.8205 36.2386 69.692 36.1051 69.6083 35.9216C69.5245 35.7381 69.4742 35.5102 69.4742 35.2321C69.4742 34.9541 69.5189 34.7205 69.6083 34.5426C69.6976 34.3647 69.8261 34.2312 69.9992 34.1422C70.1723 34.0533 70.3789 34.0088 70.6302 34.0088C70.7921 34.0088 70.9373 34.0255 71.0658 34.0644C71.1942 34.1033 71.3059 34.1645 71.4008 34.2423C71.4958 34.3202 71.5683 34.4203 71.6186 34.537C71.6689 34.6538 71.6912 34.7928 71.6912 34.9541H71.0713C71.0713 34.8484 71.0546 34.7595 71.0211 34.6927C70.9876 34.626 70.9373 34.5704 70.8703 34.537C70.8033 34.5037 70.7195 34.4814 70.619 34.4814C70.5017 34.4814 70.4012 34.5092 70.3286 34.5593C70.256 34.6093 70.2002 34.6927 70.1611 34.7928C70.1276 34.8985 70.1053 35.0264 70.1053 35.1821V35.2822C70.1053 35.4323 70.122 35.5602 70.1611 35.6658C70.2002 35.7715 70.256 35.8493 70.3342 35.8994C70.4124 35.9494 70.5129 35.9772 70.6358 35.9772C70.7363 35.9772 70.8201 35.9606 70.8871 35.9216C70.9541 35.8883 71.0043 35.8327 71.0434 35.7604C71.0769 35.6881 71.0993 35.6047 71.0993 35.5046H71.6912C71.6912 35.6547 71.6689 35.7937 71.6186 35.9105C71.5683 36.0273 71.4958 36.1274 71.4064 36.2108C71.3115 36.2886 71.1998 36.3498 71.0713 36.3943C70.9429 36.4332 70.7921 36.4555 70.6358 36.4555L70.6246 36.461Z" fill="#B7202E"/>
<path d="M73.2216 36.4611C72.9647 36.4611 72.7469 36.4166 72.5682 36.3276C72.3895 36.2386 72.2611 36.1052 72.1717 35.9273C72.0824 35.7438 72.0377 35.5158 72.0377 35.2377C72.0377 34.9597 72.0824 34.7262 72.1717 34.5482C72.2611 34.3703 72.3951 34.2368 72.5682 34.1479C72.7413 34.0589 72.9591 34.0144 73.2104 34.0144C73.4505 34.0144 73.6516 34.0589 73.8135 34.1423C73.9755 34.2257 74.1039 34.3592 74.1821 34.5315C74.2658 34.7095 74.3049 34.9375 74.3049 35.2155V35.3768H72.6632C72.6687 35.5158 72.6911 35.627 72.7302 35.7215C72.7693 35.816 72.8251 35.8883 72.9033 35.9328C72.9815 35.9773 73.0876 35.9995 73.216 35.9995C73.2886 35.9995 73.35 35.9884 73.4115 35.9717C73.4673 35.9551 73.5176 35.9273 73.5622 35.8939C73.6013 35.8605 73.6348 35.816 73.6627 35.7604C73.6851 35.7048 73.6963 35.6437 73.6963 35.5769H74.3049C74.3049 35.7271 74.277 35.855 74.2268 35.9662C74.1709 36.0774 74.0983 36.1664 74.0034 36.2386C73.9085 36.3109 73.7912 36.3665 73.6627 36.4055C73.5287 36.4444 73.3835 36.4611 73.2216 36.4611ZM72.6743 34.9819H73.6683C73.6683 34.893 73.6572 34.8151 73.6348 34.7484C73.6125 34.6817 73.5846 34.6316 73.5455 34.5871C73.5064 34.5482 73.4617 34.5149 73.4059 34.4982C73.35 34.4815 73.2886 34.4704 73.2216 34.4704C73.1099 34.4704 73.015 34.4871 72.9368 34.526C72.8586 34.5649 72.8028 34.6205 72.7637 34.6928C72.7246 34.7706 72.6967 34.8652 72.6799 34.9819H72.6743Z" fill="#B7202E"/>
<path d="M76.2595 36.4611C76.1813 36.4611 76.0975 36.4499 76.0138 36.4333C75.93 36.4166 75.8407 36.3832 75.7681 36.3387C75.6899 36.2943 75.6285 36.2275 75.5782 36.1386C75.5279 36.0496 75.5056 35.9384 75.5056 35.8049C75.5056 35.6437 75.5391 35.5046 75.6117 35.399C75.6843 35.2933 75.7848 35.2099 75.9188 35.1488C76.0529 35.0876 76.2092 35.0431 76.3935 35.0209C76.5778 34.9986 76.7844 34.9875 77.0078 34.9875V34.8151C77.0078 34.7484 76.9966 34.6872 76.9743 34.6372C76.9519 34.5871 76.9129 34.5482 76.857 34.5149C76.8012 34.4815 76.723 34.4704 76.6281 34.4704C76.5331 34.4704 76.4494 34.4815 76.3879 34.5037C76.3265 34.526 76.2818 34.5593 76.2595 34.5927C76.2316 34.6316 76.2204 34.6706 76.2204 34.715V34.7706H75.6173C75.6173 34.7706 75.6173 34.7428 75.6173 34.7262V34.6761C75.6173 34.5371 75.6564 34.4203 75.7402 34.3202C75.8239 34.2201 75.9412 34.1423 76.092 34.0923C76.2427 34.0366 76.4214 34.0144 76.6225 34.0144C76.8403 34.0144 77.0245 34.0422 77.1697 34.0978C77.3149 34.1534 77.4322 34.2368 77.5104 34.348C77.5886 34.4593 77.6276 34.5983 77.6276 34.7595V35.8216C77.6276 35.8772 77.6444 35.9161 77.6723 35.9384C77.7058 35.9662 77.7393 35.9773 77.7784 35.9773H77.9236V36.3832C77.8957 36.3999 77.8454 36.411 77.784 36.4277C77.7226 36.4444 77.6444 36.4499 77.555 36.4499C77.4657 36.4499 77.3931 36.4388 77.3261 36.411C77.2591 36.3832 77.2032 36.3499 77.1586 36.3054C77.1139 36.2609 77.0804 36.2053 77.0636 36.1386H77.0301C76.9799 36.1997 76.9184 36.2553 76.8458 36.3054C76.7732 36.3554 76.6895 36.3888 76.589 36.4166C76.494 36.4444 76.3823 36.4555 76.2539 36.4555L76.2595 36.4611ZM76.4717 35.994C76.5555 35.994 76.6281 35.9829 76.6951 35.9551C76.7621 35.9273 76.8179 35.8939 76.8626 35.855C76.9073 35.8105 76.9408 35.7604 76.9687 35.6993C76.9966 35.6381 77.0078 35.5714 77.0078 35.4991V35.3712C76.8403 35.3712 76.6895 35.3823 76.561 35.4046C76.4326 35.4268 76.3265 35.4657 76.2483 35.5158C76.1701 35.5658 76.1366 35.6437 76.1366 35.7382C76.1366 35.7938 76.1478 35.8383 76.1757 35.8772C76.2036 35.9161 76.2427 35.9439 76.293 35.9662C76.3433 35.9884 76.4047 35.9995 76.4773 35.9995L76.4717 35.994Z" fill="#B7202E"/>
<path d="M78.2362 36.4055V34.0644H78.75L78.8002 34.387H78.8337C78.8896 34.3091 78.951 34.2424 79.0292 34.1868C79.1074 34.1312 79.1911 34.0867 79.286 34.0589C79.381 34.0311 79.4871 34.0144 79.5988 34.0144C79.7551 34.0144 79.8892 34.0422 80.0064 34.0978C80.1237 34.1534 80.213 34.2424 80.2745 34.3647C80.3359 34.4871 80.3694 34.6428 80.3694 34.8429V36.411H79.7495V34.943C79.7495 34.8707 79.7384 34.804 79.7216 34.754C79.7049 34.7039 79.6769 34.6594 79.6434 34.6261C79.6099 34.5927 79.5653 34.5649 79.515 34.5538C79.4647 34.5371 79.4089 34.5315 79.3475 34.5315C79.2525 34.5315 79.1688 34.5538 79.0962 34.5983C79.0236 34.6428 78.9622 34.7039 78.9231 34.7818C78.884 34.8596 78.8616 34.9486 78.8616 35.0487V36.4166H78.2418L78.2362 36.4055Z" fill="#B7202E"/>
<path d="M81.7543 36.461C81.5588 36.461 81.3913 36.4165 81.2517 36.3275C81.1121 36.2386 81.0004 36.1051 80.9222 35.9272C80.844 35.7437 80.8049 35.5157 80.8049 35.2321C80.8049 34.9485 80.844 34.7205 80.9222 34.537C81.0004 34.3591 81.1121 34.2256 81.2461 34.1367C81.3857 34.0532 81.5476 34.0088 81.7263 34.0088C81.8269 34.0088 81.9218 34.0199 82.0111 34.0421C82.1005 34.0644 82.1787 34.0977 82.2457 34.1478C82.3127 34.1978 82.3685 34.2534 82.4188 34.3202H82.4467V33.1858H83.0666V36.4054H82.5584L82.5081 36.0884H82.4746C82.3965 36.2108 82.2959 36.3053 82.1731 36.3665C82.0502 36.4276 81.905 36.4554 81.7543 36.4554V36.461ZM81.9553 35.9494C82.0726 35.9494 82.1675 35.9216 82.2401 35.8716C82.3127 35.816 82.3685 35.7437 82.402 35.638C82.4355 35.5379 82.4579 35.4156 82.4579 35.2766V35.1987C82.4579 35.0931 82.4467 34.9985 82.43 34.9151C82.4132 34.8317 82.3797 34.7594 82.3406 34.6983C82.3015 34.6371 82.2457 34.5982 82.1843 34.5648C82.1228 34.5315 82.0446 34.5203 81.9609 34.5203C81.838 34.5203 81.7375 34.5426 81.6593 34.5926C81.5867 34.6427 81.5309 34.715 81.4974 34.815C81.4639 34.9151 81.4471 35.0375 81.4471 35.1876V35.2877C81.4471 35.4378 81.4639 35.5602 81.4974 35.6547C81.5309 35.7492 81.5811 35.8271 81.6593 35.8771C81.7319 35.9272 81.8324 35.9494 81.9609 35.9494H81.9553Z" fill="#B7202E"/>
<path d="M85.7674 36.461C85.5887 36.461 85.4212 36.4444 85.2592 36.4054C85.0973 36.3665 84.9577 36.3109 84.8348 36.2331C84.712 36.1552 84.6115 36.0551 84.5444 35.9328C84.4719 35.8105 84.4384 35.6659 84.4384 35.4935V35.449C84.4384 35.449 84.4384 35.4212 84.4384 35.4101H85.0973C85.0973 35.4101 85.0973 35.4323 85.0973 35.4435V35.4824C85.0973 35.5769 85.1252 35.6603 85.1755 35.7215C85.2257 35.7882 85.3039 35.8383 85.4044 35.8661C85.505 35.8994 85.6222 35.9161 85.7562 35.9161C85.84 35.9161 85.9182 35.9161 85.9852 35.8994C86.0522 35.8883 86.1136 35.8716 86.1639 35.8549C86.2142 35.8383 86.2588 35.8105 86.2923 35.7882C86.3258 35.7604 86.3538 35.7326 86.3705 35.6937C86.3873 35.6603 86.3929 35.6158 86.3929 35.5714C86.3929 35.4935 86.3649 35.4268 86.3147 35.3767C86.2644 35.3267 86.1918 35.2822 86.1025 35.2488C86.0131 35.2155 85.907 35.1821 85.7953 35.1487C85.6836 35.1209 85.5664 35.0876 85.4491 35.0598C85.3318 35.0264 85.2146 34.9875 85.1029 34.943C84.9912 34.8985 84.8907 34.8429 84.8013 34.7762C84.712 34.7095 84.6394 34.626 84.5891 34.526C84.5389 34.4259 84.5109 34.3035 84.5109 34.159C84.5109 34.0088 84.5444 33.8754 84.6059 33.7697C84.6673 33.6585 84.7622 33.5695 84.8739 33.4972C84.9912 33.425 85.1252 33.3749 85.276 33.3415C85.4268 33.3082 85.5943 33.2915 85.773 33.2915C85.9405 33.2915 86.0969 33.3082 86.2477 33.3415C86.3984 33.3749 86.5269 33.4305 86.6386 33.5028C86.7502 33.5751 86.8396 33.6696 86.9066 33.7808C86.968 33.892 87.0015 34.0255 87.0015 34.1812V34.2368H86.3538V34.2034C86.3538 34.1256 86.3314 34.0533 86.2812 33.9977C86.2309 33.9421 86.1639 33.8976 86.0801 33.8642C85.9964 33.8309 85.8903 33.8142 85.7786 33.8142C85.6557 33.8142 85.544 33.8253 85.4603 33.8476C85.3765 33.8698 85.3039 33.9087 85.2592 33.9532C85.2146 33.9977 85.1922 34.0533 85.1922 34.1145C85.1922 34.1868 85.2201 34.2424 85.2704 34.2924C85.3207 34.3425 85.3933 34.3758 85.4826 34.4147C85.572 34.4481 85.6781 34.4815 85.7898 34.5037C85.9014 34.5315 86.0187 34.5593 86.136 34.5927C86.2532 34.626 86.3705 34.665 86.4822 34.7095C86.5939 34.7539 86.6944 34.8095 86.7838 34.8763C86.8731 34.943 86.9457 35.0264 86.996 35.1209C87.0518 35.221 87.0741 35.3378 87.0741 35.4713C87.0741 35.7048 87.0183 35.8939 86.9066 36.0384C86.7949 36.183 86.6386 36.2831 86.4431 36.3498C86.2477 36.4166 86.0187 36.4499 85.7674 36.4499V36.461Z" fill="#B7202E"/>
<path d="M88.2602 36.4611C88.1094 36.4611 87.9921 36.4333 87.8972 36.3833C87.8023 36.3277 87.7353 36.2554 87.6962 36.1664C87.6571 36.0774 87.6347 35.9773 87.6347 35.8661V34.5427H87.3444V34.0645H87.6571L87.7743 33.3972H88.2546V34.0645H88.6846V34.5427H88.2546V35.7605C88.2546 35.8328 88.2714 35.8884 88.3049 35.9217C88.3384 35.9607 88.3886 35.9773 88.4668 35.9773H88.6846V36.3888C88.6511 36.3999 88.6064 36.4111 88.5617 36.4222C88.5171 36.4333 88.4612 36.4389 88.411 36.45C88.3551 36.4555 88.3104 36.4611 88.2658 36.4611H88.2602Z" fill="#B7202E"/>
<path d="M89.7065 36.4611C89.6283 36.4611 89.5446 36.4499 89.4608 36.4333C89.377 36.4166 89.2877 36.3832 89.2151 36.3387C89.1369 36.2943 89.0755 36.2275 89.0252 36.1386C88.975 36.0496 88.9526 35.9384 88.9526 35.8049C88.9526 35.6437 88.9861 35.5046 89.0587 35.399C89.1313 35.2933 89.2319 35.2099 89.3659 35.1488C89.4999 35.0876 89.6563 35.0431 89.8405 35.0209C90.0248 34.9986 90.2314 34.9875 90.4548 34.9875V34.8151C90.4548 34.7484 90.4436 34.6872 90.4213 34.6372C90.399 34.5871 90.3599 34.5482 90.304 34.5149C90.2482 34.4815 90.17 34.4704 90.0751 34.4704C89.9802 34.4704 89.8964 34.4815 89.835 34.5037C89.7735 34.526 89.7289 34.5593 89.7065 34.5927C89.6786 34.6316 89.6674 34.6706 89.6674 34.715V34.7706H89.0643C89.0643 34.7706 89.0643 34.7428 89.0643 34.7262V34.6761C89.0643 34.5371 89.1034 34.4203 89.1872 34.3202C89.2709 34.2201 89.3882 34.1423 89.539 34.0923C89.6898 34.0366 89.8685 34.0144 90.0695 34.0144C90.2873 34.0144 90.4716 34.0422 90.6168 34.0978C90.762 34.1534 90.8792 34.2368 90.9574 34.348C91.0356 34.4593 91.0747 34.5983 91.0747 34.7595V35.8216C91.0747 35.8772 91.0914 35.9161 91.1193 35.9384C91.1528 35.9662 91.1864 35.9773 91.2254 35.9773H91.3706V36.3832C91.3427 36.3999 91.2925 36.411 91.231 36.4277C91.1696 36.4444 91.0914 36.4499 91.0021 36.4499C90.9127 36.4499 90.8401 36.4388 90.7731 36.411C90.7061 36.3832 90.6503 36.3499 90.6056 36.3054C90.5609 36.2609 90.5274 36.2053 90.5107 36.1386H90.4772C90.4269 36.1997 90.3655 36.2553 90.2929 36.3054C90.2203 36.3554 90.1365 36.3888 90.036 36.4166C89.9411 36.4444 89.8294 36.4555 89.7009 36.4555L89.7065 36.4611ZM89.9187 35.994C90.0025 35.994 90.0751 35.9829 90.1421 35.9551C90.2091 35.9273 90.2649 35.8939 90.3096 35.855C90.3543 35.8105 90.3878 35.7604 90.4157 35.6993C90.4436 35.6381 90.4548 35.5714 90.4548 35.4991V35.3712C90.2873 35.3712 90.1365 35.3823 90.0081 35.4046C89.8796 35.4268 89.7735 35.4657 89.6953 35.5158C89.6172 35.5658 89.5837 35.6437 89.5837 35.7382C89.5837 35.7938 89.5948 35.8383 89.6228 35.8772C89.6507 35.9161 89.6898 35.9439 89.74 35.9662C89.7903 35.9884 89.8517 35.9995 89.9243 35.9995L89.9187 35.994Z" fill="#B7202E"/>
<path d="M91.6775 36.4055V34.0644H92.1912L92.2415 34.387H92.275C92.3309 34.3091 92.3923 34.2424 92.4705 34.1868C92.5486 34.1312 92.6324 34.0867 92.7273 34.0589C92.8223 34.0311 92.9284 34.0144 93.0401 34.0144C93.1964 34.0144 93.3304 34.0422 93.4477 34.0978C93.565 34.1534 93.6543 34.2424 93.7158 34.3647C93.7772 34.4871 93.8107 34.6428 93.8107 34.8429V36.411H93.1908V34.943C93.1908 34.8707 93.1797 34.804 93.1629 34.754C93.1462 34.7039 93.1182 34.6594 93.0847 34.6261C93.0512 34.5927 93.0066 34.5649 92.9563 34.5538C92.906 34.5371 92.8502 34.5315 92.7888 34.5315C92.6938 34.5315 92.6101 34.5538 92.5375 34.5983C92.4649 34.6428 92.4034 34.7039 92.3644 34.7818C92.3253 34.8596 92.3029 34.9486 92.3029 35.0487V36.4166H91.6831L91.6775 36.4055Z" fill="#B7202E"/>
<path d="M95.2013 36.461C95.0058 36.461 94.8383 36.4165 94.6987 36.3275C94.5591 36.2386 94.4474 36.1051 94.3692 35.9272C94.291 35.7437 94.252 35.5157 94.252 35.2321C94.252 34.9485 94.291 34.7205 94.3692 34.537C94.4474 34.3591 94.5591 34.2256 94.6931 34.1367C94.8327 34.0532 94.9947 34.0088 95.1734 34.0088C95.2739 34.0088 95.3688 34.0199 95.4582 34.0421C95.5475 34.0644 95.6257 34.0977 95.6927 34.1478C95.7597 34.1978 95.8156 34.2534 95.8658 34.3202H95.8937V33.1858H96.5136V36.4054H96.0054L95.9552 36.0884H95.9217C95.8435 36.2108 95.743 36.3053 95.6201 36.3665C95.4972 36.4276 95.3521 36.4554 95.2013 36.4554V36.461ZM95.3967 35.9494C95.514 35.9494 95.6089 35.9216 95.6815 35.8716C95.7541 35.816 95.81 35.7437 95.8435 35.638C95.877 35.5379 95.8993 35.4156 95.8993 35.2766V35.1987C95.8993 35.0931 95.8881 34.9985 95.8714 34.9151C95.8546 34.8317 95.8211 34.7594 95.7821 34.6983C95.743 34.6371 95.6871 34.5982 95.6257 34.5648C95.5643 34.5315 95.4861 34.5203 95.4023 34.5203C95.2795 34.5203 95.1789 34.5426 95.1008 34.5926C95.0282 34.6427 94.9723 34.715 94.9388 34.815C94.9053 34.9151 94.8886 35.0375 94.8886 35.1876V35.2877C94.8886 35.4378 94.9053 35.5602 94.9388 35.6547C94.9723 35.7492 95.0226 35.8271 95.1008 35.8771C95.1734 35.9272 95.2739 35.9494 95.4023 35.9494H95.3967Z" fill="#B7202E"/>
<path d="M97.7083 36.4611C97.6302 36.4611 97.5464 36.4499 97.4626 36.4333C97.3789 36.4166 97.2895 36.3832 97.2169 36.3387C97.1387 36.2943 97.0773 36.2275 97.0271 36.1386C96.9768 36.0496 96.9545 35.9384 96.9545 35.8049C96.9545 35.6437 96.988 35.5046 97.0606 35.399C97.1332 35.2933 97.2337 35.2099 97.3677 35.1488C97.5017 35.0876 97.6581 35.0431 97.8424 35.0209C98.0267 34.9986 98.2333 34.9875 98.4566 34.9875V34.8151C98.4566 34.7484 98.4455 34.6872 98.4231 34.6372C98.4008 34.5871 98.3617 34.5482 98.3059 34.5149C98.25 34.4815 98.1718 34.4704 98.0769 34.4704C97.982 34.4704 97.8982 34.4815 97.8368 34.5037C97.7754 34.526 97.7307 34.5593 97.7083 34.5927C97.6804 34.6316 97.6693 34.6706 97.6693 34.715V34.7706H97.0662C97.0662 34.7706 97.0662 34.7428 97.0662 34.7262V34.6761C97.0662 34.5371 97.1052 34.4203 97.189 34.3202C97.2728 34.2201 97.39 34.1423 97.5408 34.0923C97.6916 34.0366 97.8703 34.0144 98.0713 34.0144C98.2891 34.0144 98.4734 34.0422 98.6186 34.0978C98.7638 34.1534 98.8811 34.2368 98.9592 34.348C99.0374 34.4593 99.0765 34.5983 99.0765 34.7595V35.8216C99.0765 35.8772 99.0933 35.9161 99.1212 35.9384C99.1547 35.9662 99.1882 35.9773 99.2273 35.9773H99.3725V36.3832C99.3445 36.3999 99.2943 36.411 99.2329 36.4277C99.1714 36.4444 99.0932 36.4499 99.0039 36.4499C98.9146 36.4499 98.842 36.4388 98.775 36.411C98.7079 36.3832 98.6521 36.3499 98.6074 36.3054C98.5627 36.2609 98.5292 36.2053 98.5125 36.1386H98.479C98.4287 36.1997 98.3673 36.2553 98.2947 36.3054C98.2221 36.3554 98.1383 36.3888 98.0378 36.4166C97.9429 36.4444 97.8312 36.4555 97.7028 36.4555L97.7083 36.4611ZM97.9206 35.994C98.0043 35.994 98.0769 35.9829 98.1439 35.9551C98.2109 35.9273 98.2668 35.8939 98.3115 35.855C98.3561 35.8105 98.3896 35.7604 98.4176 35.6993C98.4455 35.6381 98.4566 35.5714 98.4566 35.4991V35.3712C98.2891 35.3712 98.1383 35.3823 98.0099 35.4046C97.8815 35.4268 97.7754 35.4657 97.6972 35.5158C97.619 35.5658 97.5855 35.6437 97.5855 35.7382C97.5855 35.7938 97.5967 35.8383 97.6246 35.8772C97.6525 35.9161 97.6916 35.9439 97.7419 35.9662C97.7921 35.9884 97.8535 35.9995 97.9261 35.9995L97.9206 35.994Z" fill="#B7202E"/>
<path d="M99.6809 36.4054V34.0644H100.195L100.245 34.4314H100.278C100.306 34.3535 100.345 34.2813 100.396 34.2201C100.446 34.1589 100.502 34.1033 100.574 34.0644C100.647 34.0255 100.731 34.0088 100.826 34.0088C100.876 34.0088 100.921 34.0088 100.965 34.0255C101.01 34.0422 101.038 34.0477 101.06 34.0533V34.6149H100.87C100.775 34.6149 100.697 34.626 100.625 34.6538C100.552 34.6816 100.496 34.7205 100.446 34.7706C100.396 34.8206 100.362 34.8874 100.34 34.9652C100.318 35.0431 100.306 35.132 100.306 35.2377V36.411H99.6865L99.6809 36.4054Z" fill="#B7202E"/>
<path d="M102.166 36.461C101.97 36.461 101.803 36.4165 101.663 36.3275C101.523 36.2386 101.412 36.1051 101.334 35.9272C101.255 35.7437 101.216 35.5157 101.216 35.2321C101.216 34.9485 101.255 34.7205 101.334 34.537C101.412 34.3591 101.523 34.2256 101.657 34.1367C101.797 34.0532 101.959 34.0088 102.138 34.0088C102.238 34.0088 102.333 34.0199 102.423 34.0421C102.512 34.0644 102.59 34.0977 102.657 34.1478C102.724 34.1978 102.78 34.2534 102.83 34.3202H102.858V33.1858H103.478V36.4054H102.97L102.92 36.0884H102.886C102.808 36.2108 102.707 36.3053 102.584 36.3665C102.462 36.4276 102.316 36.4554 102.166 36.4554V36.461ZM102.367 35.9494C102.484 35.9494 102.579 35.9216 102.651 35.8716C102.724 35.816 102.78 35.7437 102.813 35.638C102.847 35.5379 102.869 35.4156 102.869 35.2766V35.1987C102.869 35.0931 102.858 34.9985 102.841 34.9151C102.825 34.8317 102.791 34.7594 102.752 34.6983C102.713 34.6371 102.657 34.5982 102.596 34.5648C102.534 34.5315 102.456 34.5203 102.372 34.5203C102.249 34.5203 102.149 34.5426 102.071 34.5926C101.998 34.6427 101.942 34.715 101.909 34.815C101.875 34.9151 101.858 35.0375 101.858 35.1876V35.2877C101.858 35.4378 101.875 35.5602 101.909 35.6547C101.942 35.7492 101.993 35.8271 102.071 35.8771C102.143 35.9272 102.244 35.9494 102.372 35.9494H102.367Z" fill="#B7202E"/>
<path d="M105.007 36.461C104.845 36.461 104.695 36.4443 104.566 36.4054C104.438 36.372 104.326 36.3219 104.231 36.2552C104.136 36.194 104.069 36.1162 104.019 36.0272C103.969 35.9383 103.946 35.8382 103.946 35.727V35.6936C103.946 35.6936 103.946 35.6714 103.946 35.6658H104.544V35.6992C104.544 35.7714 104.572 35.8326 104.616 35.8771C104.661 35.9216 104.723 35.9549 104.795 35.9772C104.868 35.9994 104.946 36.0106 105.024 36.0106C105.097 36.0106 105.164 36.005 105.231 35.9883C105.298 35.9772 105.354 35.9494 105.398 35.916C105.443 35.8827 105.465 35.8326 105.465 35.777C105.465 35.7047 105.437 35.6491 105.376 35.6102C105.32 35.5713 105.242 35.5379 105.147 35.5157C105.052 35.4934 104.951 35.4656 104.84 35.4378C104.739 35.4156 104.639 35.3878 104.538 35.3544C104.438 35.321 104.343 35.2821 104.265 35.2321C104.181 35.182 104.114 35.1153 104.064 35.0319C104.013 34.9485 103.985 34.8484 103.985 34.7205C103.985 34.5926 104.013 34.4925 104.064 34.4035C104.119 34.3146 104.192 34.2367 104.287 34.1811C104.382 34.1199 104.494 34.0755 104.616 34.0477C104.745 34.0199 104.879 34.0032 105.024 34.0032C105.164 34.0032 105.287 34.0199 105.409 34.0477C105.527 34.0755 105.633 34.1199 105.722 34.17C105.811 34.2256 105.884 34.2923 105.934 34.3757C105.985 34.4591 106.012 34.5481 106.012 34.6482V34.7038C106.012 34.7038 106.012 34.7316 106.012 34.7372H105.421V34.7038C105.421 34.6482 105.404 34.6037 105.37 34.5704C105.337 34.537 105.292 34.5036 105.231 34.4814C105.169 34.4591 105.097 34.448 105.007 34.448C104.946 34.448 104.896 34.448 104.845 34.4591C104.795 34.4703 104.756 34.4814 104.717 34.4981C104.683 34.5147 104.655 34.537 104.633 34.5648C104.616 34.5926 104.605 34.6204 104.605 34.6538C104.605 34.7038 104.628 34.7427 104.672 34.7761C104.717 34.8095 104.773 34.8317 104.845 34.8539C104.918 34.8762 104.996 34.8984 105.08 34.9207C105.186 34.9485 105.298 34.9818 105.415 35.0096C105.532 35.0374 105.644 35.0764 105.744 35.1209C105.845 35.1653 105.929 35.2376 105.99 35.321C106.052 35.4044 106.085 35.5268 106.085 35.6769C106.085 35.8271 106.057 35.9383 106.001 36.0384C105.945 36.1384 105.867 36.2163 105.772 36.2719C105.672 36.3331 105.56 36.372 105.426 36.3998C105.292 36.4276 105.152 36.4387 105.002 36.4387L105.007 36.461Z" fill="#B7202E"/>
<path d="M40.0674 24.4669V9.22534H43.39V24.4669H40.0674Z" fill="#B7202E"/>
<path d="M45.2201 24.4669L51.1115 9.22534H55.216L61.1074 24.4669H57.673L56.5115 21.4698H49.8104L48.6544 24.4669H45.2201ZM50.8435 18.8007H55.484C55.484 18.8007 53.2503 13.0177 53.1665 12.8008L50.849 18.8007H50.8435Z" fill="#B7202E"/>
<path d="M69.0944 24.7337C66.682 24.7337 64.828 24.0942 63.5269 22.8097C62.2257 21.5308 61.5724 19.5401 61.5724 16.8432C61.5724 15.0527 61.8851 13.5735 62.5105 12.4114C63.136 11.2492 64.0406 10.3818 65.2301 9.81458C66.4195 9.24184 67.8491 8.95825 69.5132 8.95825C70.5072 8.95825 71.4454 9.06946 72.3221 9.29189C73.1989 9.51431 73.9751 9.85351 74.6508 10.315C75.3265 10.7766 75.857 11.3493 76.2367 12.0388C76.6165 12.7283 76.8063 13.5457 76.8063 14.491H73.439C73.439 14.0295 73.3385 13.6236 73.1374 13.2677C72.9364 12.9118 72.6572 12.6171 72.2998 12.378C71.9424 12.1389 71.5348 11.961 71.0713 11.8442C70.6078 11.7274 70.1275 11.6663 69.6193 11.6663C68.8431 11.6663 68.1674 11.7664 67.5867 11.9665C67.0059 12.1667 66.5256 12.4726 66.1459 12.8785C65.7662 13.2844 65.4814 13.7904 65.2859 14.4021C65.0905 15.0082 64.9956 15.7144 64.9956 16.5151V17.1824C64.9956 18.2945 65.1575 19.2064 65.487 19.9126C65.8164 20.6244 66.3023 21.1526 66.9612 21.503C67.6146 21.8533 68.4243 22.0257 69.396 22.0257C70.2001 22.0257 70.9093 21.9033 71.5292 21.6587C72.1434 21.414 72.6293 21.0637 72.9811 20.6021C73.3329 20.1406 73.506 19.579 73.506 18.9117V18.756H68.9325V16.226H76.8063V24.4668H74.6173L74.3269 22.8208C73.8802 23.249 73.3999 23.6049 72.8862 23.8885C72.3724 24.172 71.8028 24.3834 71.1774 24.5224C70.5519 24.6614 69.8539 24.7337 69.0777 24.7337H69.0944Z" fill="#B7202E"/>
<path d="M79.5817 24.4669V9.22534H91.8057V11.9334H82.9267V15.3309H90.7782V18.0167H82.9267V21.7256H91.9397V24.4558H79.5817V24.4669Z" fill="#B7202E"/>
<path d="M100.328 24.7338C99.435 24.7338 98.5862 24.6448 97.7876 24.4668C96.9835 24.2889 96.2743 24.0053 95.6544 23.6105C95.0346 23.2157 94.5543 22.7208 94.2025 22.1203C93.8507 21.5197 93.6776 20.7913 93.6776 19.9294V19.6958C93.6776 19.6124 93.6832 19.5513 93.6999 19.5068H97.0003C96.9835 19.5513 96.9779 19.6124 96.9779 19.6847V19.8849C96.9779 20.3576 97.1064 20.7579 97.3688 21.086C97.6313 21.4141 98.011 21.6587 98.5192 21.82C99.0274 21.9813 99.6137 22.0647 100.284 22.0647C100.714 22.0647 101.099 22.0369 101.434 21.9868C101.769 21.9368 102.065 21.8589 102.328 21.7644C102.59 21.6699 102.802 21.5531 102.975 21.4196C103.149 21.2862 103.271 21.1305 103.355 20.9525C103.439 20.7746 103.478 20.5744 103.478 20.352C103.478 19.9516 103.35 19.6291 103.087 19.3733C102.825 19.1231 102.467 18.9062 102.015 18.7283C101.563 18.5504 101.054 18.3891 100.485 18.239C99.9208 18.0888 99.3401 17.9387 98.7426 17.783C98.145 17.6273 97.5699 17.4327 97.0003 17.2047C96.4362 16.9767 95.9281 16.6987 95.4813 16.3706C95.0346 16.0425 94.6772 15.6311 94.4092 15.125C94.1411 14.619 94.0071 14.0129 94.0071 13.3012C94.0071 12.5449 94.169 11.8943 94.4873 11.3438C94.8056 10.7933 95.258 10.3429 95.8387 9.98704C96.4195 9.63116 97.0896 9.36982 97.8491 9.19744C98.6085 9.02506 99.435 8.94165 100.323 8.94165C101.155 8.94165 101.942 9.02506 102.691 9.19744C103.433 9.36982 104.087 9.63673 104.656 10.0093C105.22 10.3818 105.661 10.8489 105.985 11.4106C106.304 11.9722 106.466 12.6394 106.466 13.4124V13.6793H103.232V13.5013C103.232 13.101 103.115 12.7618 102.875 12.4782C102.635 12.1946 102.3 11.9722 101.87 11.8109C101.44 11.6497 100.932 11.5663 100.351 11.5663C99.7254 11.5663 99.1949 11.6274 98.7537 11.7442C98.3126 11.861 97.9775 12.0389 97.7486 12.2669C97.5196 12.4949 97.4023 12.7673 97.4023 13.0787C97.4023 13.4346 97.5308 13.7293 97.7932 13.9573C98.0557 14.1853 98.4131 14.3855 98.8654 14.5579C99.3177 14.7302 99.8259 14.8804 100.396 15.0138C100.96 15.1473 101.54 15.2974 102.138 15.4587C102.73 15.6199 103.311 15.8146 103.88 16.037C104.444 16.2594 104.952 16.5374 105.399 16.8711C105.846 17.2047 106.203 17.6162 106.471 18.1055C106.739 18.5949 106.873 19.1787 106.873 19.8627C106.873 21.0304 106.588 21.9757 106.024 22.6819C105.46 23.3936 104.684 23.9108 103.701 24.2389C102.719 24.5669 101.596 24.7282 100.334 24.7282L100.328 24.7338Z" fill="#B7202E"/>
<path d="M40.0674 43.3785L41.0893 40.804H41.5584L42.5803 43.3785H42.195L41.9437 42.739H40.6872L40.4415 43.3785H40.073H40.0674ZM40.7989 42.4388H41.8208L41.5081 41.6325C41.5081 41.6325 41.4914 41.5769 41.4746 41.538C41.4579 41.499 41.4411 41.4545 41.4244 41.4045C41.4076 41.3545 41.3909 41.3044 41.3741 41.2544C41.3574 41.2043 41.3406 41.1543 41.3238 41.1154H41.3015C41.2848 41.1654 41.2624 41.221 41.2401 41.2877C41.2177 41.3545 41.1954 41.4156 41.1731 41.4768C41.1507 41.538 41.134 41.588 41.1172 41.6325L40.7989 42.4388Z" fill="#B7202E"/>
<path d="M42.871 43.3786V41.4046H43.139L43.1669 41.6993H43.1949C43.2451 41.6215 43.3065 41.5547 43.3736 41.5047C43.4406 41.4546 43.5132 41.4157 43.5969 41.3935C43.6807 41.3712 43.7645 41.3601 43.8594 41.3601C43.9822 41.3601 44.0939 41.3824 44.1889 41.4213C44.2838 41.4602 44.3564 41.5325 44.4122 41.627C44.4681 41.7215 44.4904 41.8494 44.4904 42.0107V43.373H44.1609V42.0552C44.1609 41.9718 44.1498 41.905 44.1274 41.855C44.1051 41.805 44.0772 41.7605 44.0381 41.7327C43.999 41.7049 43.9599 41.6826 43.9041 41.6715C43.8538 41.6604 43.798 41.6548 43.731 41.6548C43.636 41.6548 43.5523 41.6771 43.4685 41.7215C43.3847 41.766 43.3177 41.8328 43.273 41.9162C43.2284 41.9996 43.2004 42.0997 43.2004 42.222V43.3786H42.871Z" fill="#B7202E"/>
<path d="M45.8424 43.3785V40.804H46.1998V43.3785H45.8424Z" fill="#B7202E"/>
<path d="M46.7799 43.3786V41.4046H47.048L47.0759 41.6993H47.1038C47.1541 41.6215 47.2155 41.5547 47.2825 41.5047C47.3495 41.4546 47.4221 41.4157 47.5059 41.3935C47.5896 41.3712 47.6734 41.3601 47.7683 41.3601C47.8912 41.3601 48.0029 41.3824 48.0978 41.4213C48.1927 41.4602 48.2653 41.5325 48.3212 41.627C48.377 41.7215 48.3994 41.8494 48.3994 42.0107V43.373H48.0699V42.0552C48.0699 41.9718 48.0587 41.905 48.0364 41.855C48.014 41.805 47.9861 41.7605 47.947 41.7327C47.9079 41.7049 47.8688 41.6826 47.813 41.6715C47.7627 41.6604 47.7069 41.6548 47.6399 41.6548C47.545 41.6548 47.4612 41.6771 47.3774 41.7215C47.2937 41.766 47.2267 41.8328 47.182 41.9162C47.1373 41.9996 47.1094 42.0997 47.1094 42.222V43.3786H46.7799Z" fill="#B7202E"/>
<path d="M49.5778 43.423C49.4158 43.423 49.2762 43.3841 49.159 43.3118C49.0417 43.2395 48.9523 43.1283 48.8853 42.9726C48.8239 42.8169 48.7904 42.6223 48.7904 42.3721C48.7904 42.1219 48.8239 41.9495 48.8909 41.7993C48.9579 41.6492 49.0473 41.538 49.1646 41.4657C49.2818 41.3934 49.4158 41.3545 49.5666 41.3545C49.656 41.3545 49.7341 41.3656 49.8123 41.3823C49.8849 41.4045 49.9575 41.4323 50.0134 41.4768C50.0692 41.5213 50.125 41.5769 50.1697 41.6436H50.1921V40.6594H50.5215V43.373H50.2535L50.2256 43.0894H50.1976C50.1306 43.2006 50.0413 43.284 49.9352 43.3341C49.8291 43.3897 49.7118 43.4175 49.5834 43.4175L49.5778 43.423ZM49.656 43.1339C49.7788 43.1339 49.8849 43.1061 49.9631 43.0505C50.0413 42.9949 50.0971 42.917 50.1362 42.8114C50.1697 42.7057 50.1921 42.5778 50.1921 42.4221V42.361C50.1921 42.2275 50.1809 42.1107 50.153 42.0218C50.125 41.9272 50.086 41.855 50.0413 41.7993C49.991 41.7437 49.9408 41.7048 49.8738 41.6826C49.8123 41.6603 49.7453 41.6492 49.6727 41.6492C49.5499 41.6492 49.4494 41.6715 49.3712 41.7215C49.293 41.7715 49.2371 41.8438 49.1981 41.9495C49.159 42.0551 49.1422 42.1886 49.1422 42.3498V42.4277C49.1422 42.6001 49.1646 42.7335 49.2036 42.8392C49.2427 42.9448 49.3042 43.0171 49.3768 43.0616C49.4493 43.1061 49.5499 43.1283 49.6616 43.1283L49.656 43.1339Z" fill="#B7202E"/>
<path d="M51.6491 43.423C51.4592 43.423 51.3029 43.373 51.1912 43.2785C51.0739 43.1784 51.0181 43.0116 51.0181 42.7669V41.4045H51.3475V42.7224C51.3475 42.8058 51.3587 42.8725 51.3755 42.9226C51.3922 42.9726 51.4257 43.0171 51.4648 43.0449C51.5039 43.0727 51.5486 43.095 51.5988 43.1061C51.6491 43.1172 51.7049 43.1228 51.7664 43.1228C51.8613 43.1228 51.9506 43.1005 52.0288 43.056C52.107 43.0116 52.174 42.9448 52.2243 42.8614C52.2745 42.7724 52.3025 42.6724 52.3025 42.5611V41.4045H52.6319V43.3786H52.3639L52.336 43.0838H52.308C52.2578 43.1617 52.1963 43.2284 52.1293 43.2785C52.0623 43.3285 51.9897 43.3674 51.906 43.3897C51.8222 43.4119 51.7384 43.423 51.6435 43.423H51.6491Z" fill="#B7202E"/>
<path d="M53.8435 43.423C53.7095 43.423 53.5866 43.4118 53.4861 43.384C53.3856 43.3562 53.2962 43.3173 53.2292 43.2617C53.1622 43.2117 53.1119 43.1449 53.0728 43.0726C53.0393 43.0003 53.0226 42.9169 53.0226 42.828V42.7946C53.0226 42.7946 53.0226 42.7724 53.0226 42.7668H53.3521C53.3521 42.7668 53.3521 42.7835 53.3521 42.7946V42.8168C53.3521 42.9058 53.38 42.9725 53.4191 43.0226C53.4582 43.0726 53.5252 43.106 53.6033 43.1282C53.6815 43.1505 53.7653 43.156 53.8658 43.156C53.9496 43.156 54.0278 43.1449 54.0948 43.1227C54.1674 43.1004 54.2232 43.0671 54.2623 43.0226C54.3014 42.9781 54.3237 42.9225 54.3237 42.8558C54.3237 42.7724 54.2958 42.7112 54.24 42.6667C54.1841 42.6222 54.1171 42.5889 54.0278 42.5611C53.9384 42.5333 53.8491 42.511 53.7541 42.4832C53.6759 42.461 53.5922 42.4332 53.514 42.4109C53.4358 42.3831 53.3632 42.3498 53.2962 42.3108C53.2348 42.2719 53.1789 42.2163 53.1399 42.1551C53.1008 42.094 53.084 42.0106 53.084 41.916C53.084 41.8271 53.1008 41.7492 53.1399 41.6825C53.1789 41.6158 53.2292 41.5602 53.2962 41.5101C53.3632 41.4601 53.447 41.4267 53.5419 41.4045C53.6369 41.3822 53.7485 41.3711 53.8658 41.3711C53.9887 41.3711 54.1004 41.3822 54.1953 41.41C54.2902 41.4378 54.3684 41.4767 54.4298 41.5268C54.4913 41.5768 54.5415 41.6324 54.5694 41.6992C54.5974 41.7603 54.6141 41.8326 54.6141 41.9049V41.9494C54.6141 41.9494 54.6141 41.9716 54.6141 41.9828H54.2902V41.9438C54.2902 41.8938 54.2791 41.8437 54.2511 41.7993C54.2232 41.7548 54.1785 41.7159 54.1171 41.688C54.0557 41.6602 53.9663 41.6436 53.8491 41.6436C53.7765 41.6436 53.715 41.6491 53.6592 41.6602C53.6033 41.6714 53.5643 41.688 53.5252 41.7103C53.4861 41.7325 53.4637 41.7603 53.447 41.7937C53.4302 41.8271 53.4191 41.8604 53.4191 41.8993C53.4191 41.9661 53.4414 42.0161 53.4805 42.0495C53.5252 42.0829 53.581 42.1107 53.6536 42.1329C53.7262 42.1551 53.8044 42.1829 53.8826 42.2052C53.9719 42.2274 54.0613 42.2552 54.1506 42.283C54.24 42.3108 54.3237 42.3442 54.4019 42.3831C54.4801 42.422 54.5415 42.4777 54.5862 42.5444C54.6309 42.6111 54.6532 42.7056 54.6532 42.8168C54.6532 42.9225 54.6309 43.0115 54.5918 43.0893C54.5527 43.1672 54.4968 43.2283 54.4187 43.2784C54.3405 43.3284 54.2567 43.3673 54.1562 43.3896C54.0557 43.4118 53.9496 43.423 53.8323 43.423H53.8435Z" fill="#B7202E"/>
<path d="M55.5359 43.423C55.4354 43.423 55.3516 43.4063 55.2958 43.3674C55.2399 43.3285 55.1953 43.2784 55.1729 43.2117C55.1506 43.145 55.1338 43.0782 55.1338 43.006V41.6825H54.877V41.4045H55.1394L55.2008 40.854H55.4633V41.4045H55.8375V41.6825H55.4633V42.9559C55.4633 43.0171 55.4745 43.0671 55.4968 43.0949C55.5191 43.1227 55.5638 43.1394 55.6252 43.1394H55.8375V43.3563C55.8375 43.3563 55.7816 43.3785 55.7481 43.3841C55.7146 43.3896 55.6755 43.4008 55.642 43.4063C55.6085 43.4119 55.5694 43.4174 55.5359 43.4174V43.423Z" fill="#B7202E"/>
<path d="M56.1892 43.3786V41.4046H56.4573L56.4852 41.7327H56.5131C56.5354 41.6715 56.5634 41.6103 56.5969 41.5547C56.6304 41.4991 56.6806 41.4546 56.7421 41.4157C56.8035 41.3768 56.8761 41.3601 56.9654 41.3601C57.0045 41.3601 57.038 41.3601 57.0715 41.3712C57.105 41.3768 57.1274 41.3824 57.1385 41.3935V41.6993H57.0157C56.9319 41.6993 56.8593 41.716 56.7979 41.7438C56.7365 41.7716 56.6862 41.8105 56.6471 41.8661C56.608 41.9162 56.5801 41.9829 56.5578 42.0552C56.541 42.1275 56.5299 42.2053 56.5299 42.2887V43.3897H56.2004L56.1892 43.3786Z" fill="#B7202E"/>
<path d="M57.6073 44.0626C57.5458 44.0626 57.4956 44.0626 57.4509 44.0514C57.4062 44.0403 57.3783 44.0348 57.3616 44.0348V43.7957H57.5291C57.5905 43.7957 57.6464 43.7845 57.7078 43.7567C57.7636 43.7345 57.8195 43.69 57.8697 43.6288C57.92 43.5677 57.9647 43.4843 57.9982 43.3842L57.2275 41.4102H57.5738L57.9702 42.4277C57.987 42.4778 58.0093 42.5334 58.0317 42.6001C58.054 42.6669 58.0819 42.7391 58.1043 42.8114C58.1266 42.8837 58.1489 42.9449 58.1601 43.0005H58.1825C58.1936 42.9616 58.2048 42.9171 58.2215 42.867C58.2383 42.817 58.255 42.7669 58.2662 42.7113C58.2774 42.6557 58.2997 42.6057 58.3165 42.5556C58.3332 42.5056 58.3444 42.4611 58.3556 42.4277L58.6906 41.4102H59.0257L58.3556 43.3286C58.3165 43.4342 58.2774 43.5343 58.2327 43.6288C58.188 43.7178 58.1378 43.7957 58.0819 43.8624C58.0261 43.9291 57.9591 43.9792 57.8809 44.0125C57.8027 44.0514 57.7134 44.0681 57.6073 44.0681V44.0626Z" fill="#B7202E"/>
<path d="M60.188 43.3785V40.804H60.5454V43.3785H60.188Z" fill="#B7202E"/>
<path d="M61.1306 43.3786V41.4046H61.3987L61.4266 41.6993H61.4545C61.5048 41.6215 61.5662 41.5547 61.6332 41.5047C61.7002 41.4546 61.7728 41.4157 61.8566 41.3935C61.9403 41.3712 62.0241 41.3601 62.119 41.3601C62.2419 41.3601 62.3536 41.3824 62.4485 41.4213C62.5434 41.4602 62.616 41.5325 62.6719 41.627C62.7277 41.7215 62.7501 41.8494 62.7501 42.0107V43.373H62.4206V42.0552C62.4206 41.9718 62.4094 41.905 62.3871 41.855C62.3647 41.805 62.3368 41.7605 62.2977 41.7327C62.2586 41.7049 62.2196 41.6826 62.1637 41.6715C62.1134 41.6604 62.0576 41.6548 61.9906 41.6548C61.8957 41.6548 61.8119 41.6771 61.7281 41.7215C61.6444 41.766 61.5774 41.8328 61.5327 41.9162C61.488 41.9996 61.4601 42.0997 61.4601 42.222V43.3786H61.1306Z" fill="#B7202E"/>
<path d="M63.2537 41.032V40.665H63.5831V41.032H63.2537ZM63.2537 43.3786V41.4046H63.5831V43.3786H63.2537Z" fill="#B7202E"/>
<path d="M64.5607 43.423C64.4602 43.423 64.3764 43.4063 64.3206 43.3674C64.2647 43.3285 64.22 43.2784 64.1977 43.2117C64.1754 43.145 64.1586 43.0782 64.1586 43.006V41.6825H63.9017V41.4045H64.1642L64.2256 40.854H64.4881V41.4045H64.8622V41.6825H64.4881V42.9559C64.4881 43.0171 64.4993 43.0671 64.5216 43.0949C64.5439 43.1227 64.5886 43.1394 64.65 43.1394H64.8622V43.3563C64.8622 43.3563 64.8064 43.3785 64.7729 43.3841C64.7394 43.3896 64.7003 43.4008 64.6668 43.4063C64.6333 43.4119 64.5942 43.4174 64.5607 43.4174V43.423Z" fill="#B7202E"/>
<path d="M65.2178 41.032V40.665H65.5472V41.032H65.2178ZM65.2178 43.3786V41.4046H65.5472V43.3786H65.2178Z" fill="#B7202E"/>
<path d="M66.5596 43.4231C66.487 43.4231 66.4145 43.412 66.3419 43.3953C66.2693 43.3787 66.2023 43.3509 66.1408 43.3119C66.0794 43.273 66.0291 43.2174 65.99 43.1451C65.951 43.0728 65.9342 42.9839 65.9342 42.8782C65.9342 42.7448 65.9677 42.6335 66.0347 42.5446C66.1017 42.4556 66.1911 42.3889 66.3084 42.3388C66.4256 42.2888 66.5652 42.2554 66.7272 42.2387C66.8891 42.2221 67.0622 42.2109 67.2521 42.2109V41.9885C67.2521 41.9162 67.2409 41.8551 67.213 41.7994C67.1907 41.7494 67.146 41.7049 67.079 41.6771C67.0176 41.6493 66.9226 41.6326 66.8054 41.6326C66.6881 41.6326 66.6043 41.6493 66.5373 41.6771C66.4703 41.7049 66.4256 41.7438 66.3977 41.7883C66.3698 41.8328 66.3586 41.8829 66.3586 41.9385V41.9941H66.0403C66.0403 41.9941 66.0403 41.9718 66.0403 41.9551V41.9107C66.0403 41.7883 66.0738 41.6882 66.1408 41.6104C66.2078 41.527 66.3028 41.4658 66.42 41.4269C66.5373 41.388 66.6769 41.3657 66.8333 41.3657C67.0008 41.3657 67.1404 41.388 67.2521 41.438C67.3638 41.4881 67.4475 41.5548 67.5034 41.6382C67.5592 41.7272 67.5872 41.8328 67.5872 41.9551V43.0228C67.5872 43.0728 67.5983 43.1006 67.6207 43.1229C67.643 43.1451 67.6709 43.1507 67.7044 43.1507H67.8496V43.3675C67.8161 43.3842 67.777 43.3953 67.7323 43.4065C67.6877 43.4176 67.643 43.4231 67.5872 43.4231C67.5201 43.4231 67.4699 43.412 67.4252 43.3842C67.3805 43.3564 67.3526 43.3231 67.3247 43.273C67.3024 43.2285 67.2856 43.1729 67.28 43.1173H67.2521C67.2074 43.1785 67.1516 43.2341 67.079 43.2786C67.0064 43.3231 66.9338 43.362 66.85 43.3842C66.7663 43.4065 66.6713 43.4231 66.5708 43.4231H66.5596ZM66.6434 43.1451C66.7216 43.1451 66.7998 43.134 66.8724 43.1062C66.945 43.0784 67.0064 43.045 67.0622 43.0005C67.1181 42.9561 67.1627 42.9004 67.1963 42.8337C67.2298 42.767 67.2465 42.7003 67.2465 42.6224V42.4556C67.0455 42.4556 66.8724 42.4667 66.7272 42.489C66.582 42.5112 66.4759 42.5501 66.3977 42.6113C66.3195 42.6669 66.2804 42.7503 66.2804 42.856C66.2804 42.9227 66.2972 42.9783 66.3251 43.0228C66.353 43.0673 66.3977 43.0951 66.4535 43.1173C66.5094 43.1396 66.5708 43.1507 66.6434 43.1507V43.1451Z" fill="#B7202E"/>
<path d="M68.5816 43.423C68.481 43.423 68.3973 43.4063 68.3414 43.3674C68.2856 43.3285 68.2409 43.2784 68.2186 43.2117C68.1962 43.145 68.1795 43.0782 68.1795 43.006V41.6825H67.9226V41.4045H68.1851L68.2465 40.854H68.509V41.4045H68.8831V41.6825H68.509V42.9559C68.509 43.0171 68.5201 43.0671 68.5425 43.0949C68.5648 43.1227 68.6095 43.1394 68.6709 43.1394H68.8831V43.3563C68.8831 43.3563 68.8273 43.3785 68.7938 43.3841C68.7603 43.3896 68.7212 43.4008 68.6877 43.4063C68.6542 43.4119 68.6151 43.4174 68.5816 43.4174V43.423Z" fill="#B7202E"/>
<path d="M69.2357 41.032V40.665H69.5652V41.032H69.2357ZM69.2357 43.3786V41.4046H69.5652V43.3786H69.2357Z" fill="#B7202E"/>
<path d="M70.6017 43.3785L69.8646 41.4045H70.2109L70.5738 42.3887C70.5906 42.4388 70.6129 42.4944 70.6353 42.5667C70.6576 42.6389 70.6799 42.7112 70.7023 42.7835C70.7246 42.8558 70.7469 42.9225 70.7581 42.9781H70.7749C70.7916 42.9225 70.814 42.8614 70.8363 42.7835C70.8586 42.7057 70.881 42.6389 70.9033 42.5667C70.9256 42.4944 70.948 42.4332 70.9647 42.3832L71.3221 41.3989H71.6572L70.9201 43.3729H70.5906L70.6017 43.3785Z" fill="#B7202E"/>
<path d="M72.7529 43.423C72.5574 43.423 72.3899 43.3841 72.2559 43.3118C72.1219 43.2395 72.0213 43.1228 71.9488 42.9726C71.8817 42.8225 71.8427 42.6279 71.8427 42.3888C71.8427 42.1497 71.8762 41.955 71.9488 41.8049C72.0158 41.6548 72.1219 41.5436 72.2559 41.4657C72.3899 41.3934 72.563 41.3545 72.7641 41.3545C72.9483 41.3545 73.1047 41.3879 73.2331 41.4601C73.356 41.5324 73.4509 41.6381 73.5179 41.7771C73.5794 41.9161 73.6129 42.0941 73.6129 42.3054V42.4611H72.1889C72.1889 42.6167 72.2168 42.7502 72.2559 42.8503C72.295 42.9504 72.362 43.0227 72.4402 43.0727C72.5239 43.1172 72.6245 43.1394 72.7529 43.1394C72.8367 43.1394 72.9148 43.1283 72.9763 43.1061C73.0377 43.0838 73.0935 43.056 73.1382 43.0115C73.1829 42.9671 73.2164 42.9226 73.2387 42.867C73.2611 42.8114 73.2722 42.7502 73.2778 42.689H73.6017C73.6017 42.7947 73.5794 42.8892 73.5403 42.9782C73.5012 43.0672 73.4453 43.145 73.3727 43.2062C73.3002 43.2673 73.2108 43.3174 73.1047 43.3507C72.9986 43.3841 72.8813 43.4008 72.7417 43.4008L72.7529 43.423ZM72.2 42.2275H73.2722C73.2722 42.1163 73.2611 42.0273 73.2331 41.9495C73.2108 41.8772 73.1717 41.816 73.127 41.766C73.0824 41.7159 73.0265 41.6826 72.9651 41.6603C72.9037 41.6381 72.8311 41.627 72.7585 41.627C72.6412 41.627 72.5463 41.6492 72.4625 41.6881C72.3843 41.7326 72.3229 41.7938 72.2782 41.8827C72.2336 41.9717 72.2112 42.0829 72.2 42.2219V42.2275Z" fill="#B7202E"/>
<path d="M123.39 0H122.865V49H123.39V0Z" fill="#D1AD77"/>
</g>
<defs>
<clipPath id="clip0_1175_801">
<rect width="230" height="49" fill="white"/>
</clipPath>
</defs>
</svg>
