<svg width="150" height="150" viewBox="0 0 150 150" fill="none" xmlns="http://www.w3.org/2000/svg">
<g clip-path="url(#clip0_1231_733)">
<rect width="150" height="150" fill="none"/>
<path d="M107.92 149.986H42.0589C40.0463 149.986 38.4111 148.35 38.4111 146.337V131.694C38.4111 129.681 40.0463 128.045 42.0589 128.045H107.92C109.932 128.045 111.567 129.681 111.567 131.694V146.337C111.567 148.35 109.932 149.986 107.92 149.986ZM45.7066 142.664H104.247V135.342H45.7066V142.664Z" fill="#C0A375"/>
<path d="M93.2823 135.367H56.679C54.6665 135.367 53.0312 133.732 53.0312 131.719V117.075C53.0312 115.062 54.6665 113.427 56.679 113.427H93.2823C95.2948 113.427 96.93 115.062 96.93 117.075V131.719C96.93 133.732 95.2948 135.367 93.2823 135.367ZM60.3519 128.045H89.6345V120.723H60.3519V128.045Z" fill="#C0A375"/>
<path d="M75.0218 120.749C73.0092 120.749 71.374 119.113 71.374 117.1V18.2673C71.374 16.2544 73.0092 14.6189 75.0218 14.6189C77.0343 14.6189 78.6695 16.2544 78.6695 18.2673V117.075C78.6695 119.088 77.0343 120.723 75.0218 120.723V120.749Z" fill="#C0A375"/>
<path d="M75.0182 21.9405C68.9554 21.9405 64.0498 17.0089 64.0498 10.9702C64.0498 4.93158 68.9806 0 75.0182 0C81.0559 0 85.9866 4.93158 85.9866 10.9702C85.9866 17.0089 81.0559 21.9405 75.0182 21.9405ZM75.0182 7.29672C73.0057 7.29672 71.3705 8.9322 71.3705 10.9451C71.3705 12.958 73.0057 14.5934 75.0182 14.5934C77.0308 14.5934 78.666 12.958 78.666 10.9451C78.666 8.9322 77.0308 7.29672 75.0182 7.29672Z" fill="#C0A375"/>
<path d="M146.363 32.9103H3.64775C1.6352 32.9103 0 31.2748 0 29.2619C0 27.249 1.6352 25.6135 3.64775 25.6135H146.363C148.375 25.6135 150.011 27.249 150.011 29.2619C150.011 31.2748 148.375 32.9103 146.363 32.9103Z" fill="#C0A375"/>
<path d="M25.8624 109.728C13.7619 109.728 3.90039 99.8897 3.90039 87.7621V84.1137C3.90039 82.1008 5.53559 80.4653 7.54814 80.4653H44.1514C46.164 80.4653 47.7992 82.1008 47.7992 84.1137V87.7621C47.7992 99.8646 37.9628 109.728 25.8372 109.728H25.8624ZM11.221 87.7872C11.221 95.8639 17.787 102.431 25.8624 102.431C33.9377 102.431 40.5037 95.8639 40.5037 87.7872H11.221Z" fill="#C0A375"/>
<path d="M44.1764 87.8121C42.6419 87.8121 41.2079 86.8308 40.7048 85.296L25.8874 40.8111L11.0699 85.296C10.441 87.2082 8.35299 88.265 6.44107 87.6108C4.52915 86.9818 3.47256 84.8934 4.12664 82.9812L22.4157 28.0796C22.9188 26.5699 24.3276 25.5635 25.8874 25.5635C27.4471 25.5635 28.8559 26.5699 29.359 28.0796L47.6481 82.9812C48.277 84.8934 47.2456 86.9818 45.3336 87.6108C44.9563 87.7366 44.5789 87.7869 44.1764 87.7869V87.8121Z" fill="#C0A375"/>
<path d="M124.93 109.728C112.829 109.728 102.968 99.89 102.968 87.7623V84.1139C102.968 82.101 104.603 80.4656 106.616 80.4656H143.219C145.231 80.4656 146.867 82.101 146.867 84.1139V87.7623C146.867 99.8648 137.03 109.728 124.905 109.728H124.93ZM110.288 87.7875C110.288 95.8642 116.854 102.431 124.93 102.431C133.005 102.431 139.571 95.8642 139.571 87.7875H110.314H110.288Z" fill="#C0A375"/>
<path d="M143.242 87.8123C141.707 87.8123 140.273 86.8311 139.77 85.2962L124.953 40.8114L110.135 85.2962C109.507 87.2085 107.419 88.2652 105.507 87.6111C103.595 86.982 102.563 84.8937 103.192 82.9814L121.481 28.0798C121.984 26.5953 123.368 25.5637 124.953 25.5637C126.538 25.5637 127.921 26.5702 128.425 28.0798L146.714 82.9814C147.343 84.8937 146.311 86.982 144.399 87.6111C144.022 87.7369 143.644 87.7872 143.242 87.7872V87.8123Z" fill="#C0A375"/>
</g>
<defs>
<clipPath id="clip0_1231_733">
<rect width="150" height="150" fill="none"/>
</clipPath>
</defs>
</svg>
