<svg width="77" height="65" viewBox="0 0 77 65" fill="none" xmlns="http://www.w3.org/2000/svg">
<path d="M76.7331 64.75H0.25V33.3713L20.378 19.4019V30.9367V31.4149L20.7706 31.142L37.6654 19.4022V32.4177V32.6677H37.9154H52.1963H52.4301L52.4458 32.4344L54.6015 0.25H72.5066L76.7331 64.75ZM36.3286 61.9589H36.5786V61.7089V51.0949V50.8449H36.3286H17.538H17.288V51.0949V61.7089V61.9589H17.538H36.3286ZM50.2755 61.9589H50.5092L50.5249 61.7257L52.2787 35.7257L52.2967 35.4589H52.0293H34.8248V25.2595V24.7813L34.4322 25.0542L17.5374 36.794V25.2595V24.7808L17.1446 25.0543L3.19773 34.7632L3.09056 34.8378V34.9684V61.7089V61.9589H3.34056H14.1974H14.4474V61.7089V48.0538H39.4192V61.7089V61.9589H39.6692H50.2755ZM69.8166 3.27338L69.8001 3.04114H69.5672H57.5412H57.3084L57.2919 3.27338L56.6237 12.6531L56.6047 12.9209H56.8731H70.2354H70.5038L70.4847 12.6531L69.8166 3.27338ZM56.7061 15.712H56.472L56.4566 15.9456L53.4501 61.6925L53.4326 61.9589H53.6996H73.4089H73.6759L73.6584 61.6925L70.6518 15.9456L70.6365 15.712H70.4024H56.7061Z" fill="#C5A26E" stroke="#1F1A19" stroke-width="0.5"/>
</svg>
