<svg width="150" height="150" viewBox="0 0 150 150" fill="none" xmlns="http://www.w3.org/2000/svg">
<g clip-path="url(#clip0_1231_553)">
<rect width="150" height="150" fill="none"/>
<path d="M141.615 0H14.9403C9.935 0 5.8741 4.02232 5.8741 8.98006V25.5059C2.22243 26.8155 -0.421875 30.2453 -0.421875 34.2988V46.7711C-0.421875 50.8246 2.22243 54.2545 5.8741 55.5641V94.1347C2.22243 95.4131 -0.421875 98.843 -0.421875 102.897V115.369C-0.421875 119.422 2.22243 122.852 5.8741 124.162V140.688C5.8741 145.645 9.935 149.668 14.9403 149.668H141.615C146.621 149.668 150.681 145.645 150.681 140.688V8.98006C150.681 4.02232 146.621 0 141.615 0ZM5.8741 34.2988C5.8741 32.5839 7.29069 31.1808 9.02208 31.1808C10.7535 31.1808 12.1701 32.5839 12.1701 34.2988V46.7711C12.1701 48.4861 10.7535 49.8892 9.02208 49.8892C7.29069 49.8892 5.8741 48.4861 5.8741 46.7711V34.2988ZM9.02208 118.487C7.29069 118.487 5.8741 117.084 5.8741 115.369V102.897C5.8741 101.182 7.29069 99.7784 9.02208 99.7784C10.7535 99.7784 12.1701 101.182 12.1701 102.897V115.369C12.1701 117.084 10.7535 118.487 9.02208 118.487ZM144.385 140.688C144.385 142.215 143.126 143.432 141.615 143.432H14.9403C13.3978 143.432 12.1701 142.215 12.1701 140.688V124.162C15.8217 122.883 18.466 119.454 18.466 115.369V102.897C18.466 98.843 15.8217 95.4131 12.1701 94.1035V55.5641C15.8217 54.2857 18.466 50.8558 18.466 46.7711V34.2988C18.466 30.2453 15.8217 26.8155 12.1701 25.5059V8.98006C12.1701 7.4522 13.3978 6.23615 14.9403 6.23615H141.615C143.126 6.23615 144.385 7.4522 144.385 8.98006V140.688Z" fill="#C0A375"/>
<path d="M78.2782 40.5349C59.17 40.5349 43.6504 55.907 43.6504 74.8337C43.6504 93.7605 59.17 109.133 78.2782 109.133C97.3865 109.133 112.906 93.7605 112.906 74.8337C112.906 55.907 97.3865 40.5349 78.2782 40.5349ZM75.1302 46.9582V62.798C70.7231 63.9205 67.2918 67.3504 66.127 71.7157H50.1352C51.5833 58.7445 62.0346 48.3925 75.1302 46.9582ZM75.1302 102.709C62.0346 101.275 51.5833 90.923 50.1352 77.9518H66.127C67.2603 82.3171 70.7231 85.7158 75.1302 86.8695V102.709ZM71.9823 74.8337C71.9823 71.4039 74.8155 68.5976 78.2782 68.5976C81.741 68.5976 84.5742 71.4039 84.5742 74.8337C84.5742 78.2636 81.741 81.0699 78.2782 81.0699C74.8155 81.0699 71.9823 78.2636 71.9823 74.8337ZM81.4262 102.709V86.8695C85.8334 85.747 89.2647 82.3171 90.4295 77.9518H106.421C104.973 90.923 94.5218 101.275 81.4262 102.709ZM90.4295 71.7157C89.2962 67.3504 85.8334 63.9517 81.4262 62.798V46.9582C94.5218 48.3925 104.973 58.7445 106.421 71.7157H90.4295Z" fill="#C0A375"/>
</g>
<defs>
<clipPath id="clip0_1231_553">
<rect width="150" height="150" fill="none"/>
</clipPath>
</defs>
</svg>
