<svg width="150" height="150" viewBox="0 0 150 150" fill="none" xmlns="http://www.w3.org/2000/svg">
<rect width="150" height="150" fill="none"/>
<path d="M74.2143 1C39.7413 1.42236 12 29.202 12 63.3171C12 63.3171 12.0194 63.4131 12.0388 63.4707C12.0388 63.6819 12.1164 63.893 12.1746 64.1042C12.2134 64.277 12.2522 64.4498 12.3298 64.6034C12.4074 64.7762 12.5238 64.9105 12.6402 65.0641C12.776 65.2369 12.873 65.3905 13.0476 65.5441C13.0864 65.5825 13.1058 65.6401 13.164 65.6785L66.3575 107.799H60.6346C53.5926 107.799 47.5012 112.637 45.9686 119.433L39.9547 144.333C39.7607 145.216 39.9547 146.157 40.5561 146.867C41.1381 147.578 42.0111 148 42.9229 148H107.097C107.911 148 108.668 147.674 109.23 147.117C109.308 147.04 109.386 146.963 109.463 146.867C110.045 146.157 110.259 145.235 110.065 144.333L104.051 119.433C102.499 112.579 96.4656 107.78 89.3848 107.799H83.6813L136.875 65.6785C136.875 65.6785 137.049 65.5249 137.127 65.4481C137.399 65.1793 137.612 64.8529 137.767 64.5074C137.806 64.4306 137.806 64.3538 137.825 64.277C137.922 63.989 138 63.7011 138 63.4131C138 63.3747 138 63.3747 138 63.3363V63.2979C138 28.6069 109.347 0.596839 74.2919 1.0192H74.2337L74.2143 1ZM131.753 61.9924L83.8559 99.9087L101.665 64.6802C101.665 64.6802 101.665 64.5842 101.703 64.5266C101.8 64.3154 101.839 64.1042 101.878 63.8738C101.897 63.7203 101.956 63.5859 101.956 63.4323C101.956 63.3939 101.975 63.3747 101.956 63.3363C101.956 55.1771 108.668 48.5345 116.913 48.5345C120.87 48.5345 124.614 50.0896 127.466 52.8925C129.988 55.3883 131.424 58.5752 131.734 61.9924H131.753ZM95.6508 63.1443L74.9709 104.075L54.291 63.1443C57.3367 54.486 65.6591 48.5153 74.9709 48.5153C84.3021 48.5153 92.6051 54.486 95.6508 63.1443ZM47.9667 63.3171C47.9667 63.3171 47.9667 63.3939 47.9861 63.4323C47.9861 63.5667 48.0249 63.7203 48.0637 63.8546C48.1025 64.085 48.1413 64.3154 48.2383 64.5266C48.2577 64.565 48.2383 64.6226 48.2771 64.661L66.0859 99.8895L18.2079 61.9924C18.945 54.6971 25.5409 48.5153 33.0097 48.5153C41.2545 48.5153 47.9667 55.1579 47.9667 63.3171ZM98.0952 120.719L103.294 141.972H46.667L51.8661 120.719C52.7972 116.63 56.3861 113.77 60.6152 113.77H89.3266C93.5557 113.77 97.164 116.63 98.0758 120.719H98.0952ZM116.952 42.5255C111.151 42.5255 105.894 44.8677 102.091 48.6305C100.404 50.3008 99.0069 52.259 97.9594 54.4284C92.8185 47.1523 84.2633 42.5255 74.9709 42.5255C65.6979 42.5255 57.1621 47.1331 51.9825 54.4284C48.6069 47.4019 41.3709 42.5255 32.9903 42.5255C28.4896 42.5255 24.2023 43.927 20.6134 46.5379C27.8688 23.6538 49.4993 6.98981 74.9709 6.98981C100.442 6.98981 122.073 23.6538 129.309 46.5379C125.72 43.927 121.433 42.5255 116.932 42.5255H116.952Z" fill="#C0A375"/>
</svg>
