<svg width="67" height="66" viewBox="0 0 67 66" fill="none" xmlns="http://www.w3.org/2000/svg">
<g clip-path="url(#clip0_792_353)">
<path d="M54.4517 52.2216V32.0027C54.4517 31.3062 53.8889 30.7364 53.1854 30.7364H13.1768C12.4803 30.7364 11.9104 31.2992 11.9104 32.0027V52.2216C11.9104 52.9181 12.4732 53.4879 13.1768 53.4879H15.2099C15.7164 53.4879 16.1315 53.903 16.1315 54.4095C16.1315 54.916 15.7164 55.3311 15.2099 55.3311H13.1768C11.4672 55.3311 10.0672 53.9382 10.0672 52.2216V32.0027C10.0672 30.2932 11.4602 28.8932 13.1768 28.8932H53.1784C54.8879 28.8932 56.2879 30.2861 56.2879 32.0027V52.2216C56.2879 53.9382 54.8949 55.3311 53.1784 55.3311H51.1452C50.6387 55.3311 50.2236 54.916 50.2236 54.4095C50.2236 53.903 50.6387 53.4879 51.1452 53.4879H53.1784C53.8749 53.4879 54.4447 52.9251 54.4447 52.2216H54.4517ZM48.1905 53.6286V64.2305C48.1905 64.7371 47.7754 65.1521 47.2689 65.1521C46.7624 65.1521 46.3473 64.7371 46.3473 64.2305V53.6286C46.3473 51.9472 45.1443 50.5261 43.484 50.2518L35.6117 48.9503L36.8429 61.2547C36.864 61.4868 36.8006 61.719 36.6529 61.9089L33.9233 65.4757C33.7474 65.7009 33.4801 65.8345 33.1916 65.8345C32.9032 65.8345 32.6359 65.7009 32.46 65.4757L29.7304 61.9089C29.5897 61.719 29.5193 61.4868 29.5404 61.2547L30.7716 48.9503L22.8993 50.2518C21.239 50.5261 20.036 51.9472 20.036 53.6286V64.2305C20.036 64.7371 19.6209 65.1521 19.1144 65.1521C18.6079 65.1521 18.1928 64.7371 18.1928 64.2305V53.6286C18.1928 51.0397 20.0501 48.8518 22.6038 48.4297L30.2158 47.1704C27.859 45.5805 26.5575 42.3865 26.649 39.4529C26.7827 35.4218 29.3434 32.8188 33.1846 32.8188C37.0258 32.8188 39.5936 35.4218 39.7202 39.4529C39.8187 42.3865 38.5172 45.5805 36.1605 47.1634L43.7865 48.4226C46.3403 48.8447 48.1975 51.0327 48.1975 53.6216L48.1905 53.6286ZM33.1705 46.3332C36.1042 46.094 37.9614 42.6398 37.8629 39.5232C37.8278 38.3835 37.3775 34.669 33.1705 34.669C28.9635 34.669 28.5133 38.3835 28.4781 39.5232C28.3796 42.6398 30.2369 46.1011 33.1705 46.3332ZM33.7193 48.6407L33.1846 48.5563L32.6499 48.6407L31.4047 61.0788L33.1846 63.4004L34.9645 61.0788L33.7193 48.6407ZM24.1375 56.9562C23.6309 56.9562 23.2159 57.3713 23.2159 57.8778V64.2235C23.2159 64.73 23.6309 65.1451 24.1375 65.1451C24.644 65.1451 25.0591 64.73 25.0591 64.2235V57.8778C25.0591 57.3713 24.644 56.9562 24.1375 56.9562ZM42.2318 56.9562C41.7252 56.9562 41.3102 57.3713 41.3102 57.8778V64.2235C41.3102 64.73 41.7252 65.1451 42.2318 65.1451C42.7383 65.1451 43.1534 64.73 43.1534 64.2235V57.8778C43.1534 57.3713 42.7383 56.9562 42.2318 56.9562ZM66.3692 61.9722V64.2305C66.3692 64.7371 65.9541 65.1521 65.4476 65.1521H51.1593C50.6528 65.1521 50.2377 64.7371 50.2377 64.2305C50.2377 63.724 50.6528 63.3089 51.1593 63.3089H64.526V61.9722C64.526 61.2336 63.928 60.6356 63.1893 60.6356H51.1593C50.6528 60.6356 50.2377 60.2205 50.2377 59.714C50.2377 59.2075 50.6528 58.7924 51.1593 58.7924H61.0296V26.853C60.7552 26.9374 60.4668 27.0148 60.1783 27.0711C59.6859 27.1625 59.1864 27.2118 58.6869 27.2118C56.1261 27.2118 53.7693 25.9736 52.3131 23.9475C50.8568 25.9736 48.5 27.2118 45.9393 27.2118C43.3785 27.2118 41.0217 25.9736 39.5654 23.9475C38.1092 25.9736 35.7524 27.2118 33.1916 27.2118C30.6309 27.2118 28.2741 25.9736 26.8178 23.9475C25.3616 25.9736 23.0048 27.2118 20.444 27.2118C17.8832 27.2118 15.5265 25.9736 14.0702 23.9475C12.6139 25.9736 10.2572 27.2118 7.69641 27.2118C7.19691 27.2118 6.69742 27.1625 6.20496 27.0711C5.91653 27.0148 5.62809 26.9445 5.35372 26.853V58.7924H15.224C15.7305 58.7924 16.1456 59.2075 16.1456 59.714C16.1456 60.2205 15.7305 60.6356 15.224 60.6356H3.17987C2.44118 60.6356 1.8432 61.2406 1.8432 61.9793V63.316H15.2099C15.7164 63.316 16.1315 63.731 16.1315 64.2376C16.1315 64.7441 15.7164 65.1592 15.2099 65.1592H0.921599C0.415071 65.1592 0 64.7441 0 64.2376V61.9793C0 60.2275 1.42813 58.7994 3.17987 58.7994H3.49645V25.9736C1.5829 24.6792 0.379896 22.5123 0.379896 20.043V17.1868C0.379896 17.025 0.422106 16.8631 0.506528 16.7224L8.7376 2.44822C9.6381 0.893458 11.1858 0 12.9868 0H53.3754C55.1763 0 56.7241 0.893458 57.6246 2.44822L65.8627 16.7154C65.9401 16.8561 65.9893 17.0179 65.9893 17.1797V20.036C65.9893 22.5053 64.7933 24.6721 62.8728 25.9666V58.7924H63.1893C64.9411 58.7924 66.3692 60.2205 66.3692 61.9722ZM53.3754 1.8432H47.7684L52.9533 16.2581H63.4637L56.0276 3.37685C55.4578 2.39194 54.515 1.8432 53.3754 1.8432ZM25.9877 16.2511L27.7746 1.83616H20.5495L15.3647 16.2511H25.9877ZM27.845 16.2511H38.5102L36.7233 1.83616H29.6319L27.845 16.2511ZM50.9975 16.2511L45.8126 1.83616H38.5876L40.3745 16.2511H50.9975ZM2.89846 16.2511H13.4089L18.5868 1.8432H12.9798C11.8401 1.8432 10.8974 2.3849 10.3275 3.37685L2.89846 16.2511ZM13.1275 21.8933V18.1013H2.22309V20.036C2.22309 22.6249 3.99594 24.7706 6.53561 25.2631C6.90848 25.3334 7.29541 25.3686 7.6753 25.3686C10.025 25.3686 12.1426 24.0108 13.1275 21.8933ZM25.8822 21.8933V18.1013H14.9707V21.8933C15.9556 24.0108 18.0732 25.3686 20.4229 25.3686C22.7726 25.3686 24.8902 24.0108 25.8751 21.8933H25.8822ZM38.6368 21.8933V18.1013H27.7254V21.8933C28.7103 24.0108 30.8278 25.3686 33.1776 25.3686C35.5273 25.3686 37.6449 24.0108 38.6298 21.8933H38.6368ZM51.3915 21.8933V18.1013H40.48V21.8933C41.4649 24.0108 43.5825 25.3686 45.9322 25.3686C48.2819 25.3686 50.3995 24.0108 51.3844 21.8933H51.3915ZM64.1461 20.036V18.1013H53.2347V21.8933C54.2196 24.0108 56.3371 25.3686 58.6869 25.3686C59.0668 25.3686 59.4537 25.3334 59.8266 25.2631C62.3662 24.7706 64.1391 22.6249 64.1391 20.036H64.1461Z" fill="#C5A26E"/>
</g>
<defs>
<clipPath id="clip0_792_353">
<rect width="66.3692" height="65.8275" fill="white"/>
</clipPath>
</defs>
</svg>
