<svg width="11" height="18" viewBox="0 0 11 18" fill="none" xmlns="http://www.w3.org/2000/svg">
<path id="Vector" d="M0.186194 17.8489C0.296419 17.9442 0.446159 18 0.602138 18C0.758118 18 0.909938 17.946 1.01808 17.8489L10.8261 9.36576C11.0548 9.16969 11.059 8.8495 10.8323 8.65164C10.8323 8.65164 10.8281 8.64804 10.8261 8.64624L1.01808 0.161299C0.795553 -0.0437641 0.423282 -0.0545569 0.186194 0.136116C-0.0508948 0.326789 -0.0633732 0.650573 0.159157 0.855636C0.167476 0.86463 0.177875 0.871825 0.186194 0.87902L9.57823 9.0042L0.186194 17.1294C-0.0425759 17.3272 -0.0446556 17.6474 0.184114 17.8471C0.184114 17.8471 0.184114 17.8471 0.186194 17.8489Z" fill="#B98E33"/>
</svg>
