<svg width="150" height="150" viewBox="0 0 150 150" fill="none" xmlns="http://www.w3.org/2000/svg">
<rect width="150" height="150" fill="none"/>
<path d="M38.9223 110.498H18.4109C13.6183 110.498 9.26217 108.548 6.1121 105.405C2.95754 102.263 1 97.9233 1 93.1535V28.3443C1 23.57 2.95754 19.2351 6.1121 16.0926C9.26667 12.9501 13.6228 11 18.4109 11H92.6669C97.4595 11 101.811 12.9501 104.966 16.0926C108.12 19.2351 110.078 23.5745 110.078 28.3443V39.5022H130.589C135.382 39.5022 139.733 41.4523 142.888 44.5948C146.042 47.7373 148 52.0767 148 56.8465V121.656C148 126.43 146.042 130.765 142.888 133.907C139.733 137.05 135.377 139 130.589 139H56.3331C51.5405 139 47.1889 137.05 44.0344 133.907C40.8798 130.765 38.9223 126.43 38.9223 121.656V110.498ZM45.8119 69.5286L69.0639 46.3655H56.3331C53.4441 46.3655 50.8115 47.5445 48.908 49.4453C46.9999 51.346 45.8164 53.964 45.8164 56.8421V69.5242L45.8119 69.5286ZM78.8066 46.3655L45.8119 79.2341V98.6674L98.3145 46.3655H78.8066ZM103.188 80.3593L79.8236 103.634H92.6669C95.5559 103.634 98.184 102.455 100.092 100.555C102 98.654 103.184 96.036 103.184 93.158V80.3638H103.188V80.3593ZM70.0809 103.634L103.188 70.6538V51.2205L50.573 103.634H70.0809ZM110.082 46.3655V93.1535C110.082 97.9277 108.125 102.263 104.97 105.405C101.816 108.548 97.4595 110.498 92.6714 110.498H45.8164V121.656C45.8164 124.534 46.9999 127.156 48.908 129.052C50.816 130.953 53.4441 132.132 56.3331 132.132H130.589C133.478 132.132 136.111 130.953 138.019 129.052C139.927 127.152 141.11 124.529 141.11 121.651V56.8421C141.11 53.964 139.927 51.346 138.019 49.4453C136.111 47.5445 133.478 46.3655 130.589 46.3655H110.078H110.082ZM38.9223 103.634V56.8465C38.9223 52.0723 40.8798 47.7373 44.0344 44.5948C47.1889 41.4523 51.5405 39.5022 56.3331 39.5022H103.188V28.3443C103.188 25.4663 102.005 22.8483 100.097 20.9475C98.1885 19.0468 95.5604 17.8678 92.6714 17.8678H18.4154C15.5218 17.8678 12.8937 19.0468 10.9857 20.9475C9.07766 22.8483 7.89414 25.4663 7.89414 28.3443V93.1535C7.89414 96.0315 9.07766 98.6495 10.9857 100.55C12.8937 102.451 15.5218 103.63 18.4154 103.63H38.9268H38.9223V103.634Z" fill="#C0A375"/>
</svg>
